<svg width="320" height="447" viewBox="0 0 320 447" fill="none" xmlns="http://www.w3.org/2000/svg">
<rect width="320" height="447" fill="#E5E5E5"/>
<path d="M-3543 -3287C-3543 -3288.1 -3542.1 -3289 -3541 -3289H7777C7778.1 -3289 7779 -3288.1 7779 -3287V3730C7779 3731.1 7778.1 3732 7777 3732H-3541C-3542.1 3732 -3543 3731.1 -3543 3730V-3287Z" fill="#E9E9E9"/>
<path d="M-3541 -3288H7777V-3290H-3541V-3288ZM7778 -3287V3730H7780V-3287H7778ZM7777 3731H-3541V3733H7777V3731ZM-3542 3730V-3287H-3544V3730H-3542ZM-3541 3731C-3541.55 3731 -3542 3730.55 -3542 3730H-3544C-3544 3731.66 -3542.66 3733 -3541 3733V3731ZM7778 3730C7778 3730.55 7777.55 3731 7777 3731V3733C7778.66 3733 7780 3731.66 7780 3730H7778ZM7777 -3288C7777.55 -3288 7778 -3287.55 7778 -3287H7780C7780 -3288.66 7778.66 -3290 7777 -3290V-3288ZM-3541 -3290C-3542.66 -3290 -3544 -3288.66 -3544 -3287H-3542C-3542 -3287.55 -3541.55 -3288 -3541 -3288V-3290Z" fill="black" fill-opacity="0.1"/>
<rect width="320" height="447" fill="#FAF4E3"/>
<path d="M28.757 235.558C28.4629 233.095 28.3669 230.502 28.8942 228.061C29.3038 226.165 30.544 223.086 32.958 223.004C35.5486 222.915 36.5258 226.298 36.8308 228.212C37.6228 233.186 37.0211 238.446 36.3287 243.392C36.0464 245.409 35.7597 247.555 35.1241 249.505C34.9439 250.058 34.7142 250.04 34.1563 249.878C30.9576 248.95 27.7965 247.594 24.7639 246.243C20.9303 244.536 16.9576 242.684 13.6511 240.052C12.901 239.455 10.7824 237.949 11.6974 236.716C12.6791 235.393 14.7798 234.543 16.353 234.385C19.7052 234.048 23.0239 235.278 26.3181 235.681C26.6157 235.718 26.9251 235.721 27.1972 235.854C27.551 236.027 28.0504 236.38 28.4516 236.311" stroke="#117031" stroke-width="2" stroke-linecap="round"/>
<path d="M282.699 35.1325C279.583 34.796 273.82 36.9043 271.215 38.4257C269.786 35.4842 268.937 30.7335 265.746 29.27C259.577 26.441 262.796 46.7309 263.181 48.574C263.438 49.8026 263.847 53 265.791 53C266.648 53 269.123 51.8796 269.649 51.622C274.81 49.0964 280.418 45.6071 283.766 40.7146C285.167 38.6672 286.008 35.4897 282.699 35.1325Z" stroke="#117031" stroke-width="2" stroke-linecap="round"/>
<path d="M285.188 65.315C287.109 64.7395 293.713 63.8647 292.937 67.5706C292.231 70.9401 287.358 72.4244 284.53 73.1457C282.907 73.5596 278.244 75.1159 277.553 72.5924C276.848 70.0158 276.196 62.2091 279.783 61.0876C282.26 60.3132 284.03 64.8869 284.53 66.3741" stroke="#117031" stroke-width="2" stroke-linecap="round"/>
</svg>
