<svg width="1440" height="787" viewBox="0 0 1440 787" fill="none" xmlns="http://www.w3.org/2000/svg">
<rect width="1440" height="787" fill="#FAF4E3"/>
<path d="M1231.62 150.243C1225.26 149.575 1213.5 153.757 1208.19 156.774C1205.27 150.94 1203.54 141.519 1197.02 138.617C1184.43 133.006 1191 173.244 1191.79 176.899C1192.31 179.336 1193.15 185.677 1197.12 185.677C1198.86 185.677 1203.92 183.455 1204.99 182.944C1215.52 177.936 1226.97 171.016 1233.8 161.313C1236.66 157.253 1238.38 150.951 1231.62 150.243Z" stroke="#117031" stroke-width="3" stroke-linecap="round"/>
<path d="M1234.5 210.296C1238.61 209.056 1252.72 207.171 1251.06 215.155C1249.56 222.414 1239.14 225.611 1233.09 227.165C1229.63 228.057 1219.66 231.409 1218.18 225.973C1216.67 220.422 1215.28 203.605 1222.95 201.189C1228.24 199.521 1232.03 209.373 1233.09 212.577" stroke="#117031" stroke-width="3" stroke-linecap="round"/>
<path d="M173.29 351.404C172.554 345.241 172.314 338.756 173.633 332.648C174.658 327.904 177.761 320.2 183.801 319.994C190.283 319.773 192.727 328.235 193.49 333.026C195.472 345.469 193.967 358.632 192.234 371.007C191.528 376.051 190.81 381.422 189.22 386.301C188.769 387.684 188.195 387.64 186.799 387.234C178.796 384.911 170.887 381.519 163.299 378.139C153.707 373.867 143.767 369.235 135.495 362.649C133.618 361.155 128.317 357.387 130.606 354.302C133.062 350.993 138.319 348.866 142.255 348.47C150.642 347.626 158.945 350.705 167.187 351.713C167.932 351.804 168.706 351.812 169.387 352.145C170.272 352.577 171.522 353.461 172.526 353.289" stroke="#117031" stroke-width="3" stroke-linecap="round"/>
</svg>
