<svg width="300" height="467" viewBox="0 0 300 467" fill="none" xmlns="http://www.w3.org/2000/svg">
<g clip-path="url(#clip0_2049_22981)">
<rect width="300" height="467" fill="#F9EFD5"/>
<g opacity="0.5">
<path d="M-284.433 43.3011L-281.048 33.3738L-290.389 28.5453L-296.341 37.1457L-303.683 33.1693L-271.232 -12.7869L-258.825 -6.37342L-277.195 46.9524L-284.433 43.3011ZM-285.824 21.9432L-278.409 25.7766L-268.631 -2.39057L-268.298 -3.21423L-285.824 21.9432Z" fill="url(#paint0_linear_2049_22981)"/>
<path d="M-284.433 136.028L-281.048 126.1L-290.389 121.272L-296.341 129.872L-303.683 125.896L-271.232 79.9396L-258.825 86.3531L-277.195 139.679L-284.433 136.028ZM-285.824 114.67L-278.409 118.503L-268.631 90.336L-268.298 89.5123L-285.824 114.67Z" fill="url(#paint1_linear_2049_22981)"/>
<path d="M-284.433 228.754L-281.048 218.827L-290.389 213.998L-296.341 222.599L-303.683 218.622L-271.232 172.666L-258.825 179.08L-277.195 232.405L-284.433 228.754ZM-285.824 207.396L-278.409 211.23L-268.631 183.062L-268.298 182.239L-285.824 207.396Z" fill="url(#paint2_linear_2049_22981)"/>
<path d="M-284.433 321.481L-281.048 311.553L-290.389 306.725L-296.341 315.325L-303.683 311.349L-271.232 265.393L-258.825 271.806L-277.195 325.132L-284.433 321.481ZM-285.824 300.123L-278.409 303.956L-268.631 275.789L-268.298 274.965L-285.824 300.123Z" fill="url(#paint3_linear_2049_22981)"/>
<path d="M-284.433 414.207L-281.048 404.28L-290.389 399.451L-296.341 408.052L-303.683 404.075L-271.232 358.119L-258.825 364.533L-277.195 417.858L-284.433 414.207ZM-285.824 392.849L-278.409 396.683L-268.631 368.516L-268.298 367.692L-285.824 392.849Z" fill="url(#paint4_linear_2049_22981)"/>
<path d="M-284.433 506.934L-281.048 497.006L-290.389 492.178L-296.341 500.778L-303.683 496.802L-271.232 450.846L-258.825 457.259L-277.195 510.585L-284.433 506.934ZM-285.824 485.576L-278.409 489.409L-268.631 461.242L-268.298 460.418L-285.824 485.576Z" fill="url(#paint5_linear_2049_22981)"/>
<path d="M-317.743 5.00099L-317.583 13.0476L-338.84 13.3694L-339 5.40332L-317.743 5.00099Z" fill="url(#paint6_linear_2049_22981)"/>
<path d="M-317.743 97.7275L-317.583 105.774L-338.84 106.096L-339 98.1298L-317.743 97.7275Z" fill="url(#paint7_linear_2049_22981)"/>
<path d="M-317.743 190.454L-317.583 198.501L-338.84 198.822L-339 190.856L-317.743 190.454Z" fill="url(#paint8_linear_2049_22981)"/>
<path d="M-317.743 283.181L-317.583 291.227L-338.84 291.549L-339 283.583L-317.743 283.181Z" fill="url(#paint9_linear_2049_22981)"/>
<path d="M-317.743 375.907L-317.583 383.954L-338.84 384.276L-339 376.309L-317.743 375.907Z" fill="url(#paint10_linear_2049_22981)"/>
<path d="M-317.743 468.634L-317.583 476.68L-338.84 477.002L-339 469.036L-317.743 468.634Z" fill="url(#paint11_linear_2049_22981)"/>
<path d="M-202.641 -25.0127L-202.32 30.9109L-210.261 30.9914L-210.502 -16.7247L-218.363 28.2556H-226.625L-235.689 -16.7247L-235.529 30.9914H-243.551L-243.711 -24.6908L-230.155 -25.0127L-222.775 13.128L-216.358 -25.415L-202.641 -25.0127Z" fill="url(#paint12_linear_2049_22981)"/>
<path d="M-202.641 67.7138L-202.32 123.637L-210.261 123.718L-210.502 76.0018L-218.363 120.982H-226.625L-235.689 76.0018L-235.529 123.718H-243.551L-243.711 68.0357L-230.155 67.7138L-222.775 105.855L-216.358 67.3115L-202.641 67.7138Z" fill="url(#paint13_linear_2049_22981)"/>
<path d="M-202.641 160.44L-202.32 216.364L-210.261 216.444L-210.502 168.728L-218.363 213.709H-226.625L-235.689 168.728L-235.529 216.444H-243.551L-243.711 160.762L-230.155 160.44L-222.775 198.581L-216.358 160.038L-202.641 160.44Z" fill="url(#paint14_linear_2049_22981)"/>
<path d="M-202.641 253.167L-202.32 309.091L-210.261 309.171L-210.502 261.455L-218.363 306.435H-226.625L-235.689 261.455L-235.529 309.171H-243.551L-243.711 253.489L-230.155 253.167L-222.775 291.308L-216.358 252.765L-202.641 253.167Z" fill="url(#paint15_linear_2049_22981)"/>
<path d="M-202.641 345.893L-202.32 401.817L-210.261 401.898L-210.502 354.181L-218.363 399.162H-226.625L-235.689 354.181L-235.529 401.898H-243.551L-243.711 346.215L-230.155 345.893L-222.775 384.034L-216.358 345.491L-202.641 345.893Z" fill="url(#paint16_linear_2049_22981)"/>
<path d="M-202.641 438.62L-202.32 494.544L-210.261 494.624L-210.502 446.908L-218.363 491.888H-226.625L-235.689 446.908L-235.529 494.624H-243.551L-243.711 438.942L-230.155 438.62L-222.775 476.761L-216.358 438.218L-202.641 438.62Z" fill="url(#paint17_linear_2049_22981)"/>
<path d="M-121.81 43.3011L-118.425 33.3738L-127.766 28.5453L-133.718 37.1457L-141.06 33.1693L-108.609 -12.7869L-96.202 -6.37342L-114.572 46.9524L-121.81 43.3011ZM-123.201 21.9432L-115.786 25.7766L-106.009 -2.39057L-105.676 -3.21423L-123.201 21.9432Z" fill="url(#paint18_linear_2049_22981)"/>
<path d="M-121.81 136.028L-118.425 126.1L-127.766 121.272L-133.718 129.872L-141.06 125.896L-108.609 79.9396L-96.202 86.3531L-114.572 139.679L-121.81 136.028ZM-123.201 114.67L-115.786 118.503L-106.009 90.336L-105.676 89.5123L-123.201 114.67Z" fill="url(#paint19_linear_2049_22981)"/>
<path d="M-121.81 228.754L-118.425 218.827L-127.766 213.998L-133.718 222.599L-141.06 218.622L-108.609 172.666L-96.202 179.08L-114.572 232.405L-121.81 228.754ZM-123.201 207.396L-115.786 211.23L-106.009 183.062L-105.676 182.239L-123.201 207.396Z" fill="url(#paint20_linear_2049_22981)"/>
<path d="M-121.81 321.481L-118.425 311.553L-127.766 306.725L-133.718 315.325L-141.06 311.349L-108.609 265.393L-96.202 271.806L-114.572 325.132L-121.81 321.481ZM-123.201 300.123L-115.786 303.956L-106.009 275.789L-105.676 274.965L-123.201 300.123Z" fill="url(#paint21_linear_2049_22981)"/>
<path d="M-121.81 414.207L-118.425 404.28L-127.766 399.451L-133.718 408.052L-141.06 404.075L-108.609 358.119L-96.202 364.533L-114.572 417.858L-121.81 414.207ZM-123.201 392.849L-115.786 396.683L-106.009 368.516L-105.676 367.692L-123.201 392.849Z" fill="url(#paint22_linear_2049_22981)"/>
<path d="M-121.81 506.934L-118.425 497.006L-127.766 492.178L-133.718 500.778L-141.06 496.802L-108.609 450.846L-96.202 457.259L-114.572 510.585L-121.81 506.934ZM-123.201 485.576L-115.786 489.409L-106.009 461.242L-105.676 460.418L-123.201 485.576Z" fill="url(#paint23_linear_2049_22981)"/>
<path d="M-155.122 5.00099L-154.962 13.0476L-176.219 13.3694L-176.379 5.40332L-155.122 5.00099Z" fill="url(#paint24_linear_2049_22981)"/>
<path d="M-155.122 97.7275L-154.962 105.774L-176.219 106.096L-176.379 98.1298L-155.122 97.7275Z" fill="url(#paint25_linear_2049_22981)"/>
<path d="M-155.122 190.454L-154.962 198.501L-176.219 198.822L-176.379 190.856L-155.122 190.454Z" fill="url(#paint26_linear_2049_22981)"/>
<path d="M-155.122 283.181L-154.962 291.227L-176.219 291.549L-176.379 283.583L-155.122 283.181Z" fill="url(#paint27_linear_2049_22981)"/>
<path d="M-155.122 375.907L-154.962 383.954L-176.219 384.276L-176.379 376.309L-155.122 375.907Z" fill="url(#paint28_linear_2049_22981)"/>
<path d="M-155.122 468.634L-154.962 476.68L-176.219 477.002L-176.379 469.036L-155.122 468.634Z" fill="url(#paint29_linear_2049_22981)"/>
<path d="M-40.0139 -25.0127L-39.6931 30.9109L-47.6344 30.9914L-47.875 -16.7247L-55.7361 28.2556H-63.9982L-73.0625 -16.7247L-72.9021 30.9914H-80.9236L-81.084 -24.6908L-67.5277 -25.0127L-60.1479 13.128L-53.7307 -25.415L-40.0139 -25.0127Z" fill="url(#paint30_linear_2049_22981)"/>
<path d="M-40.0139 67.7138L-39.6931 123.637L-47.6344 123.718L-47.875 76.0018L-55.7361 120.982H-63.9982L-73.0625 76.0018L-72.9021 123.718H-80.9236L-81.084 68.0357L-67.5277 67.7138L-60.1479 105.855L-53.7307 67.3115L-40.0139 67.7138Z" fill="url(#paint31_linear_2049_22981)"/>
<path d="M-40.0139 160.44L-39.6931 216.364L-47.6344 216.444L-47.875 168.728L-55.7361 213.709H-63.9982L-73.0625 168.728L-72.9021 216.444H-80.9236L-81.084 160.762L-67.5277 160.44L-60.1479 198.581L-53.7307 160.038L-40.0139 160.44Z" fill="url(#paint32_linear_2049_22981)"/>
<path d="M-40.0139 253.167L-39.6931 309.091L-47.6344 309.171L-47.875 261.455L-55.7361 306.435H-63.9982L-73.0625 261.455L-72.9021 309.171H-80.9236L-81.084 253.489L-67.5277 253.167L-60.1479 291.308L-53.7307 252.765L-40.0139 253.167Z" fill="url(#paint33_linear_2049_22981)"/>
<path d="M-40.0139 345.893L-39.6931 401.817L-47.6344 401.898L-47.875 354.181L-55.7361 399.162H-63.9982L-73.0625 354.181L-72.9021 401.898H-80.9236L-81.084 346.215L-67.5277 345.893L-60.1479 384.034L-53.7307 345.491L-40.0139 345.893Z" fill="url(#paint34_linear_2049_22981)"/>
<path d="M-40.0139 438.62L-39.6931 494.544L-47.6344 494.624L-47.875 446.908L-55.7361 491.888H-63.9982L-73.0625 446.908L-72.9021 494.624H-80.9236L-81.084 438.942L-67.5277 438.62L-60.1479 476.761L-53.7307 438.218L-40.0139 438.62Z" fill="url(#paint35_linear_2049_22981)"/>
<path d="M43.2279 43.3011L46.6131 33.3738L37.2722 28.5453L31.3201 37.1457L23.9779 33.1693L56.4294 -12.7869L68.8363 -6.37342L50.4664 46.9524L43.2279 43.3011ZM41.8369 21.9432L49.2525 25.7766L59.0298 -2.39057L59.3627 -3.21423L41.8369 21.9432Z" fill="url(#paint36_linear_2049_22981)"/>
<path d="M43.2279 136.028L46.6131 126.1L37.2722 121.272L31.3201 129.872L23.9779 125.896L56.4294 79.9396L68.8363 86.3531L50.4664 139.679L43.2279 136.028ZM41.8369 114.67L49.2525 118.503L59.0298 90.336L59.3627 89.5123L41.8369 114.67Z" fill="url(#paint37_linear_2049_22981)"/>
<path d="M43.2279 228.754L46.6131 218.827L37.2722 213.998L31.3201 222.599L23.9779 218.622L56.4294 172.666L68.8363 179.08L50.4664 232.405L43.2279 228.754ZM41.8369 207.396L49.2525 211.23L59.0298 183.062L59.3627 182.239L41.8369 207.396Z" fill="url(#paint38_linear_2049_22981)"/>
<path d="M43.2279 321.481L46.6131 311.553L37.2722 306.725L31.3201 315.325L23.9779 311.349L56.4294 265.393L68.8363 271.806L50.4664 325.132L43.2279 321.481ZM41.8369 300.123L49.2525 303.956L59.0298 275.789L59.3627 274.965L41.8369 300.123Z" fill="url(#paint39_linear_2049_22981)"/>
<path d="M43.2279 414.207L46.6131 404.28L37.2722 399.451L31.3201 408.052L23.9779 404.075L56.4294 358.119L68.8363 364.533L50.4664 417.858L43.2279 414.207ZM41.8369 392.849L49.2525 396.683L59.0298 368.516L59.3627 367.692L41.8369 392.849Z" fill="url(#paint40_linear_2049_22981)"/>
<path d="M43.2279 506.934L46.6131 497.006L37.2722 492.178L31.3201 500.778L23.9779 496.802L56.4294 450.846L68.8363 457.259L50.4664 510.585L43.2279 506.934ZM41.8369 485.576L49.2525 489.409L59.0298 461.242L59.3627 460.418L41.8369 485.576Z" fill="url(#paint41_linear_2049_22981)"/>
<path d="M9.9181 5.00099L10.0785 13.0476L-11.1784 13.3694L-11.3389 5.40332L9.9181 5.00099Z" fill="url(#paint42_linear_2049_22981)"/>
<path d="M9.9181 97.7275L10.0785 105.774L-11.1784 106.096L-11.3389 98.1298L9.9181 97.7275Z" fill="url(#paint43_linear_2049_22981)"/>
<path d="M9.9181 190.454L10.0785 198.501L-11.1784 198.822L-11.3389 190.856L9.9181 190.454Z" fill="url(#paint44_linear_2049_22981)"/>
<path d="M9.9181 283.181L10.0785 291.227L-11.1784 291.549L-11.3389 283.583L9.9181 283.181Z" fill="url(#paint45_linear_2049_22981)"/>
<path d="M9.9181 375.907L10.0785 383.954L-11.1784 384.276L-11.3389 376.309L9.9181 375.907Z" fill="url(#paint46_linear_2049_22981)"/>
<path d="M9.9181 468.634L10.0785 476.68L-11.1784 477.002L-11.3389 469.036L9.9181 468.634Z" fill="url(#paint47_linear_2049_22981)"/>
<path d="M125.02 -25.0127L125.341 30.9109L117.4 30.9914L117.159 -16.7247L109.298 28.2556H101.036L91.9717 -16.7247L92.1321 30.9914H84.1106L83.9502 -24.6908L97.5065 -25.0127L104.886 13.128L111.304 -25.415L125.02 -25.0127Z" fill="url(#paint48_linear_2049_22981)"/>
<path d="M125.02 67.7138L125.341 123.637L117.4 123.718L117.159 76.0018L109.298 120.982H101.036L91.9717 76.0018L92.1321 123.718H84.1106L83.9502 68.0357L97.5065 67.7138L104.886 105.855L111.304 67.3115L125.02 67.7138Z" fill="url(#paint49_linear_2049_22981)"/>
<path d="M125.02 160.44L125.341 216.364L117.4 216.444L117.159 168.728L109.298 213.709H101.036L91.9717 168.728L92.1321 216.444H84.1106L83.9502 160.762L97.5065 160.44L104.886 198.581L111.304 160.038L125.02 160.44Z" fill="url(#paint50_linear_2049_22981)"/>
<path d="M125.02 253.167L125.341 309.091L117.4 309.171L117.159 261.455L109.298 306.435H101.036L91.9717 261.455L92.1321 309.171H84.1106L83.9502 253.489L97.5065 253.167L104.886 291.308L111.304 252.765L125.02 253.167Z" fill="url(#paint51_linear_2049_22981)"/>
<path d="M125.02 345.893L125.341 401.817L117.4 401.898L117.159 354.181L109.298 399.162H101.036L91.9717 354.181L92.1321 401.898H84.1106L83.9502 346.215L97.5065 345.893L104.886 384.034L111.304 345.491L125.02 345.893Z" fill="url(#paint52_linear_2049_22981)"/>
<path d="M125.02 438.62L125.341 494.544L117.4 494.624L117.159 446.908L109.298 491.888H101.036L91.9717 446.908L92.1321 494.624H84.1106L83.9502 438.942L97.5065 438.62L104.886 476.761L111.304 438.218L125.02 438.62Z" fill="url(#paint53_linear_2049_22981)"/>
<path d="M205.851 43.3011L209.236 33.3738L199.895 28.5453L193.943 37.1457L186.601 33.1693L219.052 -12.7869L231.459 -6.37342L213.089 46.9524L205.851 43.3011ZM204.46 21.9432L211.875 25.7766L221.653 -2.39057L221.985 -3.21423L204.46 21.9432Z" fill="url(#paint54_linear_2049_22981)"/>
<path d="M205.851 136.028L209.236 126.1L199.895 121.272L193.943 129.872L186.601 125.896L219.052 79.9396L231.459 86.3531L213.089 139.679L205.851 136.028ZM204.46 114.67L211.875 118.503L221.653 90.336L221.985 89.5123L204.46 114.67Z" fill="url(#paint55_linear_2049_22981)"/>
<path d="M205.851 228.754L209.236 218.827L199.895 213.998L193.943 222.599L186.601 218.622L219.052 172.666L231.459 179.08L213.089 232.405L205.851 228.754ZM204.46 207.396L211.875 211.23L221.653 183.062L221.985 182.239L204.46 207.396Z" fill="url(#paint56_linear_2049_22981)"/>
<path d="M205.851 321.481L209.236 311.553L199.895 306.725L193.943 315.325L186.601 311.349L219.052 265.393L231.459 271.806L213.089 325.132L205.851 321.481ZM204.46 300.123L211.875 303.956L221.653 275.789L221.985 274.965L204.46 300.123Z" fill="url(#paint57_linear_2049_22981)"/>
<path d="M205.851 414.207L209.236 404.28L199.895 399.451L193.943 408.052L186.601 404.075L219.052 358.119L231.459 364.533L213.089 417.858L205.851 414.207ZM204.46 392.849L211.875 396.683L221.653 368.516L221.985 367.692L204.46 392.849Z" fill="url(#paint58_linear_2049_22981)"/>
<path d="M205.851 506.934L209.236 497.006L199.895 492.178L193.943 500.778L186.601 496.802L219.052 450.846L231.459 457.259L213.089 510.585L205.851 506.934ZM204.46 485.576L211.875 489.409L221.653 461.242L221.985 460.418L204.46 485.576Z" fill="url(#paint59_linear_2049_22981)"/>
<path d="M172.541 5.00099L172.701 13.0476L151.444 13.3694L151.284 5.40332L172.541 5.00099Z" fill="url(#paint60_linear_2049_22981)"/>
<path d="M172.541 97.7275L172.701 105.774L151.444 106.096L151.284 98.1298L172.541 97.7275Z" fill="url(#paint61_linear_2049_22981)"/>
<path d="M172.541 190.454L172.701 198.501L151.444 198.822L151.284 190.856L172.541 190.454Z" fill="url(#paint62_linear_2049_22981)"/>
<path d="M172.541 283.181L172.701 291.227L151.444 291.549L151.284 283.583L172.541 283.181Z" fill="url(#paint63_linear_2049_22981)"/>
<path d="M172.541 375.907L172.701 383.954L151.444 384.276L151.284 376.309L172.541 375.907Z" fill="url(#paint64_linear_2049_22981)"/>
<path d="M172.541 468.634L172.701 476.68L151.444 477.002L151.284 469.036L172.541 468.634Z" fill="url(#paint65_linear_2049_22981)"/>
<path d="M287.649 -25.0127L287.97 30.9109L280.029 30.9914L279.788 -16.7247L271.927 28.2556H263.665L254.601 -16.7247L254.761 30.9914H246.74L246.579 -24.6908L260.136 -25.0127L267.515 13.128L273.933 -25.415L287.649 -25.0127Z" fill="url(#paint66_linear_2049_22981)"/>
<path d="M287.649 67.7138L287.97 123.637L280.029 123.718L279.788 76.0018L271.927 120.982H263.665L254.601 76.0018L254.761 123.718H246.74L246.579 68.0357L260.136 67.7138L267.515 105.855L273.933 67.3115L287.649 67.7138Z" fill="url(#paint67_linear_2049_22981)"/>
<path d="M287.649 160.44L287.97 216.364L280.029 216.444L279.788 168.728L271.927 213.709H263.665L254.601 168.728L254.761 216.444H246.74L246.579 160.762L260.136 160.44L267.515 198.581L273.933 160.038L287.649 160.44Z" fill="url(#paint68_linear_2049_22981)"/>
<path d="M287.649 253.167L287.97 309.091L280.029 309.171L279.788 261.455L271.927 306.435H263.665L254.601 261.455L254.761 309.171H246.74L246.579 253.489L260.136 253.167L267.515 291.308L273.933 252.765L287.649 253.167Z" fill="url(#paint69_linear_2049_22981)"/>
<path d="M287.649 345.893L287.97 401.817L280.029 401.898L279.788 354.181L271.927 399.162H263.665L254.601 354.181L254.761 401.898H246.74L246.579 346.215L260.136 345.893L267.515 384.034L273.933 345.491L287.649 345.893Z" fill="url(#paint70_linear_2049_22981)"/>
<path d="M287.649 438.62L287.97 494.544L280.029 494.624L279.788 446.908L271.927 491.888H263.665L254.601 446.908L254.761 494.624H246.74L246.579 438.942L260.136 438.62L267.515 476.761L273.933 438.218L287.649 438.62Z" fill="url(#paint71_linear_2049_22981)"/>
<path d="M381.726 43.3011L385.111 33.3738L375.77 28.5453L369.818 37.1457L362.476 33.1693L394.927 -12.7869L407.334 -6.37342L388.964 46.9524L381.726 43.3011ZM380.335 21.9432L387.75 25.7766L397.528 -2.39057L397.86 -3.21423L380.335 21.9432Z" fill="url(#paint72_linear_2049_22981)"/>
<path d="M381.726 136.028L385.111 126.1L375.77 121.272L369.818 129.872L362.476 125.896L394.927 79.9396L407.334 86.3531L388.964 139.679L381.726 136.028ZM380.335 114.67L387.75 118.503L397.528 90.336L397.86 89.5123L380.335 114.67Z" fill="url(#paint73_linear_2049_22981)"/>
<path d="M381.726 228.754L385.111 218.827L375.77 213.998L369.818 222.599L362.476 218.622L394.927 172.666L407.334 179.08L388.964 232.405L381.726 228.754ZM380.335 207.396L387.75 211.23L397.528 183.062L397.86 182.239L380.335 207.396Z" fill="url(#paint74_linear_2049_22981)"/>
<path d="M381.726 321.481L385.111 311.553L375.77 306.725L369.818 315.325L362.476 311.349L394.927 265.393L407.334 271.806L388.964 325.132L381.726 321.481ZM380.335 300.123L387.75 303.956L397.528 275.789L397.86 274.965L380.335 300.123Z" fill="url(#paint75_linear_2049_22981)"/>
<path d="M381.726 414.207L385.111 404.28L375.77 399.451L369.818 408.052L362.476 404.075L394.927 358.119L407.334 364.533L388.964 417.858L381.726 414.207ZM380.335 392.849L387.75 396.683L397.528 368.516L397.86 367.692L380.335 392.849Z" fill="url(#paint76_linear_2049_22981)"/>
<path d="M381.726 506.934L385.111 497.006L375.77 492.178L369.818 500.778L362.476 496.802L394.927 450.846L407.334 457.259L388.964 510.585L381.726 506.934ZM380.335 485.576L387.75 489.409L397.528 461.242L397.86 460.418L380.335 485.576Z" fill="url(#paint77_linear_2049_22981)"/>
<path d="M348.416 5.00099L348.576 13.0476L327.319 13.3694L327.159 5.40332L348.416 5.00099Z" fill="url(#paint78_linear_2049_22981)"/>
<path d="M348.416 97.7275L348.576 105.774L327.319 106.096L327.159 98.1298L348.416 97.7275Z" fill="url(#paint79_linear_2049_22981)"/>
<path d="M348.416 190.454L348.576 198.501L327.319 198.822L327.159 190.856L348.416 190.454Z" fill="url(#paint80_linear_2049_22981)"/>
<path d="M348.416 283.181L348.576 291.227L327.319 291.549L327.159 283.583L348.416 283.181Z" fill="url(#paint81_linear_2049_22981)"/>
<path d="M348.416 375.907L348.576 383.954L327.319 384.276L327.159 376.309L348.416 375.907Z" fill="url(#paint82_linear_2049_22981)"/>
<path d="M348.416 468.634L348.576 476.68L327.319 477.002L327.159 469.036L348.416 468.634Z" fill="url(#paint83_linear_2049_22981)"/>
<path d="M463.52 -25.0127L463.841 30.9109L455.9 30.9914L455.659 -16.7247L447.798 28.2556H439.536L430.472 -16.7247L430.632 30.9914H422.611L422.45 -24.6908L436.006 -25.0127L443.386 13.128L449.803 -25.415L463.52 -25.0127Z" fill="url(#paint84_linear_2049_22981)"/>
<path d="M463.52 67.7138L463.841 123.637L455.9 123.718L455.659 76.0018L447.798 120.982H439.536L430.472 76.0018L430.632 123.718H422.611L422.45 68.0357L436.006 67.7138L443.386 105.855L449.803 67.3115L463.52 67.7138Z" fill="url(#paint85_linear_2049_22981)"/>
<path d="M463.52 160.44L463.841 216.364L455.9 216.444L455.659 168.728L447.798 213.709H439.536L430.472 168.728L430.632 216.444H422.611L422.45 160.762L436.006 160.44L443.386 198.581L449.803 160.038L463.52 160.44Z" fill="url(#paint86_linear_2049_22981)"/>
<path d="M463.52 253.167L463.841 309.091L455.9 309.171L455.659 261.455L447.798 306.435H439.536L430.472 261.455L430.632 309.171H422.611L422.45 253.489L436.006 253.167L443.386 291.308L449.803 252.765L463.52 253.167Z" fill="url(#paint87_linear_2049_22981)"/>
<path d="M463.52 345.893L463.841 401.817L455.9 401.898L455.659 354.181L447.798 399.162H439.536L430.472 354.181L430.632 401.898H422.611L422.45 346.215L436.006 345.893L443.386 384.034L449.803 345.491L463.52 345.893Z" fill="url(#paint88_linear_2049_22981)"/>
<path d="M463.52 438.62L463.841 494.544L455.9 494.624L455.659 446.908L447.798 491.888H439.536L430.472 446.908L430.632 494.624H422.611L422.45 438.942L436.006 438.62L443.386 476.761L449.803 438.218L463.52 438.62Z" fill="url(#paint89_linear_2049_22981)"/>
<path d="M544.346 43.3011L547.732 33.3738L538.391 28.5453L532.439 37.1457L525.096 33.1693L557.548 -12.7869L569.955 -6.37342L551.585 46.9524L544.346 43.3011ZM542.955 21.9432L550.371 25.7766L560.148 -2.39057L560.481 -3.21423L542.955 21.9432Z" fill="url(#paint90_linear_2049_22981)"/>
<path d="M544.346 136.028L547.732 126.1L538.391 121.272L532.439 129.872L525.096 125.896L557.548 79.9396L569.955 86.3531L551.585 139.679L544.346 136.028ZM542.955 114.67L550.371 118.503L560.148 90.336L560.481 89.5123L542.955 114.67Z" fill="url(#paint91_linear_2049_22981)"/>
<path d="M544.346 228.754L547.732 218.827L538.391 213.998L532.439 222.599L525.096 218.622L557.548 172.666L569.955 179.08L551.585 232.405L544.346 228.754ZM542.955 207.396L550.371 211.23L560.148 183.062L560.481 182.239L542.955 207.396Z" fill="url(#paint92_linear_2049_22981)"/>
<path d="M544.346 321.481L547.732 311.553L538.391 306.725L532.439 315.325L525.096 311.349L557.548 265.393L569.955 271.806L551.585 325.132L544.346 321.481ZM542.955 300.123L550.371 303.956L560.148 275.789L560.481 274.965L542.955 300.123Z" fill="url(#paint93_linear_2049_22981)"/>
<path d="M544.346 414.207L547.732 404.28L538.391 399.451L532.439 408.052L525.096 404.075L557.548 358.119L569.955 364.533L551.585 417.858L544.346 414.207ZM542.955 392.849L550.371 396.683L560.148 368.516L560.481 367.692L542.955 392.849Z" fill="url(#paint94_linear_2049_22981)"/>
<path d="M544.346 506.934L547.732 497.006L538.391 492.178L532.439 500.778L525.096 496.802L557.548 450.846L569.955 457.259L551.585 510.585L544.346 506.934ZM542.955 485.576L550.371 489.409L560.148 461.242L560.481 460.418L542.955 485.576Z" fill="url(#paint95_linear_2049_22981)"/>
<path d="M511.041 5.00099L511.201 13.0476L489.944 13.3694L489.784 5.40332L511.041 5.00099Z" fill="url(#paint96_linear_2049_22981)"/>
<path d="M511.041 97.7275L511.201 105.774L489.944 106.096L489.784 98.1298L511.041 97.7275Z" fill="url(#paint97_linear_2049_22981)"/>
<path d="M511.041 190.454L511.201 198.501L489.944 198.822L489.784 190.856L511.041 190.454Z" fill="url(#paint98_linear_2049_22981)"/>
<path d="M511.041 283.181L511.201 291.227L489.944 291.549L489.784 283.583L511.041 283.181Z" fill="url(#paint99_linear_2049_22981)"/>
<path d="M511.041 375.907L511.201 383.954L489.944 384.276L489.784 376.309L511.041 375.907Z" fill="url(#paint100_linear_2049_22981)"/>
<path d="M511.041 468.634L511.201 476.68L489.944 477.002L489.784 469.036L511.041 468.634Z" fill="url(#paint101_linear_2049_22981)"/>
<path d="M626.149 -25.0127L626.47 30.9109L618.529 30.9914L618.288 -16.7247L610.427 28.2556H602.165L593.101 -16.7247L593.261 30.9914H585.24L585.079 -24.6908L598.635 -25.0127L606.015 13.128L612.432 -25.415L626.149 -25.0127Z" fill="url(#paint102_linear_2049_22981)"/>
<path d="M626.149 67.7138L626.47 123.637L618.529 123.718L618.288 76.0018L610.427 120.982H602.165L593.101 76.0018L593.261 123.718H585.24L585.079 68.0357L598.635 67.7138L606.015 105.855L612.432 67.3115L626.149 67.7138Z" fill="url(#paint103_linear_2049_22981)"/>
<path d="M626.149 160.44L626.47 216.364L618.529 216.444L618.288 168.728L610.427 213.709H602.165L593.101 168.728L593.261 216.444H585.24L585.079 160.762L598.635 160.44L606.015 198.581L612.432 160.038L626.149 160.44Z" fill="url(#paint104_linear_2049_22981)"/>
<path d="M626.149 253.167L626.47 309.091L618.529 309.171L618.288 261.455L610.427 306.435H602.165L593.101 261.455L593.261 309.171H585.24L585.079 253.489L598.635 253.167L606.015 291.308L612.432 252.765L626.149 253.167Z" fill="url(#paint105_linear_2049_22981)"/>
<path d="M626.149 345.893L626.47 401.817L618.529 401.898L618.288 354.181L610.427 399.162H602.165L593.101 354.181L593.261 401.898H585.24L585.079 346.215L598.635 345.893L606.015 384.034L612.432 345.491L626.149 345.893Z" fill="url(#paint106_linear_2049_22981)"/>
<path d="M626.149 438.62L626.47 494.544L618.529 494.624L618.288 446.908L610.427 491.888H602.165L593.101 446.908L593.261 494.624H585.24L585.079 438.942L598.635 438.62L606.015 476.761L612.432 438.218L626.149 438.62Z" fill="url(#paint107_linear_2049_22981)"/>
<path d="M709.383 43.3011L712.768 33.3738L703.427 28.5453L697.475 37.1457L690.133 33.1693L722.584 -12.7869L734.991 -6.37342L716.621 46.9524L709.383 43.3011ZM707.992 21.9432L715.407 25.7766L725.185 -2.39057L725.517 -3.21423L707.992 21.9432Z" fill="url(#paint108_linear_2049_22981)"/>
<path d="M709.383 136.028L712.768 126.1L703.427 121.272L697.475 129.872L690.133 125.896L722.584 79.9396L734.991 86.3531L716.621 139.679L709.383 136.028ZM707.992 114.67L715.407 118.503L725.185 90.336L725.517 89.5123L707.992 114.67Z" fill="url(#paint109_linear_2049_22981)"/>
<path d="M709.383 228.754L712.768 218.827L703.427 213.998L697.475 222.599L690.133 218.622L722.584 172.666L734.991 179.08L716.621 232.405L709.383 228.754ZM707.992 207.396L715.407 211.23L725.185 183.062L725.517 182.239L707.992 207.396Z" fill="url(#paint110_linear_2049_22981)"/>
<path d="M709.383 321.481L712.768 311.553L703.427 306.725L697.475 315.325L690.133 311.349L722.584 265.393L734.991 271.806L716.621 325.132L709.383 321.481ZM707.992 300.123L715.407 303.956L725.185 275.789L725.517 274.965L707.992 300.123Z" fill="url(#paint111_linear_2049_22981)"/>
<path d="M709.383 414.207L712.768 404.28L703.427 399.451L697.475 408.052L690.133 404.075L722.584 358.119L734.991 364.533L716.621 417.858L709.383 414.207ZM707.992 392.849L715.407 396.683L725.185 368.516L725.517 367.692L707.992 392.849Z" fill="url(#paint112_linear_2049_22981)"/>
<path d="M709.383 506.934L712.768 497.006L703.427 492.178L697.475 500.778L690.133 496.802L722.584 450.846L734.991 457.259L716.621 510.585L709.383 506.934ZM707.992 485.576L715.407 489.409L725.185 461.242L725.517 460.418L707.992 485.576Z" fill="url(#paint113_linear_2049_22981)"/>
<path d="M676.077 5.00099L676.238 13.0476L654.981 13.3694L654.82 5.40332L676.077 5.00099Z" fill="url(#paint114_linear_2049_22981)"/>
<path d="M676.077 97.7275L676.238 105.774L654.981 106.096L654.82 98.1298L676.077 97.7275Z" fill="url(#paint115_linear_2049_22981)"/>
<path d="M676.077 190.454L676.238 198.501L654.981 198.822L654.82 190.856L676.077 190.454Z" fill="url(#paint116_linear_2049_22981)"/>
<path d="M676.077 283.181L676.238 291.227L654.981 291.549L654.82 283.583L676.077 283.181Z" fill="url(#paint117_linear_2049_22981)"/>
<path d="M676.077 375.907L676.238 383.954L654.981 384.276L654.82 376.309L676.077 375.907Z" fill="url(#paint118_linear_2049_22981)"/>
<path d="M676.077 468.634L676.238 476.68L654.981 477.002L654.82 469.036L676.077 468.634Z" fill="url(#paint119_linear_2049_22981)"/>
<path d="M791.177 -25.0127L791.498 30.9109L783.557 30.9914L783.316 -16.7247L775.455 28.2556H767.193L758.129 -16.7247L758.289 30.9914H750.268L750.107 -24.6908L763.663 -25.0127L771.043 13.128L777.46 -25.415L791.177 -25.0127Z" fill="url(#paint120_linear_2049_22981)"/>
<path d="M791.177 67.7138L791.498 123.637L783.557 123.718L783.316 76.0018L775.455 120.982H767.193L758.129 76.0018L758.289 123.718H750.268L750.107 68.0357L763.663 67.7138L771.043 105.855L777.46 67.3115L791.177 67.7138Z" fill="url(#paint121_linear_2049_22981)"/>
<path d="M791.177 160.44L791.498 216.364L783.557 216.444L783.316 168.728L775.455 213.709H767.193L758.129 168.728L758.289 216.444H750.268L750.107 160.762L763.663 160.44L771.043 198.581L777.46 160.038L791.177 160.44Z" fill="url(#paint122_linear_2049_22981)"/>
<path d="M791.177 253.167L791.498 309.091L783.557 309.171L783.316 261.455L775.455 306.435H767.193L758.129 261.455L758.289 309.171H750.268L750.107 253.489L763.663 253.167L771.043 291.308L777.46 252.765L791.177 253.167Z" fill="url(#paint123_linear_2049_22981)"/>
<path d="M791.177 345.893L791.498 401.817L783.557 401.898L783.316 354.181L775.455 399.162H767.193L758.129 354.181L758.289 401.898H750.268L750.107 346.215L763.663 345.893L771.043 384.034L777.46 345.491L791.177 345.893Z" fill="url(#paint124_linear_2049_22981)"/>
<path d="M791.177 438.62L791.498 494.544L783.557 494.624L783.316 446.908L775.455 491.888H767.193L758.129 446.908L758.289 494.624H750.268L750.107 438.942L763.663 438.62L771.043 476.761L777.46 438.218L791.177 438.62Z" fill="url(#paint125_linear_2049_22981)"/>
<path d="M872.012 43.3011L875.397 33.3738L866.056 28.5453L860.104 37.1457L852.762 33.1693L885.213 -12.7869L897.62 -6.37342L879.25 46.9524L872.012 43.3011ZM870.621 21.9432L878.036 25.7766L887.814 -2.39057L888.147 -3.21423L870.621 21.9432Z" fill="url(#paint126_linear_2049_22981)"/>
<path d="M872.012 136.028L875.397 126.1L866.056 121.272L860.104 129.872L852.762 125.896L885.213 79.9396L897.62 86.3531L879.25 139.679L872.012 136.028ZM870.621 114.67L878.036 118.503L887.814 90.336L888.147 89.5123L870.621 114.67Z" fill="url(#paint127_linear_2049_22981)"/>
<path d="M872.012 228.754L875.397 218.827L866.056 213.998L860.104 222.599L852.762 218.622L885.213 172.666L897.62 179.08L879.25 232.405L872.012 228.754ZM870.621 207.396L878.036 211.23L887.814 183.062L888.147 182.239L870.621 207.396Z" fill="url(#paint128_linear_2049_22981)"/>
<path d="M872.012 321.481L875.397 311.553L866.056 306.725L860.104 315.325L852.762 311.349L885.213 265.393L897.62 271.806L879.25 325.132L872.012 321.481ZM870.621 300.123L878.036 303.956L887.814 275.789L888.147 274.965L870.621 300.123Z" fill="url(#paint129_linear_2049_22981)"/>
<path d="M872.012 414.207L875.397 404.28L866.056 399.451L860.104 408.052L852.762 404.075L885.213 358.119L897.62 364.533L879.25 417.858L872.012 414.207ZM870.621 392.849L878.036 396.683L887.814 368.516L888.147 367.692L870.621 392.849Z" fill="url(#paint130_linear_2049_22981)"/>
<path d="M872.012 506.934L875.397 497.006L866.056 492.178L860.104 500.778L852.762 496.802L885.213 450.846L897.62 457.259L879.25 510.585L872.012 506.934ZM870.621 485.576L878.036 489.409L887.814 461.242L888.147 460.418L870.621 485.576Z" fill="url(#paint131_linear_2049_22981)"/>
<path d="M838.702 5.00099L838.862 13.0476L817.605 13.3694L817.445 5.40332L838.702 5.00099Z" fill="url(#paint132_linear_2049_22981)"/>
<path d="M838.702 97.7275L838.862 105.774L817.605 106.096L817.445 98.1298L838.702 97.7275Z" fill="url(#paint133_linear_2049_22981)"/>
<path d="M838.702 190.454L838.862 198.501L817.605 198.822L817.445 190.856L838.702 190.454Z" fill="url(#paint134_linear_2049_22981)"/>
<path d="M838.702 283.181L838.862 291.227L817.605 291.549L817.445 283.583L838.702 283.181Z" fill="url(#paint135_linear_2049_22981)"/>
<path d="M838.702 375.907L838.862 383.954L817.605 384.276L817.445 376.309L838.702 375.907Z" fill="url(#paint136_linear_2049_22981)"/>
<path d="M838.702 468.634L838.862 476.68L817.605 477.002L817.445 469.036L838.702 468.634Z" fill="url(#paint137_linear_2049_22981)"/>
<path d="M953.802 -25.0127L954.123 30.9109L946.182 30.9914L945.941 -16.7247L938.08 28.2556H929.818L920.753 -16.7247L920.914 30.9914H912.892L912.732 -24.6908L926.288 -25.0127L933.668 13.128L940.085 -25.415L953.802 -25.0127Z" fill="url(#paint138_linear_2049_22981)"/>
<path d="M953.802 67.7138L954.123 123.637L946.182 123.718L945.941 76.0018L938.08 120.982H929.818L920.753 76.0018L920.914 123.718H912.892L912.732 68.0357L926.288 67.7138L933.668 105.855L940.085 67.3115L953.802 67.7138Z" fill="url(#paint139_linear_2049_22981)"/>
<path d="M953.802 160.44L954.123 216.364L946.182 216.444L945.941 168.728L938.08 213.709H929.818L920.753 168.728L920.914 216.444H912.892L912.732 160.762L926.288 160.44L933.668 198.581L940.085 160.038L953.802 160.44Z" fill="url(#paint140_linear_2049_22981)"/>
<path d="M953.802 253.167L954.123 309.091L946.182 309.171L945.941 261.455L938.08 306.435H929.818L920.753 261.455L920.914 309.171H912.892L912.732 253.489L926.288 253.167L933.668 291.308L940.085 252.765L953.802 253.167Z" fill="url(#paint141_linear_2049_22981)"/>
<path d="M953.802 345.893L954.123 401.817L946.182 401.898L945.941 354.181L938.08 399.162H929.818L920.753 354.181L920.914 401.898H912.892L912.732 346.215L926.288 345.893L933.668 384.034L940.085 345.491L953.802 345.893Z" fill="url(#paint142_linear_2049_22981)"/>
<path d="M953.802 438.62L954.123 494.544L946.182 494.624L945.941 446.908L938.08 491.888H929.818L920.753 446.908L920.914 494.624H912.892L912.732 438.942L926.288 438.62L933.668 476.761L940.085 438.218L953.802 438.62Z" fill="url(#paint143_linear_2049_22981)"/>
<path d="M1047.88 43.3011L1051.27 33.3738L1041.93 28.5453L1035.98 37.1457L1028.63 33.1693L1061.09 -12.7869L1073.49 -6.37342L1055.12 46.9524L1047.88 43.3011ZM1046.49 21.9432L1053.91 25.7766L1063.69 -2.39057L1064.02 -3.21423L1046.49 21.9432Z" fill="url(#paint144_linear_2049_22981)"/>
<path d="M1047.88 136.028L1051.27 126.1L1041.93 121.272L1035.98 129.872L1028.63 125.896L1061.09 79.9396L1073.49 86.3531L1055.12 139.679L1047.88 136.028ZM1046.49 114.67L1053.91 118.503L1063.69 90.336L1064.02 89.5123L1046.49 114.67Z" fill="url(#paint145_linear_2049_22981)"/>
<path d="M1047.88 228.754L1051.27 218.827L1041.93 213.998L1035.98 222.599L1028.63 218.622L1061.09 172.666L1073.49 179.08L1055.12 232.405L1047.88 228.754ZM1046.49 207.396L1053.91 211.23L1063.69 183.062L1064.02 182.239L1046.49 207.396Z" fill="url(#paint146_linear_2049_22981)"/>
<path d="M1047.88 321.481L1051.27 311.553L1041.93 306.725L1035.98 315.325L1028.63 311.349L1061.09 265.393L1073.49 271.806L1055.12 325.132L1047.88 321.481ZM1046.49 300.123L1053.91 303.956L1063.69 275.789L1064.02 274.965L1046.49 300.123Z" fill="url(#paint147_linear_2049_22981)"/>
<path d="M1047.88 414.207L1051.27 404.28L1041.93 399.451L1035.98 408.052L1028.63 404.075L1061.09 358.119L1073.49 364.533L1055.12 417.858L1047.88 414.207ZM1046.49 392.849L1053.91 396.683L1063.69 368.516L1064.02 367.692L1046.49 392.849Z" fill="url(#paint148_linear_2049_22981)"/>
<path d="M1047.88 506.934L1051.27 497.006L1041.93 492.178L1035.98 500.778L1028.63 496.802L1061.09 450.846L1073.49 457.259L1055.12 510.585L1047.88 506.934ZM1046.49 485.576L1053.91 489.409L1063.69 461.242L1064.02 460.418L1046.49 485.576Z" fill="url(#paint149_linear_2049_22981)"/>
<path d="M1014.57 5.00099L1014.74 13.0476L993.478 13.3694L993.318 5.40332L1014.57 5.00099Z" fill="url(#paint150_linear_2049_22981)"/>
<path d="M1014.57 97.7275L1014.74 105.774L993.478 106.096L993.318 98.1298L1014.57 97.7275Z" fill="url(#paint151_linear_2049_22981)"/>
<path d="M1014.57 190.454L1014.74 198.501L993.478 198.822L993.318 190.856L1014.57 190.454Z" fill="url(#paint152_linear_2049_22981)"/>
<path d="M1014.57 283.181L1014.74 291.227L993.478 291.549L993.318 283.583L1014.57 283.181Z" fill="url(#paint153_linear_2049_22981)"/>
<path d="M1014.57 375.907L1014.74 383.954L993.478 384.276L993.318 376.309L1014.57 375.907Z" fill="url(#paint154_linear_2049_22981)"/>
<path d="M1014.57 468.634L1014.74 476.68L993.478 477.002L993.318 469.036L1014.57 468.634Z" fill="url(#paint155_linear_2049_22981)"/>
<path d="M1129.68 -25.0127L1130 30.9109L1122.06 30.9914L1121.82 -16.7247L1113.96 28.2556H1105.69L1096.63 -16.7247L1096.79 30.9914H1088.77L1088.61 -24.6908L1102.17 -25.0127L1109.55 13.128L1115.96 -25.415L1129.68 -25.0127Z" fill="url(#paint156_linear_2049_22981)"/>
<path d="M1129.68 67.7138L1130 123.637L1122.06 123.718L1121.82 76.0018L1113.96 120.982H1105.69L1096.63 76.0018L1096.79 123.718H1088.77L1088.61 68.0357L1102.17 67.7138L1109.55 105.855L1115.96 67.3115L1129.68 67.7138Z" fill="url(#paint157_linear_2049_22981)"/>
<path d="M1129.68 160.44L1130 216.364L1122.06 216.444L1121.82 168.728L1113.96 213.709H1105.69L1096.63 168.728L1096.79 216.444H1088.77L1088.61 160.762L1102.17 160.44L1109.55 198.581L1115.96 160.038L1129.68 160.44Z" fill="url(#paint158_linear_2049_22981)"/>
<path d="M1129.68 253.167L1130 309.091L1122.06 309.171L1121.82 261.455L1113.96 306.435H1105.69L1096.63 261.455L1096.79 309.171H1088.77L1088.61 253.489L1102.17 253.167L1109.55 291.308L1115.96 252.765L1129.68 253.167Z" fill="url(#paint159_linear_2049_22981)"/>
<path d="M1129.68 345.893L1130 401.817L1122.06 401.898L1121.82 354.181L1113.96 399.162H1105.69L1096.63 354.181L1096.79 401.898H1088.77L1088.61 346.215L1102.17 345.893L1109.55 384.034L1115.96 345.491L1129.68 345.893Z" fill="url(#paint160_linear_2049_22981)"/>
<path d="M1129.68 438.62L1130 494.544L1122.06 494.624L1121.82 446.908L1113.96 491.888H1105.69L1096.63 446.908L1096.79 494.624H1088.77L1088.61 438.942L1102.17 438.62L1109.55 476.761L1115.96 438.218L1129.68 438.62Z" fill="url(#paint161_linear_2049_22981)"/>
</g>
<path d="M24.908 60.757V63.557H12.056V60.757H13.792C15.416 56.025 15.5 45.581 15.5 45.469V44.069L23.508 44.153L23.368 60.757H24.908ZM18.244 46.869C18.188 49.781 17.88 56.501 16.704 60.757H20.568L20.708 46.897L18.244 46.869ZM33.6278 63.529L33.0958 59.917H29.4278L28.9518 63.529L26.0398 63.473L28.7838 44.069H33.6558L36.4558 63.501L33.6278 63.529ZM29.7918 57.145H32.7038L31.2478 46.869L31.2198 46.561L29.7918 57.145ZM46.2875 53.925C47.3515 54.961 47.9675 56.361 47.9675 57.817C47.9675 59.385 47.2955 60.813 46.0635 61.849C44.7755 62.969 42.9555 63.557 40.7715 63.557H38.4475L38.2235 44.349L39.8755 44.209C43.8515 43.649 45.6715 45.301 46.4275 46.337C47.4915 47.821 47.6035 49.809 46.7355 51.517C46.3995 52.189 45.9235 52.777 45.3635 53.225C45.6995 53.421 46.0075 53.673 46.2875 53.925ZM41.0235 46.897L41.0795 52.049L41.6955 52.021C42.8715 52.021 43.8515 51.405 44.2715 50.257C44.5515 49.445 44.6075 48.605 44.1595 47.961C43.5995 47.205 42.4795 46.813 41.0235 46.897ZM44.2715 59.721C44.8595 59.217 45.1955 58.545 45.1955 57.817C45.1955 55.997 43.4315 54.457 41.7235 54.457H41.1355L41.1915 60.757C42.5075 60.673 43.5435 60.337 44.2715 59.721ZM56.8153 63.529L56.2833 59.917H52.6153L52.1393 63.529L49.2273 63.473L51.9713 44.069H56.8433L59.6433 63.501L56.8153 63.529ZM52.9793 57.145H55.8913L54.4353 46.869L54.4073 46.561L52.9793 57.145ZM71.127 44.181L71.155 63.585H68.355V51.041L64.491 63.389H61.523V44.293H64.295V56.585L68.271 44.181H71.127ZM68.747 42.389L63.959 43.033L63.595 40.261L68.383 39.645L68.747 42.389ZM81.9764 46.869L78.6724 46.897L78.9244 63.445L76.1244 63.501L75.9004 46.953L72.6524 46.981L72.6244 44.181L81.9484 44.097L81.9764 46.869ZM92.4114 60.673L92.4394 63.473L83.5354 63.585L83.4234 44.265H91.8514V47.037H86.2234L86.2514 50.985L90.5074 50.901L90.5634 53.673L86.2514 53.757L86.3074 60.757L92.4114 60.673ZM108.436 44.769C110.004 46.197 110.704 48.885 110.704 53.225C110.704 58.349 109.78 61.709 107.904 63.249C107.204 63.809 106.364 64.117 105.496 64.117C105.244 64.117 104.992 64.089 104.74 64.033C103.732 63.837 102.332 63.081 101.324 60.561C100.596 58.713 100.232 56.249 100.232 53.225C100.232 50.341 100.54 48.185 101.212 46.673C102.22 44.461 103.844 43.845 105.048 43.733C106.392 43.593 107.54 43.957 108.436 44.769ZM106.14 61.093C107.792 59.721 107.932 54.737 107.932 53.225C107.932 48.745 107.064 47.289 106.56 46.841C106.364 46.645 106.028 46.449 105.3 46.505C104.74 46.561 103.004 46.729 103.004 53.225C103.004 58.797 104.404 61.149 105.3 61.317C105.608 61.373 105.86 61.317 106.14 61.093ZM119.705 56.361H122.505C122.505 57.145 122.421 59.189 121.693 60.981C120.881 62.997 119.453 64.089 117.689 64.089C115.281 64.089 114.077 62.101 113.601 60.897C112.873 59.217 112.537 56.865 112.537 53.897C112.537 51.069 112.789 48.885 113.321 47.261C114.357 44.181 116.233 43.537 117.633 43.537C118.837 43.537 119.873 43.985 120.629 44.825C121.889 46.169 122.337 48.409 122.085 51.657L119.285 51.405C119.565 48.297 118.977 47.121 118.585 46.701C118.445 46.561 118.165 46.337 117.633 46.337C116.569 46.337 116.149 47.597 115.981 48.129C115.533 49.445 115.309 51.405 115.309 53.897C115.309 58.405 116.233 61.317 117.689 61.317C118.557 61.317 118.977 60.281 119.117 59.945C119.481 59.021 119.705 57.677 119.705 56.361ZM132.808 46.869L129.504 46.897L129.756 63.445L126.956 63.501L126.732 46.953L123.484 46.981L123.456 44.181L132.78 44.097L132.808 46.869ZM140.022 63.529L139.49 59.917H135.822L135.346 63.529L132.434 63.473L135.178 44.069H140.05L142.85 63.501L140.022 63.529ZM136.186 57.145H139.098L137.642 46.869L137.614 46.561L136.186 57.145ZM152.682 53.925C153.746 54.961 154.362 56.361 154.362 57.817C154.362 59.385 153.69 60.813 152.458 61.849C151.17 62.969 149.35 63.557 147.166 63.557H144.842L144.618 44.349L146.27 44.209C150.246 43.649 152.066 45.301 152.822 46.337C153.886 47.821 153.998 49.809 153.13 51.517C152.794 52.189 152.318 52.777 151.758 53.225C152.094 53.421 152.402 53.673 152.682 53.925ZM147.418 46.897L147.474 52.049L148.09 52.021C149.266 52.021 150.246 51.405 150.666 50.257C150.946 49.445 151.002 48.605 150.554 47.961C149.994 47.205 148.874 46.813 147.418 46.897ZM150.666 59.721C151.254 59.217 151.59 58.545 151.59 57.817C151.59 55.997 149.826 54.457 148.118 54.457H147.53L147.586 60.757C148.902 60.673 149.938 60.337 150.666 59.721ZM163.21 63.529L162.678 59.917H159.01L158.534 63.529L155.622 63.473L158.366 44.069H163.238L166.038 63.501L163.21 63.529ZM159.374 57.145H162.286L160.83 46.869L160.802 46.561L159.374 57.145ZM174.972 46.869L171.668 46.897L171.92 63.445L169.12 63.501L168.896 46.953L165.648 46.981L165.62 44.181L174.944 44.097L174.972 46.869ZM184.26 52.749C185.744 55.017 185.856 58.069 184.484 60.365C183.308 62.381 181.18 63.501 178.632 63.501C178.38 63.501 178.128 63.473 177.876 63.473L176.616 63.361L176.364 44.097L179.136 44.069L179.22 50.033C181.32 50.089 183.112 51.041 184.26 52.749ZM182.076 58.965C182.888 57.593 182.832 55.633 181.936 54.317C181.488 53.617 180.676 52.889 179.248 52.805L179.36 60.673C180.592 60.505 181.516 59.917 182.076 58.965ZM193.97 56.361H196.77C196.77 57.145 196.686 59.189 195.958 60.981C195.146 62.997 193.718 64.089 191.954 64.089C189.546 64.089 188.342 62.101 187.866 60.897C187.138 59.217 186.802 56.865 186.802 53.897C186.802 51.069 187.054 48.885 187.586 47.261C188.622 44.181 190.498 43.537 191.898 43.537C193.102 43.537 194.138 43.985 194.894 44.825C196.154 46.169 196.602 48.409 196.35 51.657L193.55 51.405C193.83 48.297 193.242 47.121 192.85 46.701C192.71 46.561 192.43 46.337 191.898 46.337C190.834 46.337 190.414 47.597 190.246 48.129C189.798 49.445 189.574 51.405 189.574 53.897C189.574 58.405 190.498 61.317 191.954 61.317C192.822 61.317 193.242 60.281 193.382 59.945C193.746 59.021 193.97 57.677 193.97 56.361ZM205.651 43.733H208.395L208.283 63.529L205.483 63.501L205.539 56.837C205.175 56.837 204.727 56.837 204.223 56.753L200.891 63.445H197.783L201.675 55.969C201.311 55.773 200.947 55.521 200.639 55.241C199.267 54.093 198.595 52.413 198.567 50.285C198.539 48.353 199.155 46.785 200.331 45.609C202.319 43.705 205.259 43.733 205.651 43.733ZM205.539 54.065L205.595 46.533H205.567C205.567 46.533 205.539 46.533 205.511 46.533C205.147 46.533 203.355 46.561 202.263 47.625C201.647 48.241 201.339 49.109 201.367 50.257C201.367 51.573 201.731 52.497 202.431 53.141C203.383 53.953 204.755 54.065 205.539 54.065Z" fill="#37363F"/>
<path d="M20.232 71.153H23.032L22.976 90.669H20.204V82.857L16.116 82.997L16.2 90.669L13.4 90.697L13.204 71.181L15.976 71.153L16.088 80.225L20.232 80.085V71.153ZM32.4794 90.529L31.9474 86.917H28.2794L27.8034 90.529L24.8914 90.473L27.6354 71.069H32.5074L35.3074 90.501L32.4794 90.529ZM28.6434 84.145H31.5554L30.0994 73.869L30.0714 73.561L28.6434 84.145ZM50.3062 83.361H53.1062C53.1062 84.145 53.0222 86.189 52.2942 87.981C51.4822 89.997 50.0542 91.089 48.2902 91.089C45.8822 91.089 44.6782 89.101 44.2022 87.897C43.4742 86.217 43.1382 83.865 43.1382 80.897C43.1382 78.069 43.3902 75.885 43.9222 74.261C44.9582 71.181 46.8342 70.537 48.2342 70.537C49.4382 70.537 50.4742 70.985 51.2302 71.825C52.4902 73.169 52.9382 75.409 52.6862 78.657L49.8862 78.405C50.1662 75.297 49.5782 74.121 49.1862 73.701C49.0462 73.561 48.7662 73.337 48.2342 73.337C47.1702 73.337 46.7502 74.597 46.5822 75.129C46.1342 76.445 45.9102 78.405 45.9102 80.897C45.9102 85.405 46.8342 88.317 48.2902 88.317C49.1582 88.317 49.5782 87.281 49.7182 86.945C50.0822 86.021 50.3062 84.677 50.3062 83.361ZM63.186 80.925C64.25 81.961 64.866 83.361 64.866 84.817C64.866 86.385 64.194 87.813 62.962 88.849C61.674 89.969 59.854 90.557 57.67 90.557H55.346L55.122 71.349L56.774 71.209C60.75 70.649 62.57 72.301 63.326 73.337C64.39 74.821 64.502 76.809 63.634 78.517C63.298 79.189 62.822 79.777 62.262 80.225C62.598 80.421 62.906 80.673 63.186 80.925ZM57.922 73.897L57.978 79.049L58.594 79.021C59.77 79.021 60.75 78.405 61.17 77.257C61.45 76.445 61.506 75.605 61.058 74.961C60.498 74.205 59.378 73.813 57.922 73.897ZM61.17 86.721C61.758 86.217 62.094 85.545 62.094 84.817C62.094 82.997 60.33 81.457 58.622 81.457H58.034L58.09 87.757C59.406 87.673 60.442 87.337 61.17 86.721ZM73.4443 70.733H76.1883L76.0763 90.529L73.2763 90.501L73.3323 83.837C72.9683 83.837 72.5203 83.837 72.0163 83.753L68.6843 90.445H65.5763L69.4683 82.969C69.1043 82.773 68.7403 82.521 68.4323 82.241C67.0603 81.093 66.3883 79.413 66.3603 77.285C66.3323 75.353 66.9483 73.785 68.1243 72.609C70.1123 70.705 73.0523 70.733 73.4443 70.733ZM73.3323 81.065L73.3882 73.533H73.3603C73.3603 73.533 73.3323 73.533 73.3043 73.533C72.9403 73.533 71.1483 73.561 70.0563 74.625C69.4403 75.241 69.1323 76.109 69.1603 77.257C69.1603 78.573 69.5243 79.497 70.2243 80.141C71.1763 80.953 72.5482 81.065 73.3323 81.065ZM87.1203 80.309C88.2683 81.541 88.8003 83.389 88.6603 85.433C88.3523 88.961 86.3923 91.089 83.3403 91.089C81.1843 91.089 79.9243 90.137 79.2243 89.353C78.3843 88.373 77.9083 87.057 77.8523 85.545L80.6243 85.433C80.6523 86.301 80.9043 87.029 81.3243 87.505C81.7723 88.037 82.4443 88.289 83.3403 88.289C83.9003 88.289 85.6363 88.289 85.8603 85.209C86.0563 82.745 84.9363 81.037 82.8923 81.037H81.4923V78.461L82.8363 78.405C85.5523 78.405 85.7763 76.193 85.7483 75.633C85.6643 73.617 83.6763 73.449 83.2843 73.449C82.6963 73.421 81.7723 73.589 80.8203 75.073L78.4683 73.561C80.0363 71.097 81.9963 70.621 83.3683 70.649C85.7483 70.733 88.3803 72.273 88.5483 75.493C88.6043 76.809 88.1563 78.069 87.2323 79.077C87.0083 79.301 86.7563 79.525 86.5043 79.749C86.7283 79.917 86.9243 80.085 87.1203 80.309ZM100.494 71.181L100.522 90.585H97.7216V78.041L93.8576 90.389H90.8896V71.293H93.6616V83.585L97.6376 71.181H100.494Z" fill="#F1A906"/>
<path opacity="0.4" d="M8 96.585C24.4871 93.6789 42.4827 92.5205 59.7646 91.8699C69.3336 91.5096 95.4159 90.2927 105 90.6499" stroke="#F1A906" stroke-width="4" stroke-linecap="round"/>
<path d="M111.65 401.029L146.788 347.414C150.044 342.446 148.482 335.764 143.361 332.754V332.754M143.361 332.754C149.675 318.322 163.314 304.331 163.134 292.492C162.91 277.694 153.861 255.483 147.834 262.605C143.013 268.302 149.061 282.934 147.389 286.054C142.261 266.56 139.21 230.886 130.422 232.415C127.241 232.969 126.219 237.604 125.426 241.511M143.361 332.754L104.852 322.42C104.378 322.277 102.697 321.666 100.819 321.134M127.735 271.957C126.283 265.913 124.029 248.396 125.426 241.511M125.426 241.511C123.36 229.502 109.431 221.005 109.766 236.364C110.1 251.723 112.132 264.377 113.186 269.555M109.839 238.957C107.079 234.041 99.1001 229.246 97.9387 240.183C96.7773 251.12 103.156 280.73 109.685 313.804L100.819 321.134M50.4169 356.892C58.3324 352.956 82.668 331.726 87.1855 327.621C91.7031 323.515 92.5989 322.122 94.7828 320.597C95.7579 319.916 98.4465 320.462 100.819 321.134" stroke="#117031" stroke-width="2.5" stroke-linecap="round" stroke-linejoin="round"/>
<path d="M107.693 233.924C107.037 230.091 106.212 225.407 108.45 223.53C110.035 222.201 112.459 221.242 114.527 221.825C117.233 222.587 119.101 225.132 120.316 227.52C120.381 227.648 121.359 230.171 121.537 230.133C121.888 230.057 121.841 224.482 121.923 223.968C122.264 221.812 123.547 219.886 126.004 220.328C132.371 223.58 132.861 234.884 134.849 234.246C134.899 234.23 133.787 225.644 133.895 224.984C134.102 223.704 135.349 219.679 139.636 221.829C140.622 221.881 141.551 222.995 142.159 223.65C143.748 225.359 144.635 227.432 145.385 229.619C146.372 232.494 147.241 235.445 147.92 238.408C149.927 247.16 152.035 255.879 154.153 264.602" stroke="#117031" stroke-width="2.5" stroke-linecap="round"/>
<path d="M159.493 271.826C159.018 267.827 158.452 263.791 158.505 259.756C158.541 257 159.243 254.42 162.326 253.974C165.37 253.533 167.578 258.04 168.727 260.077C172.965 267.591 175.452 275.926 177.174 284.335C177.546 286.149 178.255 290.035 178.546 291.929C178.823 293.738 179.161 295.643 178.793 297.469C178.317 299.824 176.953 304.431 175.474 306.249" stroke="#117031" stroke-width="2.5" stroke-linecap="round"/>
<path d="M150.574 319.476C153.909 321.79 156.804 322.913 160.892 324.252C166.079 325.952 175.181 326.454 180.102 323.413" stroke="#117031" stroke-width="2.5" stroke-linecap="round"/>
<path d="M178.621 298.507C182.258 304.416 184.844 310.829 186.776 317.49C187.82 321.09 188.619 324.783 189.183 328.489C189.341 329.532 189.912 331.794 189.092 332.817C187.937 334.259 185.016 333.146 183.942 332.205C182.815 331.216 182.035 329.864 181.262 328.599C180.806 327.854 178.995 325.448 178.668 324.642C178.184 323.455 186.276 322.372 186.989 322.087" stroke="#117031" stroke-width="2.5" stroke-linecap="round"/>
<path d="M178.336 282.086C197.684 278.358 216.271 271.909 234.25 263.896C238.939 261.806 243.518 259.494 248.193 257.375C248.573 257.202 249.743 256.799 249.327 256.842" stroke="#117031" stroke-width="2.5" stroke-linecap="round"/>
<path d="M193.561 333.771C214.944 329.139 236.682 325.979 255.83 314.778" stroke="#117031" stroke-width="2.5" stroke-linecap="round"/>
<path d="M88.9655 221.886C85.9552 218.474 82.3854 215.562 78.9963 212.54" stroke="#117031" stroke-width="3" stroke-linecap="round"/>
<path d="M83.9827 228.74C77.6729 227.732 71.6675 226.041 65.6019 224.067" stroke="#117031" stroke-width="3" stroke-linecap="round"/>
<path d="M81.8024 238.397C76.7113 240.676 71.6235 242.962 66.537 245.251" stroke="#117031" stroke-width="3" stroke-linecap="round"/>
<path d="M227.452 356.574C222.519 358.551 218.77 359.725 213.559 357.636C211.169 356.678 207.08 354.382 207.605 351.073C207.907 349.175 211.966 345.355 212.856 348.917C214.8 356.691 199.495 361.785 196.51 354.324" stroke="#117031" stroke-width="2.5" stroke-linecap="round"/>
</g>
<defs>
<linearGradient id="paint0_linear_2049_22981" x1="-38.5" y1="-119.415" x2="359.26" y2="623.017" gradientUnits="userSpaceOnUse">
<stop stop-color="white" stop-opacity="0"/>
<stop offset="1" stop-color="white"/>
</linearGradient>
<linearGradient id="paint1_linear_2049_22981" x1="-38.5" y1="-119.415" x2="359.26" y2="623.017" gradientUnits="userSpaceOnUse">
<stop stop-color="white" stop-opacity="0"/>
<stop offset="1" stop-color="white"/>
</linearGradient>
<linearGradient id="paint2_linear_2049_22981" x1="-38.5" y1="-119.415" x2="359.26" y2="623.017" gradientUnits="userSpaceOnUse">
<stop stop-color="white" stop-opacity="0"/>
<stop offset="1" stop-color="white"/>
</linearGradient>
<linearGradient id="paint3_linear_2049_22981" x1="-38.5" y1="-119.415" x2="359.26" y2="623.017" gradientUnits="userSpaceOnUse">
<stop stop-color="white" stop-opacity="0"/>
<stop offset="1" stop-color="white"/>
</linearGradient>
<linearGradient id="paint4_linear_2049_22981" x1="-38.5" y1="-119.415" x2="359.26" y2="623.017" gradientUnits="userSpaceOnUse">
<stop stop-color="white" stop-opacity="0"/>
<stop offset="1" stop-color="white"/>
</linearGradient>
<linearGradient id="paint5_linear_2049_22981" x1="-38.5" y1="-119.415" x2="359.26" y2="623.017" gradientUnits="userSpaceOnUse">
<stop stop-color="white" stop-opacity="0"/>
<stop offset="1" stop-color="white"/>
</linearGradient>
<linearGradient id="paint6_linear_2049_22981" x1="-38.5" y1="-119.415" x2="359.26" y2="623.017" gradientUnits="userSpaceOnUse">
<stop stop-color="white" stop-opacity="0"/>
<stop offset="1" stop-color="white"/>
</linearGradient>
<linearGradient id="paint7_linear_2049_22981" x1="-38.5" y1="-119.415" x2="359.26" y2="623.017" gradientUnits="userSpaceOnUse">
<stop stop-color="white" stop-opacity="0"/>
<stop offset="1" stop-color="white"/>
</linearGradient>
<linearGradient id="paint8_linear_2049_22981" x1="-38.5" y1="-119.415" x2="359.26" y2="623.017" gradientUnits="userSpaceOnUse">
<stop stop-color="white" stop-opacity="0"/>
<stop offset="1" stop-color="white"/>
</linearGradient>
<linearGradient id="paint9_linear_2049_22981" x1="-38.5" y1="-119.415" x2="359.26" y2="623.017" gradientUnits="userSpaceOnUse">
<stop stop-color="white" stop-opacity="0"/>
<stop offset="1" stop-color="white"/>
</linearGradient>
<linearGradient id="paint10_linear_2049_22981" x1="-38.5" y1="-119.415" x2="359.26" y2="623.017" gradientUnits="userSpaceOnUse">
<stop stop-color="white" stop-opacity="0"/>
<stop offset="1" stop-color="white"/>
</linearGradient>
<linearGradient id="paint11_linear_2049_22981" x1="-38.5" y1="-119.415" x2="359.26" y2="623.017" gradientUnits="userSpaceOnUse">
<stop stop-color="white" stop-opacity="0"/>
<stop offset="1" stop-color="white"/>
</linearGradient>
<linearGradient id="paint12_linear_2049_22981" x1="-38.5" y1="-119.415" x2="359.26" y2="623.017" gradientUnits="userSpaceOnUse">
<stop stop-color="white" stop-opacity="0"/>
<stop offset="1" stop-color="white"/>
</linearGradient>
<linearGradient id="paint13_linear_2049_22981" x1="-38.5" y1="-119.415" x2="359.26" y2="623.017" gradientUnits="userSpaceOnUse">
<stop stop-color="white" stop-opacity="0"/>
<stop offset="1" stop-color="white"/>
</linearGradient>
<linearGradient id="paint14_linear_2049_22981" x1="-38.5" y1="-119.415" x2="359.26" y2="623.017" gradientUnits="userSpaceOnUse">
<stop stop-color="white" stop-opacity="0"/>
<stop offset="1" stop-color="white"/>
</linearGradient>
<linearGradient id="paint15_linear_2049_22981" x1="-38.5" y1="-119.415" x2="359.26" y2="623.017" gradientUnits="userSpaceOnUse">
<stop stop-color="white" stop-opacity="0"/>
<stop offset="1" stop-color="white"/>
</linearGradient>
<linearGradient id="paint16_linear_2049_22981" x1="-38.5" y1="-119.415" x2="359.26" y2="623.017" gradientUnits="userSpaceOnUse">
<stop stop-color="white" stop-opacity="0"/>
<stop offset="1" stop-color="white"/>
</linearGradient>
<linearGradient id="paint17_linear_2049_22981" x1="-38.5" y1="-119.415" x2="359.26" y2="623.017" gradientUnits="userSpaceOnUse">
<stop stop-color="white" stop-opacity="0"/>
<stop offset="1" stop-color="white"/>
</linearGradient>
<linearGradient id="paint18_linear_2049_22981" x1="-38.5" y1="-119.415" x2="359.26" y2="623.017" gradientUnits="userSpaceOnUse">
<stop stop-color="white" stop-opacity="0"/>
<stop offset="1" stop-color="white"/>
</linearGradient>
<linearGradient id="paint19_linear_2049_22981" x1="-38.5" y1="-119.415" x2="359.26" y2="623.017" gradientUnits="userSpaceOnUse">
<stop stop-color="white" stop-opacity="0"/>
<stop offset="1" stop-color="white"/>
</linearGradient>
<linearGradient id="paint20_linear_2049_22981" x1="-38.5" y1="-119.415" x2="359.26" y2="623.017" gradientUnits="userSpaceOnUse">
<stop stop-color="white" stop-opacity="0"/>
<stop offset="1" stop-color="white"/>
</linearGradient>
<linearGradient id="paint21_linear_2049_22981" x1="-38.5" y1="-119.415" x2="359.26" y2="623.017" gradientUnits="userSpaceOnUse">
<stop stop-color="white" stop-opacity="0"/>
<stop offset="1" stop-color="white"/>
</linearGradient>
<linearGradient id="paint22_linear_2049_22981" x1="-38.5" y1="-119.415" x2="359.26" y2="623.017" gradientUnits="userSpaceOnUse">
<stop stop-color="white" stop-opacity="0"/>
<stop offset="1" stop-color="white"/>
</linearGradient>
<linearGradient id="paint23_linear_2049_22981" x1="-38.5" y1="-119.415" x2="359.26" y2="623.017" gradientUnits="userSpaceOnUse">
<stop stop-color="white" stop-opacity="0"/>
<stop offset="1" stop-color="white"/>
</linearGradient>
<linearGradient id="paint24_linear_2049_22981" x1="-38.5" y1="-119.415" x2="359.26" y2="623.017" gradientUnits="userSpaceOnUse">
<stop stop-color="white" stop-opacity="0"/>
<stop offset="1" stop-color="white"/>
</linearGradient>
<linearGradient id="paint25_linear_2049_22981" x1="-38.5" y1="-119.415" x2="359.26" y2="623.017" gradientUnits="userSpaceOnUse">
<stop stop-color="white" stop-opacity="0"/>
<stop offset="1" stop-color="white"/>
</linearGradient>
<linearGradient id="paint26_linear_2049_22981" x1="-38.5" y1="-119.415" x2="359.26" y2="623.017" gradientUnits="userSpaceOnUse">
<stop stop-color="white" stop-opacity="0"/>
<stop offset="1" stop-color="white"/>
</linearGradient>
<linearGradient id="paint27_linear_2049_22981" x1="-38.5" y1="-119.415" x2="359.26" y2="623.017" gradientUnits="userSpaceOnUse">
<stop stop-color="white" stop-opacity="0"/>
<stop offset="1" stop-color="white"/>
</linearGradient>
<linearGradient id="paint28_linear_2049_22981" x1="-38.5" y1="-119.415" x2="359.26" y2="623.017" gradientUnits="userSpaceOnUse">
<stop stop-color="white" stop-opacity="0"/>
<stop offset="1" stop-color="white"/>
</linearGradient>
<linearGradient id="paint29_linear_2049_22981" x1="-38.5" y1="-119.415" x2="359.26" y2="623.017" gradientUnits="userSpaceOnUse">
<stop stop-color="white" stop-opacity="0"/>
<stop offset="1" stop-color="white"/>
</linearGradient>
<linearGradient id="paint30_linear_2049_22981" x1="-38.5" y1="-119.415" x2="359.26" y2="623.017" gradientUnits="userSpaceOnUse">
<stop stop-color="white" stop-opacity="0"/>
<stop offset="1" stop-color="white"/>
</linearGradient>
<linearGradient id="paint31_linear_2049_22981" x1="-38.5" y1="-119.415" x2="359.26" y2="623.017" gradientUnits="userSpaceOnUse">
<stop stop-color="white" stop-opacity="0"/>
<stop offset="1" stop-color="white"/>
</linearGradient>
<linearGradient id="paint32_linear_2049_22981" x1="-38.5" y1="-119.415" x2="359.26" y2="623.017" gradientUnits="userSpaceOnUse">
<stop stop-color="white" stop-opacity="0"/>
<stop offset="1" stop-color="white"/>
</linearGradient>
<linearGradient id="paint33_linear_2049_22981" x1="-38.5" y1="-119.415" x2="359.26" y2="623.017" gradientUnits="userSpaceOnUse">
<stop stop-color="white" stop-opacity="0"/>
<stop offset="1" stop-color="white"/>
</linearGradient>
<linearGradient id="paint34_linear_2049_22981" x1="-38.5" y1="-119.415" x2="359.26" y2="623.017" gradientUnits="userSpaceOnUse">
<stop stop-color="white" stop-opacity="0"/>
<stop offset="1" stop-color="white"/>
</linearGradient>
<linearGradient id="paint35_linear_2049_22981" x1="-38.5" y1="-119.415" x2="359.26" y2="623.017" gradientUnits="userSpaceOnUse">
<stop stop-color="white" stop-opacity="0"/>
<stop offset="1" stop-color="white"/>
</linearGradient>
<linearGradient id="paint36_linear_2049_22981" x1="-38.5" y1="-119.415" x2="359.26" y2="623.017" gradientUnits="userSpaceOnUse">
<stop stop-color="white" stop-opacity="0"/>
<stop offset="1" stop-color="white"/>
</linearGradient>
<linearGradient id="paint37_linear_2049_22981" x1="-38.5" y1="-119.415" x2="359.26" y2="623.017" gradientUnits="userSpaceOnUse">
<stop stop-color="white" stop-opacity="0"/>
<stop offset="1" stop-color="white"/>
</linearGradient>
<linearGradient id="paint38_linear_2049_22981" x1="-38.5" y1="-119.415" x2="359.26" y2="623.017" gradientUnits="userSpaceOnUse">
<stop stop-color="white" stop-opacity="0"/>
<stop offset="1" stop-color="white"/>
</linearGradient>
<linearGradient id="paint39_linear_2049_22981" x1="-38.5" y1="-119.415" x2="359.26" y2="623.017" gradientUnits="userSpaceOnUse">
<stop stop-color="white" stop-opacity="0"/>
<stop offset="1" stop-color="white"/>
</linearGradient>
<linearGradient id="paint40_linear_2049_22981" x1="-38.5" y1="-119.415" x2="359.26" y2="623.017" gradientUnits="userSpaceOnUse">
<stop stop-color="white" stop-opacity="0"/>
<stop offset="1" stop-color="white"/>
</linearGradient>
<linearGradient id="paint41_linear_2049_22981" x1="-38.5" y1="-119.415" x2="359.26" y2="623.017" gradientUnits="userSpaceOnUse">
<stop stop-color="white" stop-opacity="0"/>
<stop offset="1" stop-color="white"/>
</linearGradient>
<linearGradient id="paint42_linear_2049_22981" x1="-38.5" y1="-119.415" x2="359.26" y2="623.017" gradientUnits="userSpaceOnUse">
<stop stop-color="white" stop-opacity="0"/>
<stop offset="1" stop-color="white"/>
</linearGradient>
<linearGradient id="paint43_linear_2049_22981" x1="-38.5" y1="-119.415" x2="359.26" y2="623.017" gradientUnits="userSpaceOnUse">
<stop stop-color="white" stop-opacity="0"/>
<stop offset="1" stop-color="white"/>
</linearGradient>
<linearGradient id="paint44_linear_2049_22981" x1="-38.5" y1="-119.415" x2="359.26" y2="623.017" gradientUnits="userSpaceOnUse">
<stop stop-color="white" stop-opacity="0"/>
<stop offset="1" stop-color="white"/>
</linearGradient>
<linearGradient id="paint45_linear_2049_22981" x1="-38.5" y1="-119.415" x2="359.26" y2="623.017" gradientUnits="userSpaceOnUse">
<stop stop-color="white" stop-opacity="0"/>
<stop offset="1" stop-color="white"/>
</linearGradient>
<linearGradient id="paint46_linear_2049_22981" x1="-38.5" y1="-119.415" x2="359.26" y2="623.017" gradientUnits="userSpaceOnUse">
<stop stop-color="white" stop-opacity="0"/>
<stop offset="1" stop-color="white"/>
</linearGradient>
<linearGradient id="paint47_linear_2049_22981" x1="-38.5" y1="-119.415" x2="359.26" y2="623.017" gradientUnits="userSpaceOnUse">
<stop stop-color="white" stop-opacity="0"/>
<stop offset="1" stop-color="white"/>
</linearGradient>
<linearGradient id="paint48_linear_2049_22981" x1="-38.5" y1="-119.415" x2="359.26" y2="623.017" gradientUnits="userSpaceOnUse">
<stop stop-color="white" stop-opacity="0"/>
<stop offset="1" stop-color="white"/>
</linearGradient>
<linearGradient id="paint49_linear_2049_22981" x1="-38.5" y1="-119.415" x2="359.26" y2="623.017" gradientUnits="userSpaceOnUse">
<stop stop-color="white" stop-opacity="0"/>
<stop offset="1" stop-color="white"/>
</linearGradient>
<linearGradient id="paint50_linear_2049_22981" x1="-38.5" y1="-119.415" x2="359.26" y2="623.017" gradientUnits="userSpaceOnUse">
<stop stop-color="white" stop-opacity="0"/>
<stop offset="1" stop-color="white"/>
</linearGradient>
<linearGradient id="paint51_linear_2049_22981" x1="-38.5" y1="-119.415" x2="359.26" y2="623.017" gradientUnits="userSpaceOnUse">
<stop stop-color="white" stop-opacity="0"/>
<stop offset="1" stop-color="white"/>
</linearGradient>
<linearGradient id="paint52_linear_2049_22981" x1="-38.5" y1="-119.415" x2="359.26" y2="623.017" gradientUnits="userSpaceOnUse">
<stop stop-color="white" stop-opacity="0"/>
<stop offset="1" stop-color="white"/>
</linearGradient>
<linearGradient id="paint53_linear_2049_22981" x1="-38.5" y1="-119.415" x2="359.26" y2="623.017" gradientUnits="userSpaceOnUse">
<stop stop-color="white" stop-opacity="0"/>
<stop offset="1" stop-color="white"/>
</linearGradient>
<linearGradient id="paint54_linear_2049_22981" x1="-38.5" y1="-119.415" x2="359.26" y2="623.017" gradientUnits="userSpaceOnUse">
<stop stop-color="white" stop-opacity="0"/>
<stop offset="1" stop-color="white"/>
</linearGradient>
<linearGradient id="paint55_linear_2049_22981" x1="-38.5" y1="-119.415" x2="359.26" y2="623.017" gradientUnits="userSpaceOnUse">
<stop stop-color="white" stop-opacity="0"/>
<stop offset="1" stop-color="white"/>
</linearGradient>
<linearGradient id="paint56_linear_2049_22981" x1="-38.5" y1="-119.415" x2="359.26" y2="623.017" gradientUnits="userSpaceOnUse">
<stop stop-color="white" stop-opacity="0"/>
<stop offset="1" stop-color="white"/>
</linearGradient>
<linearGradient id="paint57_linear_2049_22981" x1="-38.5" y1="-119.415" x2="359.26" y2="623.017" gradientUnits="userSpaceOnUse">
<stop stop-color="white" stop-opacity="0"/>
<stop offset="1" stop-color="white"/>
</linearGradient>
<linearGradient id="paint58_linear_2049_22981" x1="-38.5" y1="-119.415" x2="359.26" y2="623.017" gradientUnits="userSpaceOnUse">
<stop stop-color="white" stop-opacity="0"/>
<stop offset="1" stop-color="white"/>
</linearGradient>
<linearGradient id="paint59_linear_2049_22981" x1="-38.5" y1="-119.415" x2="359.26" y2="623.017" gradientUnits="userSpaceOnUse">
<stop stop-color="white" stop-opacity="0"/>
<stop offset="1" stop-color="white"/>
</linearGradient>
<linearGradient id="paint60_linear_2049_22981" x1="-38.5" y1="-119.415" x2="359.26" y2="623.017" gradientUnits="userSpaceOnUse">
<stop stop-color="white" stop-opacity="0"/>
<stop offset="1" stop-color="white"/>
</linearGradient>
<linearGradient id="paint61_linear_2049_22981" x1="-38.5" y1="-119.415" x2="359.26" y2="623.017" gradientUnits="userSpaceOnUse">
<stop stop-color="white" stop-opacity="0"/>
<stop offset="1" stop-color="white"/>
</linearGradient>
<linearGradient id="paint62_linear_2049_22981" x1="-38.5" y1="-119.415" x2="359.26" y2="623.017" gradientUnits="userSpaceOnUse">
<stop stop-color="white" stop-opacity="0"/>
<stop offset="1" stop-color="white"/>
</linearGradient>
<linearGradient id="paint63_linear_2049_22981" x1="-38.5" y1="-119.415" x2="359.26" y2="623.017" gradientUnits="userSpaceOnUse">
<stop stop-color="white" stop-opacity="0"/>
<stop offset="1" stop-color="white"/>
</linearGradient>
<linearGradient id="paint64_linear_2049_22981" x1="-38.5" y1="-119.415" x2="359.26" y2="623.017" gradientUnits="userSpaceOnUse">
<stop stop-color="white" stop-opacity="0"/>
<stop offset="1" stop-color="white"/>
</linearGradient>
<linearGradient id="paint65_linear_2049_22981" x1="-38.5" y1="-119.415" x2="359.26" y2="623.017" gradientUnits="userSpaceOnUse">
<stop stop-color="white" stop-opacity="0"/>
<stop offset="1" stop-color="white"/>
</linearGradient>
<linearGradient id="paint66_linear_2049_22981" x1="-38.5" y1="-119.415" x2="359.26" y2="623.017" gradientUnits="userSpaceOnUse">
<stop stop-color="white" stop-opacity="0"/>
<stop offset="1" stop-color="white"/>
</linearGradient>
<linearGradient id="paint67_linear_2049_22981" x1="-38.5" y1="-119.415" x2="359.26" y2="623.017" gradientUnits="userSpaceOnUse">
<stop stop-color="white" stop-opacity="0"/>
<stop offset="1" stop-color="white"/>
</linearGradient>
<linearGradient id="paint68_linear_2049_22981" x1="-38.5" y1="-119.415" x2="359.26" y2="623.017" gradientUnits="userSpaceOnUse">
<stop stop-color="white" stop-opacity="0"/>
<stop offset="1" stop-color="white"/>
</linearGradient>
<linearGradient id="paint69_linear_2049_22981" x1="-38.5" y1="-119.415" x2="359.26" y2="623.017" gradientUnits="userSpaceOnUse">
<stop stop-color="white" stop-opacity="0"/>
<stop offset="1" stop-color="white"/>
</linearGradient>
<linearGradient id="paint70_linear_2049_22981" x1="-38.5" y1="-119.415" x2="359.26" y2="623.017" gradientUnits="userSpaceOnUse">
<stop stop-color="white" stop-opacity="0"/>
<stop offset="1" stop-color="white"/>
</linearGradient>
<linearGradient id="paint71_linear_2049_22981" x1="-38.5" y1="-119.415" x2="359.26" y2="623.017" gradientUnits="userSpaceOnUse">
<stop stop-color="white" stop-opacity="0"/>
<stop offset="1" stop-color="white"/>
</linearGradient>
<linearGradient id="paint72_linear_2049_22981" x1="-38.5" y1="-119.415" x2="359.26" y2="623.017" gradientUnits="userSpaceOnUse">
<stop stop-color="white" stop-opacity="0"/>
<stop offset="1" stop-color="white"/>
</linearGradient>
<linearGradient id="paint73_linear_2049_22981" x1="-38.5" y1="-119.415" x2="359.26" y2="623.017" gradientUnits="userSpaceOnUse">
<stop stop-color="white" stop-opacity="0"/>
<stop offset="1" stop-color="white"/>
</linearGradient>
<linearGradient id="paint74_linear_2049_22981" x1="-38.5" y1="-119.415" x2="359.26" y2="623.017" gradientUnits="userSpaceOnUse">
<stop stop-color="white" stop-opacity="0"/>
<stop offset="1" stop-color="white"/>
</linearGradient>
<linearGradient id="paint75_linear_2049_22981" x1="-38.5" y1="-119.415" x2="359.26" y2="623.017" gradientUnits="userSpaceOnUse">
<stop stop-color="white" stop-opacity="0"/>
<stop offset="1" stop-color="white"/>
</linearGradient>
<linearGradient id="paint76_linear_2049_22981" x1="-38.5" y1="-119.415" x2="359.26" y2="623.017" gradientUnits="userSpaceOnUse">
<stop stop-color="white" stop-opacity="0"/>
<stop offset="1" stop-color="white"/>
</linearGradient>
<linearGradient id="paint77_linear_2049_22981" x1="-38.5" y1="-119.415" x2="359.26" y2="623.017" gradientUnits="userSpaceOnUse">
<stop stop-color="white" stop-opacity="0"/>
<stop offset="1" stop-color="white"/>
</linearGradient>
<linearGradient id="paint78_linear_2049_22981" x1="-38.5" y1="-119.415" x2="359.26" y2="623.017" gradientUnits="userSpaceOnUse">
<stop stop-color="white" stop-opacity="0"/>
<stop offset="1" stop-color="white"/>
</linearGradient>
<linearGradient id="paint79_linear_2049_22981" x1="-38.5" y1="-119.415" x2="359.26" y2="623.017" gradientUnits="userSpaceOnUse">
<stop stop-color="white" stop-opacity="0"/>
<stop offset="1" stop-color="white"/>
</linearGradient>
<linearGradient id="paint80_linear_2049_22981" x1="-38.5" y1="-119.415" x2="359.26" y2="623.017" gradientUnits="userSpaceOnUse">
<stop stop-color="white" stop-opacity="0"/>
<stop offset="1" stop-color="white"/>
</linearGradient>
<linearGradient id="paint81_linear_2049_22981" x1="-38.5" y1="-119.415" x2="359.26" y2="623.017" gradientUnits="userSpaceOnUse">
<stop stop-color="white" stop-opacity="0"/>
<stop offset="1" stop-color="white"/>
</linearGradient>
<linearGradient id="paint82_linear_2049_22981" x1="-38.5" y1="-119.415" x2="359.26" y2="623.017" gradientUnits="userSpaceOnUse">
<stop stop-color="white" stop-opacity="0"/>
<stop offset="1" stop-color="white"/>
</linearGradient>
<linearGradient id="paint83_linear_2049_22981" x1="-38.5" y1="-119.415" x2="359.26" y2="623.017" gradientUnits="userSpaceOnUse">
<stop stop-color="white" stop-opacity="0"/>
<stop offset="1" stop-color="white"/>
</linearGradient>
<linearGradient id="paint84_linear_2049_22981" x1="-38.5" y1="-119.415" x2="359.26" y2="623.017" gradientUnits="userSpaceOnUse">
<stop stop-color="white" stop-opacity="0"/>
<stop offset="1" stop-color="white"/>
</linearGradient>
<linearGradient id="paint85_linear_2049_22981" x1="-38.5" y1="-119.415" x2="359.26" y2="623.017" gradientUnits="userSpaceOnUse">
<stop stop-color="white" stop-opacity="0"/>
<stop offset="1" stop-color="white"/>
</linearGradient>
<linearGradient id="paint86_linear_2049_22981" x1="-38.5" y1="-119.415" x2="359.26" y2="623.017" gradientUnits="userSpaceOnUse">
<stop stop-color="white" stop-opacity="0"/>
<stop offset="1" stop-color="white"/>
</linearGradient>
<linearGradient id="paint87_linear_2049_22981" x1="-38.5" y1="-119.415" x2="359.26" y2="623.017" gradientUnits="userSpaceOnUse">
<stop stop-color="white" stop-opacity="0"/>
<stop offset="1" stop-color="white"/>
</linearGradient>
<linearGradient id="paint88_linear_2049_22981" x1="-38.5" y1="-119.415" x2="359.26" y2="623.017" gradientUnits="userSpaceOnUse">
<stop stop-color="white" stop-opacity="0"/>
<stop offset="1" stop-color="white"/>
</linearGradient>
<linearGradient id="paint89_linear_2049_22981" x1="-38.5" y1="-119.415" x2="359.26" y2="623.017" gradientUnits="userSpaceOnUse">
<stop stop-color="white" stop-opacity="0"/>
<stop offset="1" stop-color="white"/>
</linearGradient>
<linearGradient id="paint90_linear_2049_22981" x1="-38.5" y1="-119.415" x2="359.26" y2="623.017" gradientUnits="userSpaceOnUse">
<stop stop-color="white" stop-opacity="0"/>
<stop offset="1" stop-color="white"/>
</linearGradient>
<linearGradient id="paint91_linear_2049_22981" x1="-38.5" y1="-119.415" x2="359.26" y2="623.017" gradientUnits="userSpaceOnUse">
<stop stop-color="white" stop-opacity="0"/>
<stop offset="1" stop-color="white"/>
</linearGradient>
<linearGradient id="paint92_linear_2049_22981" x1="-38.5" y1="-119.415" x2="359.26" y2="623.017" gradientUnits="userSpaceOnUse">
<stop stop-color="white" stop-opacity="0"/>
<stop offset="1" stop-color="white"/>
</linearGradient>
<linearGradient id="paint93_linear_2049_22981" x1="-38.5" y1="-119.415" x2="359.26" y2="623.017" gradientUnits="userSpaceOnUse">
<stop stop-color="white" stop-opacity="0"/>
<stop offset="1" stop-color="white"/>
</linearGradient>
<linearGradient id="paint94_linear_2049_22981" x1="-38.5" y1="-119.415" x2="359.26" y2="623.017" gradientUnits="userSpaceOnUse">
<stop stop-color="white" stop-opacity="0"/>
<stop offset="1" stop-color="white"/>
</linearGradient>
<linearGradient id="paint95_linear_2049_22981" x1="-38.5" y1="-119.415" x2="359.26" y2="623.017" gradientUnits="userSpaceOnUse">
<stop stop-color="white" stop-opacity="0"/>
<stop offset="1" stop-color="white"/>
</linearGradient>
<linearGradient id="paint96_linear_2049_22981" x1="-38.5" y1="-119.415" x2="359.26" y2="623.017" gradientUnits="userSpaceOnUse">
<stop stop-color="white" stop-opacity="0"/>
<stop offset="1" stop-color="white"/>
</linearGradient>
<linearGradient id="paint97_linear_2049_22981" x1="-38.5" y1="-119.415" x2="359.26" y2="623.017" gradientUnits="userSpaceOnUse">
<stop stop-color="white" stop-opacity="0"/>
<stop offset="1" stop-color="white"/>
</linearGradient>
<linearGradient id="paint98_linear_2049_22981" x1="-38.5" y1="-119.415" x2="359.26" y2="623.017" gradientUnits="userSpaceOnUse">
<stop stop-color="white" stop-opacity="0"/>
<stop offset="1" stop-color="white"/>
</linearGradient>
<linearGradient id="paint99_linear_2049_22981" x1="-38.5" y1="-119.415" x2="359.26" y2="623.017" gradientUnits="userSpaceOnUse">
<stop stop-color="white" stop-opacity="0"/>
<stop offset="1" stop-color="white"/>
</linearGradient>
<linearGradient id="paint100_linear_2049_22981" x1="-38.5" y1="-119.415" x2="359.26" y2="623.017" gradientUnits="userSpaceOnUse">
<stop stop-color="white" stop-opacity="0"/>
<stop offset="1" stop-color="white"/>
</linearGradient>
<linearGradient id="paint101_linear_2049_22981" x1="-38.5" y1="-119.415" x2="359.26" y2="623.017" gradientUnits="userSpaceOnUse">
<stop stop-color="white" stop-opacity="0"/>
<stop offset="1" stop-color="white"/>
</linearGradient>
<linearGradient id="paint102_linear_2049_22981" x1="-38.5" y1="-119.415" x2="359.26" y2="623.017" gradientUnits="userSpaceOnUse">
<stop stop-color="white" stop-opacity="0"/>
<stop offset="1" stop-color="white"/>
</linearGradient>
<linearGradient id="paint103_linear_2049_22981" x1="-38.5" y1="-119.415" x2="359.26" y2="623.017" gradientUnits="userSpaceOnUse">
<stop stop-color="white" stop-opacity="0"/>
<stop offset="1" stop-color="white"/>
</linearGradient>
<linearGradient id="paint104_linear_2049_22981" x1="-38.5" y1="-119.415" x2="359.26" y2="623.017" gradientUnits="userSpaceOnUse">
<stop stop-color="white" stop-opacity="0"/>
<stop offset="1" stop-color="white"/>
</linearGradient>
<linearGradient id="paint105_linear_2049_22981" x1="-38.5" y1="-119.415" x2="359.26" y2="623.017" gradientUnits="userSpaceOnUse">
<stop stop-color="white" stop-opacity="0"/>
<stop offset="1" stop-color="white"/>
</linearGradient>
<linearGradient id="paint106_linear_2049_22981" x1="-38.5" y1="-119.415" x2="359.26" y2="623.017" gradientUnits="userSpaceOnUse">
<stop stop-color="white" stop-opacity="0"/>
<stop offset="1" stop-color="white"/>
</linearGradient>
<linearGradient id="paint107_linear_2049_22981" x1="-38.5" y1="-119.415" x2="359.26" y2="623.017" gradientUnits="userSpaceOnUse">
<stop stop-color="white" stop-opacity="0"/>
<stop offset="1" stop-color="white"/>
</linearGradient>
<linearGradient id="paint108_linear_2049_22981" x1="-38.5" y1="-119.415" x2="359.26" y2="623.017" gradientUnits="userSpaceOnUse">
<stop stop-color="white" stop-opacity="0"/>
<stop offset="1" stop-color="white"/>
</linearGradient>
<linearGradient id="paint109_linear_2049_22981" x1="-38.5" y1="-119.415" x2="359.26" y2="623.017" gradientUnits="userSpaceOnUse">
<stop stop-color="white" stop-opacity="0"/>
<stop offset="1" stop-color="white"/>
</linearGradient>
<linearGradient id="paint110_linear_2049_22981" x1="-38.5" y1="-119.415" x2="359.26" y2="623.017" gradientUnits="userSpaceOnUse">
<stop stop-color="white" stop-opacity="0"/>
<stop offset="1" stop-color="white"/>
</linearGradient>
<linearGradient id="paint111_linear_2049_22981" x1="-38.5" y1="-119.415" x2="359.26" y2="623.017" gradientUnits="userSpaceOnUse">
<stop stop-color="white" stop-opacity="0"/>
<stop offset="1" stop-color="white"/>
</linearGradient>
<linearGradient id="paint112_linear_2049_22981" x1="-38.5" y1="-119.415" x2="359.26" y2="623.017" gradientUnits="userSpaceOnUse">
<stop stop-color="white" stop-opacity="0"/>
<stop offset="1" stop-color="white"/>
</linearGradient>
<linearGradient id="paint113_linear_2049_22981" x1="-38.5" y1="-119.415" x2="359.26" y2="623.017" gradientUnits="userSpaceOnUse">
<stop stop-color="white" stop-opacity="0"/>
<stop offset="1" stop-color="white"/>
</linearGradient>
<linearGradient id="paint114_linear_2049_22981" x1="-38.5" y1="-119.415" x2="359.26" y2="623.017" gradientUnits="userSpaceOnUse">
<stop stop-color="white" stop-opacity="0"/>
<stop offset="1" stop-color="white"/>
</linearGradient>
<linearGradient id="paint115_linear_2049_22981" x1="-38.5" y1="-119.415" x2="359.26" y2="623.017" gradientUnits="userSpaceOnUse">
<stop stop-color="white" stop-opacity="0"/>
<stop offset="1" stop-color="white"/>
</linearGradient>
<linearGradient id="paint116_linear_2049_22981" x1="-38.5" y1="-119.415" x2="359.26" y2="623.017" gradientUnits="userSpaceOnUse">
<stop stop-color="white" stop-opacity="0"/>
<stop offset="1" stop-color="white"/>
</linearGradient>
<linearGradient id="paint117_linear_2049_22981" x1="-38.5" y1="-119.415" x2="359.26" y2="623.017" gradientUnits="userSpaceOnUse">
<stop stop-color="white" stop-opacity="0"/>
<stop offset="1" stop-color="white"/>
</linearGradient>
<linearGradient id="paint118_linear_2049_22981" x1="-38.5" y1="-119.415" x2="359.26" y2="623.017" gradientUnits="userSpaceOnUse">
<stop stop-color="white" stop-opacity="0"/>
<stop offset="1" stop-color="white"/>
</linearGradient>
<linearGradient id="paint119_linear_2049_22981" x1="-38.5" y1="-119.415" x2="359.26" y2="623.017" gradientUnits="userSpaceOnUse">
<stop stop-color="white" stop-opacity="0"/>
<stop offset="1" stop-color="white"/>
</linearGradient>
<linearGradient id="paint120_linear_2049_22981" x1="-38.5" y1="-119.415" x2="359.26" y2="623.017" gradientUnits="userSpaceOnUse">
<stop stop-color="white" stop-opacity="0"/>
<stop offset="1" stop-color="white"/>
</linearGradient>
<linearGradient id="paint121_linear_2049_22981" x1="-38.5" y1="-119.415" x2="359.26" y2="623.017" gradientUnits="userSpaceOnUse">
<stop stop-color="white" stop-opacity="0"/>
<stop offset="1" stop-color="white"/>
</linearGradient>
<linearGradient id="paint122_linear_2049_22981" x1="-38.5" y1="-119.415" x2="359.26" y2="623.017" gradientUnits="userSpaceOnUse">
<stop stop-color="white" stop-opacity="0"/>
<stop offset="1" stop-color="white"/>
</linearGradient>
<linearGradient id="paint123_linear_2049_22981" x1="-38.5" y1="-119.415" x2="359.26" y2="623.017" gradientUnits="userSpaceOnUse">
<stop stop-color="white" stop-opacity="0"/>
<stop offset="1" stop-color="white"/>
</linearGradient>
<linearGradient id="paint124_linear_2049_22981" x1="-38.5" y1="-119.415" x2="359.26" y2="623.017" gradientUnits="userSpaceOnUse">
<stop stop-color="white" stop-opacity="0"/>
<stop offset="1" stop-color="white"/>
</linearGradient>
<linearGradient id="paint125_linear_2049_22981" x1="-38.5" y1="-119.415" x2="359.26" y2="623.017" gradientUnits="userSpaceOnUse">
<stop stop-color="white" stop-opacity="0"/>
<stop offset="1" stop-color="white"/>
</linearGradient>
<linearGradient id="paint126_linear_2049_22981" x1="-38.5" y1="-119.415" x2="359.26" y2="623.017" gradientUnits="userSpaceOnUse">
<stop stop-color="white" stop-opacity="0"/>
<stop offset="1" stop-color="white"/>
</linearGradient>
<linearGradient id="paint127_linear_2049_22981" x1="-38.5" y1="-119.415" x2="359.26" y2="623.017" gradientUnits="userSpaceOnUse">
<stop stop-color="white" stop-opacity="0"/>
<stop offset="1" stop-color="white"/>
</linearGradient>
<linearGradient id="paint128_linear_2049_22981" x1="-38.5" y1="-119.415" x2="359.26" y2="623.017" gradientUnits="userSpaceOnUse">
<stop stop-color="white" stop-opacity="0"/>
<stop offset="1" stop-color="white"/>
</linearGradient>
<linearGradient id="paint129_linear_2049_22981" x1="-38.5" y1="-119.415" x2="359.26" y2="623.017" gradientUnits="userSpaceOnUse">
<stop stop-color="white" stop-opacity="0"/>
<stop offset="1" stop-color="white"/>
</linearGradient>
<linearGradient id="paint130_linear_2049_22981" x1="-38.5" y1="-119.415" x2="359.26" y2="623.017" gradientUnits="userSpaceOnUse">
<stop stop-color="white" stop-opacity="0"/>
<stop offset="1" stop-color="white"/>
</linearGradient>
<linearGradient id="paint131_linear_2049_22981" x1="-38.5" y1="-119.415" x2="359.26" y2="623.017" gradientUnits="userSpaceOnUse">
<stop stop-color="white" stop-opacity="0"/>
<stop offset="1" stop-color="white"/>
</linearGradient>
<linearGradient id="paint132_linear_2049_22981" x1="-38.5" y1="-119.415" x2="359.26" y2="623.017" gradientUnits="userSpaceOnUse">
<stop stop-color="white" stop-opacity="0"/>
<stop offset="1" stop-color="white"/>
</linearGradient>
<linearGradient id="paint133_linear_2049_22981" x1="-38.5" y1="-119.415" x2="359.26" y2="623.017" gradientUnits="userSpaceOnUse">
<stop stop-color="white" stop-opacity="0"/>
<stop offset="1" stop-color="white"/>
</linearGradient>
<linearGradient id="paint134_linear_2049_22981" x1="-38.5" y1="-119.415" x2="359.26" y2="623.017" gradientUnits="userSpaceOnUse">
<stop stop-color="white" stop-opacity="0"/>
<stop offset="1" stop-color="white"/>
</linearGradient>
<linearGradient id="paint135_linear_2049_22981" x1="-38.5" y1="-119.415" x2="359.26" y2="623.017" gradientUnits="userSpaceOnUse">
<stop stop-color="white" stop-opacity="0"/>
<stop offset="1" stop-color="white"/>
</linearGradient>
<linearGradient id="paint136_linear_2049_22981" x1="-38.5" y1="-119.415" x2="359.26" y2="623.017" gradientUnits="userSpaceOnUse">
<stop stop-color="white" stop-opacity="0"/>
<stop offset="1" stop-color="white"/>
</linearGradient>
<linearGradient id="paint137_linear_2049_22981" x1="-38.5" y1="-119.415" x2="359.26" y2="623.017" gradientUnits="userSpaceOnUse">
<stop stop-color="white" stop-opacity="0"/>
<stop offset="1" stop-color="white"/>
</linearGradient>
<linearGradient id="paint138_linear_2049_22981" x1="-38.5" y1="-119.415" x2="359.26" y2="623.017" gradientUnits="userSpaceOnUse">
<stop stop-color="white" stop-opacity="0"/>
<stop offset="1" stop-color="white"/>
</linearGradient>
<linearGradient id="paint139_linear_2049_22981" x1="-38.5" y1="-119.415" x2="359.26" y2="623.017" gradientUnits="userSpaceOnUse">
<stop stop-color="white" stop-opacity="0"/>
<stop offset="1" stop-color="white"/>
</linearGradient>
<linearGradient id="paint140_linear_2049_22981" x1="-38.5" y1="-119.415" x2="359.26" y2="623.017" gradientUnits="userSpaceOnUse">
<stop stop-color="white" stop-opacity="0"/>
<stop offset="1" stop-color="white"/>
</linearGradient>
<linearGradient id="paint141_linear_2049_22981" x1="-38.5" y1="-119.415" x2="359.26" y2="623.017" gradientUnits="userSpaceOnUse">
<stop stop-color="white" stop-opacity="0"/>
<stop offset="1" stop-color="white"/>
</linearGradient>
<linearGradient id="paint142_linear_2049_22981" x1="-38.5" y1="-119.415" x2="359.26" y2="623.017" gradientUnits="userSpaceOnUse">
<stop stop-color="white" stop-opacity="0"/>
<stop offset="1" stop-color="white"/>
</linearGradient>
<linearGradient id="paint143_linear_2049_22981" x1="-38.5" y1="-119.415" x2="359.26" y2="623.017" gradientUnits="userSpaceOnUse">
<stop stop-color="white" stop-opacity="0"/>
<stop offset="1" stop-color="white"/>
</linearGradient>
<linearGradient id="paint144_linear_2049_22981" x1="-38.5" y1="-119.415" x2="359.26" y2="623.017" gradientUnits="userSpaceOnUse">
<stop stop-color="white" stop-opacity="0"/>
<stop offset="1" stop-color="white"/>
</linearGradient>
<linearGradient id="paint145_linear_2049_22981" x1="-38.5" y1="-119.415" x2="359.26" y2="623.017" gradientUnits="userSpaceOnUse">
<stop stop-color="white" stop-opacity="0"/>
<stop offset="1" stop-color="white"/>
</linearGradient>
<linearGradient id="paint146_linear_2049_22981" x1="-38.5" y1="-119.415" x2="359.26" y2="623.017" gradientUnits="userSpaceOnUse">
<stop stop-color="white" stop-opacity="0"/>
<stop offset="1" stop-color="white"/>
</linearGradient>
<linearGradient id="paint147_linear_2049_22981" x1="-38.5" y1="-119.415" x2="359.26" y2="623.017" gradientUnits="userSpaceOnUse">
<stop stop-color="white" stop-opacity="0"/>
<stop offset="1" stop-color="white"/>
</linearGradient>
<linearGradient id="paint148_linear_2049_22981" x1="-38.5" y1="-119.415" x2="359.26" y2="623.017" gradientUnits="userSpaceOnUse">
<stop stop-color="white" stop-opacity="0"/>
<stop offset="1" stop-color="white"/>
</linearGradient>
<linearGradient id="paint149_linear_2049_22981" x1="-38.5" y1="-119.415" x2="359.26" y2="623.017" gradientUnits="userSpaceOnUse">
<stop stop-color="white" stop-opacity="0"/>
<stop offset="1" stop-color="white"/>
</linearGradient>
<linearGradient id="paint150_linear_2049_22981" x1="-38.5" y1="-119.415" x2="359.26" y2="623.017" gradientUnits="userSpaceOnUse">
<stop stop-color="white" stop-opacity="0"/>
<stop offset="1" stop-color="white"/>
</linearGradient>
<linearGradient id="paint151_linear_2049_22981" x1="-38.5" y1="-119.415" x2="359.26" y2="623.017" gradientUnits="userSpaceOnUse">
<stop stop-color="white" stop-opacity="0"/>
<stop offset="1" stop-color="white"/>
</linearGradient>
<linearGradient id="paint152_linear_2049_22981" x1="-38.5" y1="-119.415" x2="359.26" y2="623.017" gradientUnits="userSpaceOnUse">
<stop stop-color="white" stop-opacity="0"/>
<stop offset="1" stop-color="white"/>
</linearGradient>
<linearGradient id="paint153_linear_2049_22981" x1="-38.5" y1="-119.415" x2="359.26" y2="623.017" gradientUnits="userSpaceOnUse">
<stop stop-color="white" stop-opacity="0"/>
<stop offset="1" stop-color="white"/>
</linearGradient>
<linearGradient id="paint154_linear_2049_22981" x1="-38.5" y1="-119.415" x2="359.26" y2="623.017" gradientUnits="userSpaceOnUse">
<stop stop-color="white" stop-opacity="0"/>
<stop offset="1" stop-color="white"/>
</linearGradient>
<linearGradient id="paint155_linear_2049_22981" x1="-38.5" y1="-119.415" x2="359.26" y2="623.017" gradientUnits="userSpaceOnUse">
<stop stop-color="white" stop-opacity="0"/>
<stop offset="1" stop-color="white"/>
</linearGradient>
<linearGradient id="paint156_linear_2049_22981" x1="-38.5" y1="-119.415" x2="359.26" y2="623.017" gradientUnits="userSpaceOnUse">
<stop stop-color="white" stop-opacity="0"/>
<stop offset="1" stop-color="white"/>
</linearGradient>
<linearGradient id="paint157_linear_2049_22981" x1="-38.5" y1="-119.415" x2="359.26" y2="623.017" gradientUnits="userSpaceOnUse">
<stop stop-color="white" stop-opacity="0"/>
<stop offset="1" stop-color="white"/>
</linearGradient>
<linearGradient id="paint158_linear_2049_22981" x1="-38.5" y1="-119.415" x2="359.26" y2="623.017" gradientUnits="userSpaceOnUse">
<stop stop-color="white" stop-opacity="0"/>
<stop offset="1" stop-color="white"/>
</linearGradient>
<linearGradient id="paint159_linear_2049_22981" x1="-38.5" y1="-119.415" x2="359.26" y2="623.017" gradientUnits="userSpaceOnUse">
<stop stop-color="white" stop-opacity="0"/>
<stop offset="1" stop-color="white"/>
</linearGradient>
<linearGradient id="paint160_linear_2049_22981" x1="-38.5" y1="-119.415" x2="359.26" y2="623.017" gradientUnits="userSpaceOnUse">
<stop stop-color="white" stop-opacity="0"/>
<stop offset="1" stop-color="white"/>
</linearGradient>
<linearGradient id="paint161_linear_2049_22981" x1="-38.5" y1="-119.415" x2="359.26" y2="623.017" gradientUnits="userSpaceOnUse">
<stop stop-color="white" stop-opacity="0"/>
<stop offset="1" stop-color="white"/>
</linearGradient>
<clipPath id="clip0_2049_22981">
<rect width="300" height="467" fill="white"/>
</clipPath>
</defs>
</svg>
