<svg width="1220" height="433" viewBox="0 0 1220 433" fill="none" xmlns="http://www.w3.org/2000/svg">
<g clip-path="url(#clip0_2_3456)">
<rect width="1220" height="433" rx="26" fill="#F9EFD5"/>
<g clip-path="url(#clip1_2_3456)">
<g opacity="0.5">
<path d="M-573.042 -70.901L-566.67 -89.5295L-584.253 -98.5901L-595.457 -82.4516L-609.278 -89.9132L-548.192 -176.149L-524.838 -164.115L-559.417 -64.0495L-573.042 -70.901ZM-575.661 -110.979L-561.702 -103.786L-543.298 -156.641L-542.671 -158.186L-575.661 -110.979Z" fill="url(#paint0_linear_2_3456)"/>
<path d="M-573.042 103.099L-566.67 84.4705L-584.253 75.4099L-595.457 91.5484L-609.278 84.0868L-548.192 -2.14934L-524.838 9.88544L-559.417 109.951L-573.042 103.099ZM-575.661 63.0213L-561.702 70.2144L-543.298 17.3592L-542.671 15.8136L-575.661 63.0213Z" fill="url(#paint1_linear_2_3456)"/>
<path d="M-573.042 277.099L-566.67 258.471L-584.253 249.41L-595.457 265.548L-609.278 258.087L-548.192 171.851L-524.838 183.885L-559.417 283.951L-573.042 277.099ZM-575.661 237.021L-561.702 244.214L-543.298 191.359L-542.671 189.814L-575.661 237.021Z" fill="url(#paint2_linear_2_3456)"/>
<path d="M-573.042 451.099L-566.67 432.471L-584.253 423.41L-595.457 439.548L-609.278 432.087L-548.192 345.851L-524.838 357.885L-559.417 457.951L-573.042 451.099ZM-575.661 411.021L-561.702 418.214L-543.298 365.359L-542.671 363.814L-575.661 411.021Z" fill="url(#paint3_linear_2_3456)"/>
<path d="M-573.042 625.099L-566.67 606.471L-584.253 597.41L-595.457 613.548L-609.278 606.087L-548.192 519.851L-524.838 531.885L-559.417 631.951L-573.042 625.099ZM-575.661 585.021L-561.702 592.214L-543.298 539.359L-542.671 537.814L-575.661 585.021Z" fill="url(#paint4_linear_2_3456)"/>
<path d="M-573.042 799.099L-566.67 780.471L-584.253 771.41L-595.457 787.548L-609.278 780.087L-548.192 693.851L-524.838 705.885L-559.417 805.951L-573.042 799.099ZM-575.661 759.021L-561.702 766.214L-543.298 713.359L-542.671 711.814L-575.661 759.021Z" fill="url(#paint5_linear_2_3456)"/>
<path d="M-635.743 -142.771L-635.441 -127.671L-675.454 -127.067L-675.756 -142.016L-635.743 -142.771Z" fill="url(#paint6_linear_2_3456)"/>
<path d="M-635.743 31.2294L-635.441 46.3286L-675.454 46.9326L-675.756 31.9843L-635.743 31.2294Z" fill="url(#paint7_linear_2_3456)"/>
<path d="M-635.743 205.229L-635.441 220.329L-675.454 220.933L-675.756 205.984L-635.743 205.229Z" fill="url(#paint8_linear_2_3456)"/>
<path d="M-635.743 379.229L-635.441 394.329L-675.454 394.933L-675.756 379.984L-635.743 379.229Z" fill="url(#paint9_linear_2_3456)"/>
<path d="M-635.743 553.229L-635.441 568.329L-675.454 568.933L-675.756 553.984L-635.743 553.229Z" fill="url(#paint10_linear_2_3456)"/>
<path d="M-635.743 727.229L-635.441 742.329L-675.454 742.933L-675.756 727.984L-635.743 727.229Z" fill="url(#paint11_linear_2_3456)"/>
<path d="M-419.08 -199.091L-418.476 -94.151L-433.425 -94L-433.878 -183.539L-448.675 -99.1337H-464.227L-481.289 -183.539L-480.987 -94H-496.087L-496.389 -198.487L-470.871 -199.091L-456.98 -127.52L-444.9 -199.846L-419.08 -199.091Z" fill="url(#paint12_linear_2_3456)"/>
<path d="M-419.08 -25.0909L-418.476 79.849L-433.425 80L-433.878 -9.53868L-448.675 74.8662H-464.227L-481.289 -9.53868L-480.987 80H-496.087L-496.389 -24.487L-470.871 -25.0909L-456.98 46.4796L-444.9 -25.8459L-419.08 -25.0909Z" fill="url(#paint13_linear_2_3456)"/>
<path d="M-419.08 148.909L-418.476 253.849L-433.425 254L-433.878 164.461L-448.675 248.866H-464.227L-481.289 164.461L-480.987 254H-496.087L-496.389 149.513L-470.871 148.909L-456.98 220.48L-444.9 148.154L-419.08 148.909Z" fill="url(#paint14_linear_2_3456)"/>
<path d="M-419.08 322.909L-418.476 427.849L-433.425 428L-433.878 338.461L-448.675 422.866H-464.227L-481.289 338.461L-480.987 428H-496.087L-496.389 323.513L-470.871 322.909L-456.98 394.48L-444.9 322.154L-419.08 322.909Z" fill="url(#paint15_linear_2_3456)"/>
<path d="M-419.08 496.909L-418.476 601.849L-433.425 602L-433.878 512.461L-448.675 596.866H-464.227L-481.289 512.461L-480.987 602H-496.087L-496.389 497.513L-470.871 496.909L-456.98 568.48L-444.9 496.154L-419.08 496.909Z" fill="url(#paint16_linear_2_3456)"/>
<path d="M-419.08 670.909L-418.476 775.849L-433.425 776L-433.878 686.461L-448.675 770.866H-464.227L-481.289 686.461L-480.987 776H-496.087L-496.389 671.513L-470.871 670.909L-456.98 742.48L-444.9 670.154L-419.08 670.909Z" fill="url(#paint17_linear_2_3456)"/>
<path d="M-266.929 -70.901L-260.557 -89.5295L-278.14 -98.5901L-289.344 -82.4516L-303.164 -89.9132L-242.079 -176.149L-218.725 -164.115L-253.304 -64.0495L-266.929 -70.901ZM-269.547 -110.979L-255.589 -103.786L-237.184 -156.641L-236.558 -158.186L-269.547 -110.979Z" fill="url(#paint18_linear_2_3456)"/>
<path d="M-266.929 103.099L-260.557 84.4705L-278.14 75.4099L-289.344 91.5484L-303.164 84.0868L-242.079 -2.14934L-218.725 9.88544L-253.304 109.951L-266.929 103.099ZM-269.547 63.0213L-255.589 70.2144L-237.184 17.3592L-236.558 15.8136L-269.547 63.0213Z" fill="url(#paint19_linear_2_3456)"/>
<path d="M-266.929 277.099L-260.557 258.471L-278.14 249.41L-289.344 265.548L-303.164 258.087L-242.079 171.851L-218.725 183.885L-253.304 283.951L-266.929 277.099ZM-269.547 237.021L-255.589 244.214L-237.184 191.359L-236.558 189.814L-269.547 237.021Z" fill="url(#paint20_linear_2_3456)"/>
<path d="M-266.929 451.099L-260.557 432.471L-278.14 423.41L-289.344 439.548L-303.164 432.087L-242.079 345.851L-218.725 357.885L-253.304 457.951L-266.929 451.099ZM-269.547 411.021L-255.589 418.214L-237.184 365.359L-236.558 363.814L-269.547 411.021Z" fill="url(#paint21_linear_2_3456)"/>
<path d="M-266.929 625.099L-260.557 606.471L-278.14 597.41L-289.344 613.548L-303.164 606.087L-242.079 519.851L-218.725 531.885L-253.304 631.951L-266.929 625.099ZM-269.547 585.021L-255.589 592.214L-237.184 539.359L-236.558 537.814L-269.547 585.021Z" fill="url(#paint22_linear_2_3456)"/>
<path d="M-266.929 799.099L-260.557 780.471L-278.14 771.41L-289.344 787.548L-303.164 780.087L-242.079 693.851L-218.725 705.885L-253.304 805.951L-266.929 799.099ZM-269.547 759.021L-255.589 766.214L-237.184 713.359L-236.558 711.814L-269.547 759.021Z" fill="url(#paint23_linear_2_3456)"/>
<path d="M-329.634 -142.771L-329.332 -127.671L-369.345 -127.067L-369.647 -142.016L-329.634 -142.771Z" fill="url(#paint24_linear_2_3456)"/>
<path d="M-329.634 31.2294L-329.332 46.3286L-369.345 46.9326L-369.647 31.9843L-329.634 31.2294Z" fill="url(#paint25_linear_2_3456)"/>
<path d="M-329.634 205.229L-329.332 220.329L-369.345 220.933L-369.647 205.984L-329.634 205.229Z" fill="url(#paint26_linear_2_3456)"/>
<path d="M-329.634 379.229L-329.332 394.329L-369.345 394.933L-369.647 379.984L-329.634 379.229Z" fill="url(#paint27_linear_2_3456)"/>
<path d="M-329.634 553.229L-329.332 568.329L-369.345 568.933L-369.647 553.984L-329.634 553.229Z" fill="url(#paint28_linear_2_3456)"/>
<path d="M-329.634 727.229L-329.332 742.329L-369.345 742.933L-369.647 727.984L-329.634 727.229Z" fill="url(#paint29_linear_2_3456)"/>
<path d="M-112.959 -199.091L-112.355 -94.151L-127.304 -94L-127.757 -183.539L-142.554 -99.1337H-158.106L-175.168 -183.539L-174.866 -94H-189.966L-190.268 -198.487L-164.75 -199.091L-150.858 -127.52L-138.779 -199.846L-112.959 -199.091Z" fill="url(#paint30_linear_2_3456)"/>
<path d="M-112.959 -25.0909L-112.355 79.849L-127.304 80L-127.757 -9.53868L-142.554 74.8662H-158.106L-175.168 -9.53868L-174.866 80H-189.966L-190.268 -24.487L-164.75 -25.0909L-150.858 46.4796L-138.779 -25.8459L-112.959 -25.0909Z" fill="url(#paint31_linear_2_3456)"/>
<path d="M-112.959 148.909L-112.355 253.849L-127.304 254L-127.757 164.461L-142.554 248.866H-158.106L-175.168 164.461L-174.866 254H-189.966L-190.268 149.513L-164.75 148.909L-150.858 220.48L-138.779 148.154L-112.959 148.909Z" fill="url(#paint32_linear_2_3456)"/>
<path d="M-112.959 322.909L-112.355 427.849L-127.304 428L-127.757 338.461L-142.554 422.866H-158.106L-175.168 338.461L-174.866 428H-189.966L-190.268 323.513L-164.75 322.909L-150.858 394.48L-138.779 322.154L-112.959 322.909Z" fill="url(#paint33_linear_2_3456)"/>
<path d="M-112.959 496.909L-112.355 601.849L-127.304 602L-127.757 512.461L-142.554 596.866H-158.106L-175.168 512.461L-174.866 602H-189.966L-190.268 497.513L-164.75 496.909L-150.858 568.48L-138.779 496.154L-112.959 496.909Z" fill="url(#paint34_linear_2_3456)"/>
<path d="M-112.959 670.909L-112.355 775.849L-127.304 776L-127.757 686.461L-142.554 770.866H-158.106L-175.168 686.461L-174.866 776H-189.966L-190.268 671.513L-164.75 670.909L-150.858 742.48L-138.779 670.154L-112.959 670.909Z" fill="url(#paint35_linear_2_3456)"/>
<path d="M43.7311 -70.901L50.1033 -89.5295L32.5205 -98.5901L21.3164 -82.4516L7.49591 -89.9132L68.581 -176.149L91.9352 -164.115L57.3565 -64.0495L43.7311 -70.901ZM41.1127 -110.979L55.0715 -103.786L73.4758 -156.641L74.1024 -158.186L41.1127 -110.979Z" fill="url(#paint36_linear_2_3456)"/>
<path d="M43.7311 103.099L50.1033 84.4705L32.5205 75.4099L21.3164 91.5484L7.49591 84.0868L68.581 -2.14934L91.9352 9.88544L57.3565 109.951L43.7311 103.099ZM41.1127 63.0213L55.0715 70.2144L73.4758 17.3592L74.1024 15.8136L41.1127 63.0213Z" fill="url(#paint37_linear_2_3456)"/>
<path d="M43.7311 277.099L50.1033 258.471L32.5205 249.41L21.3164 265.548L7.49591 258.087L68.581 171.851L91.9352 183.885L57.3565 283.951L43.7311 277.099ZM41.1127 237.021L55.0715 244.214L73.4758 191.359L74.1024 189.814L41.1127 237.021Z" fill="url(#paint38_linear_2_3456)"/>
<path d="M43.7311 451.099L50.1033 432.471L32.5205 423.41L21.3164 439.548L7.49591 432.087L68.581 345.851L91.9352 357.885L57.3565 457.951L43.7311 451.099ZM41.1127 411.021L55.0715 418.214L73.4758 365.359L74.1024 363.814L41.1127 411.021Z" fill="url(#paint39_linear_2_3456)"/>
<path d="M43.7311 625.099L50.1033 606.471L32.5205 597.41L21.3164 613.548L7.49591 606.087L68.581 519.851L91.9352 531.885L57.3565 631.951L43.7311 625.099ZM41.1127 585.021L55.0715 592.214L73.4758 539.359L74.1024 537.814L41.1127 585.021Z" fill="url(#paint40_linear_2_3456)"/>
<path d="M43.7311 799.099L50.1033 780.471L32.5205 771.41L21.3164 787.548L7.49591 780.087L68.581 693.851L91.9352 705.885L57.3565 805.951L43.7311 799.099ZM41.1127 759.021L55.0715 766.214L73.4758 713.359L74.1024 711.814L41.1127 759.021Z" fill="url(#paint41_linear_2_3456)"/>
<path d="M-18.9696 -142.771L-18.6676 -127.671L-58.6807 -127.067L-58.9827 -142.016L-18.9696 -142.771Z" fill="url(#paint42_linear_2_3456)"/>
<path d="M-18.9696 31.2294L-18.6676 46.3286L-58.6807 46.9326L-58.9827 31.9843L-18.9696 31.2294Z" fill="url(#paint43_linear_2_3456)"/>
<path d="M-18.9696 205.229L-18.6676 220.329L-58.6807 220.933L-58.9827 205.984L-18.9696 205.229Z" fill="url(#paint44_linear_2_3456)"/>
<path d="M-18.9696 379.229L-18.6676 394.329L-58.6807 394.933L-58.9827 379.984L-18.9696 379.229Z" fill="url(#paint45_linear_2_3456)"/>
<path d="M-18.9696 553.229L-18.6676 568.329L-58.6807 568.933L-58.9827 553.984L-18.9696 553.229Z" fill="url(#paint46_linear_2_3456)"/>
<path d="M-18.9696 727.229L-18.6676 742.329L-58.6807 742.933L-58.9827 727.984L-18.9696 727.229Z" fill="url(#paint47_linear_2_3456)"/>
<path d="M197.693 -199.091L198.297 -94.151L183.349 -94L182.896 -183.539L168.099 -99.1337H152.546L135.484 -183.539L135.786 -94H120.687L120.385 -198.487L145.903 -199.091L159.794 -127.52L171.873 -199.846L197.693 -199.091Z" fill="url(#paint48_linear_2_3456)"/>
<path d="M197.693 -25.0909L198.297 79.849L183.349 80L182.896 -9.53868L168.099 74.8662H152.546L135.484 -9.53868L135.786 80H120.687L120.385 -24.487L145.903 -25.0909L159.794 46.4796L171.873 -25.8459L197.693 -25.0909Z" fill="url(#paint49_linear_2_3456)"/>
<path d="M197.693 148.909L198.297 253.849L183.349 254L182.896 164.461L168.099 248.866H152.546L135.484 164.461L135.786 254H120.687L120.385 149.513L145.903 148.909L159.794 220.48L171.873 148.154L197.693 148.909Z" fill="url(#paint50_linear_2_3456)"/>
<path d="M197.693 322.909L198.297 427.849L183.349 428L182.896 338.461L168.099 422.866H152.546L135.484 338.461L135.786 428H120.687L120.385 323.513L145.903 322.909L159.794 394.48L171.873 322.154L197.693 322.909Z" fill="url(#paint51_linear_2_3456)"/>
<path d="M197.693 496.909L198.297 601.849L183.349 602L182.896 512.461L168.099 596.866H152.546L135.484 512.461L135.786 602H120.687L120.385 497.513L145.903 496.909L159.794 568.48L171.873 496.154L197.693 496.909Z" fill="url(#paint52_linear_2_3456)"/>
<path d="M197.693 670.909L198.297 775.849L183.349 776L182.896 686.461L168.099 770.866H152.546L135.484 686.461L135.786 776H120.687L120.385 671.513L145.903 670.909L159.794 742.48L171.873 670.154L197.693 670.909Z" fill="url(#paint53_linear_2_3456)"/>
<path d="M349.844 -70.901L356.217 -89.5295L338.634 -98.5901L327.43 -82.4516L313.609 -89.9132L374.694 -176.149L398.049 -164.115L363.47 -64.0495L349.844 -70.901ZM347.226 -110.979L361.185 -103.786L379.589 -156.641L380.216 -158.186L347.226 -110.979Z" fill="url(#paint54_linear_2_3456)"/>
<path d="M349.844 103.099L356.217 84.4705L338.634 75.4099L327.43 91.5484L313.609 84.0868L374.694 -2.14934L398.049 9.88544L363.47 109.951L349.844 103.099ZM347.226 63.0213L361.185 70.2144L379.589 17.3592L380.216 15.8136L347.226 63.0213Z" fill="url(#paint55_linear_2_3456)"/>
<path d="M349.844 277.099L356.217 258.471L338.634 249.41L327.43 265.548L313.609 258.087L374.694 171.851L398.049 183.885L363.47 283.951L349.844 277.099ZM347.226 237.021L361.185 244.214L379.589 191.359L380.216 189.814L347.226 237.021Z" fill="url(#paint56_linear_2_3456)"/>
<path d="M349.844 451.099L356.217 432.471L338.634 423.41L327.43 439.548L313.609 432.087L374.694 345.851L398.049 357.885L363.47 457.951L349.844 451.099ZM347.226 411.021L361.185 418.214L379.589 365.359L380.216 363.814L347.226 411.021Z" fill="url(#paint57_linear_2_3456)"/>
<path d="M349.844 625.099L356.217 606.471L338.634 597.41L327.43 613.548L313.609 606.087L374.694 519.851L398.049 531.885L363.47 631.951L349.844 625.099ZM347.226 585.021L361.185 592.214L379.589 539.359L380.216 537.814L347.226 585.021Z" fill="url(#paint58_linear_2_3456)"/>
<path d="M349.844 799.099L356.217 780.471L338.634 771.41L327.43 787.548L313.609 780.087L374.694 693.851L398.049 705.885L363.47 805.951L349.844 799.099ZM347.226 759.021L361.185 766.214L379.589 713.359L380.216 711.814L347.226 759.021Z" fill="url(#paint59_linear_2_3456)"/>
<path d="M287.144 -142.771L287.446 -127.671L247.433 -127.067L247.131 -142.016L287.144 -142.771Z" fill="url(#paint60_linear_2_3456)"/>
<path d="M287.144 31.2294L287.446 46.3286L247.433 46.9326L247.131 31.9843L287.144 31.2294Z" fill="url(#paint61_linear_2_3456)"/>
<path d="M287.144 205.229L287.446 220.329L247.433 220.933L247.131 205.984L287.144 205.229Z" fill="url(#paint62_linear_2_3456)"/>
<path d="M287.144 379.229L287.446 394.329L247.433 394.933L247.131 379.984L287.144 379.229Z" fill="url(#paint63_linear_2_3456)"/>
<path d="M287.144 553.229L287.446 568.329L247.433 568.933L247.131 553.984L287.144 553.229Z" fill="url(#paint64_linear_2_3456)"/>
<path d="M287.144 727.229L287.446 742.329L247.433 742.933L247.131 727.984L287.144 727.229Z" fill="url(#paint65_linear_2_3456)"/>
<path d="M503.818 -199.091L504.422 -94.151L489.474 -94L489.021 -183.539L474.224 -99.1337H458.671L441.609 -183.539L441.911 -94H426.812L426.51 -198.487L452.028 -199.091L465.919 -127.52L477.998 -199.846L503.818 -199.091Z" fill="url(#paint66_linear_2_3456)"/>
<path d="M503.818 -25.0909L504.422 79.849L489.474 80L489.021 -9.53868L474.224 74.8662H458.671L441.609 -9.53868L441.911 80H426.812L426.51 -24.487L452.028 -25.0909L465.919 46.4796L477.998 -25.8459L503.818 -25.0909Z" fill="url(#paint67_linear_2_3456)"/>
<path d="M503.818 148.909L504.422 253.849L489.474 254L489.021 164.461L474.224 248.866H458.671L441.609 164.461L441.911 254H426.812L426.51 149.513L452.028 148.909L465.919 220.48L477.998 148.154L503.818 148.909Z" fill="url(#paint68_linear_2_3456)"/>
<path d="M503.818 322.909L504.422 427.849L489.474 428L489.021 338.461L474.224 422.866H458.671L441.609 338.461L441.911 428H426.812L426.51 323.513L452.028 322.909L465.919 394.48L477.998 322.154L503.818 322.909Z" fill="url(#paint69_linear_2_3456)"/>
<path d="M503.818 496.909L504.422 601.849L489.474 602L489.021 512.461L474.224 596.866H458.671L441.609 512.461L441.911 602H426.812L426.51 497.513L452.028 496.909L465.919 568.48L477.998 496.154L503.818 496.909Z" fill="url(#paint70_linear_2_3456)"/>
<path d="M503.818 670.909L504.422 775.849L489.474 776L489.021 686.461L474.224 770.866H458.671L441.609 686.461L441.911 776H426.812L426.51 671.513L452.028 670.909L465.919 742.48L477.998 670.154L503.818 670.909Z" fill="url(#paint71_linear_2_3456)"/>
<path d="M680.903 -70.901L687.275 -89.5295L669.692 -98.5901L658.488 -82.4516L644.668 -89.9132L705.753 -176.149L729.107 -164.115L694.528 -64.0495L680.903 -70.901ZM678.285 -110.979L692.243 -103.786L710.648 -156.641L711.274 -158.186L678.285 -110.979Z" fill="url(#paint72_linear_2_3456)"/>
<path d="M680.903 103.099L687.275 84.4705L669.692 75.4099L658.488 91.5484L644.668 84.0868L705.753 -2.14934L729.107 9.88544L694.528 109.951L680.903 103.099ZM678.285 63.0213L692.243 70.2144L710.648 17.3592L711.274 15.8136L678.285 63.0213Z" fill="url(#paint73_linear_2_3456)"/>
<path d="M680.903 277.099L687.275 258.471L669.692 249.41L658.488 265.548L644.668 258.087L705.753 171.851L729.107 183.885L694.528 283.951L680.903 277.099ZM678.285 237.021L692.243 244.214L710.648 191.359L711.274 189.814L678.285 237.021Z" fill="url(#paint74_linear_2_3456)"/>
<path d="M680.903 451.099L687.275 432.471L669.692 423.41L658.488 439.548L644.668 432.087L705.753 345.851L729.107 357.885L694.528 457.951L680.903 451.099ZM678.285 411.021L692.243 418.214L710.648 365.359L711.274 363.814L678.285 411.021Z" fill="url(#paint75_linear_2_3456)"/>
<path d="M680.903 625.099L687.275 606.471L669.692 597.41L658.488 613.548L644.668 606.087L705.753 519.851L729.107 531.885L694.528 631.951L680.903 625.099ZM678.285 585.021L692.243 592.214L710.648 539.359L711.274 537.814L678.285 585.021Z" fill="url(#paint76_linear_2_3456)"/>
<path d="M680.903 799.099L687.275 780.471L669.692 771.41L658.488 787.548L644.668 780.087L705.753 693.851L729.107 705.885L694.528 805.951L680.903 799.099ZM678.285 759.021L692.243 766.214L710.648 713.359L711.274 711.814L678.285 759.021Z" fill="url(#paint77_linear_2_3456)"/>
<path d="M618.202 -142.771L618.504 -127.671L578.491 -127.067L578.189 -142.016L618.202 -142.771Z" fill="url(#paint78_linear_2_3456)"/>
<path d="M618.202 31.2294L618.504 46.3286L578.491 46.9326L578.189 31.9843L618.202 31.2294Z" fill="url(#paint79_linear_2_3456)"/>
<path d="M618.202 205.229L618.504 220.329L578.491 220.933L578.189 205.984L618.202 205.229Z" fill="url(#paint80_linear_2_3456)"/>
<path d="M618.202 379.229L618.504 394.329L578.491 394.933L578.189 379.984L618.202 379.229Z" fill="url(#paint81_linear_2_3456)"/>
<path d="M618.202 553.229L618.504 568.329L578.491 568.933L578.189 553.984L618.202 553.229Z" fill="url(#paint82_linear_2_3456)"/>
<path d="M618.202 727.229L618.504 742.329L578.491 742.933L578.189 727.984L618.202 727.229Z" fill="url(#paint83_linear_2_3456)"/>
<path d="M834.869 -199.091L835.473 -94.151L820.525 -94L820.072 -183.539L805.274 -99.1337H789.722L772.66 -183.539L772.962 -94H757.863L757.561 -198.487L783.078 -199.091L796.97 -127.52L809.049 -199.846L834.869 -199.091Z" fill="url(#paint84_linear_2_3456)"/>
<path d="M834.869 -25.0909L835.473 79.849L820.525 80L820.072 -9.53868L805.274 74.8662H789.722L772.66 -9.53868L772.962 80H757.863L757.561 -24.487L783.078 -25.0909L796.97 46.4796L809.049 -25.8459L834.869 -25.0909Z" fill="url(#paint85_linear_2_3456)"/>
<path d="M834.869 148.909L835.473 253.849L820.525 254L820.072 164.461L805.274 248.866H789.722L772.66 164.461L772.962 254H757.863L757.561 149.513L783.078 148.909L796.97 220.48L809.049 148.154L834.869 148.909Z" fill="url(#paint86_linear_2_3456)"/>
<path d="M834.869 322.909L835.473 427.849L820.525 428L820.072 338.461L805.274 422.866H789.722L772.66 338.461L772.962 428H757.863L757.561 323.513L783.078 322.909L796.97 394.48L809.049 322.154L834.869 322.909Z" fill="url(#paint87_linear_2_3456)"/>
<path d="M834.869 496.909L835.473 601.849L820.525 602L820.072 512.461L805.274 596.866H789.722L772.66 512.461L772.962 602H757.863L757.561 497.513L783.078 496.909L796.97 568.48L809.049 496.154L834.869 496.909Z" fill="url(#paint88_linear_2_3456)"/>
<path d="M834.869 670.909L835.473 775.849L820.525 776L820.072 686.461L805.274 770.866H789.722L772.66 686.461L772.962 776H757.863L757.561 671.513L783.078 670.909L796.97 742.48L809.049 670.154L834.869 670.909Z" fill="url(#paint89_linear_2_3456)"/>
<path d="M987.012 -70.901L993.385 -89.5295L975.802 -98.5901L964.598 -82.4516L950.777 -89.9132L1011.86 -176.149L1035.22 -164.115L1000.64 -64.0495L987.012 -70.901ZM984.394 -110.979L998.353 -103.786L1016.76 -156.641L1017.38 -158.186L984.394 -110.979Z" fill="url(#paint90_linear_2_3456)"/>
<path d="M987.012 103.099L993.385 84.4705L975.802 75.4099L964.598 91.5484L950.777 84.0868L1011.86 -2.14934L1035.22 9.88544L1000.64 109.951L987.012 103.099ZM984.394 63.0213L998.353 70.2144L1016.76 17.3592L1017.38 15.8136L984.394 63.0213Z" fill="url(#paint91_linear_2_3456)"/>
<path d="M987.012 277.099L993.385 258.471L975.802 249.41L964.598 265.548L950.777 258.087L1011.86 171.851L1035.22 183.885L1000.64 283.951L987.012 277.099ZM984.394 237.021L998.353 244.214L1016.76 191.359L1017.38 189.814L984.394 237.021Z" fill="url(#paint92_linear_2_3456)"/>
<path d="M987.012 451.099L993.385 432.471L975.802 423.41L964.598 439.548L950.777 432.087L1011.86 345.851L1035.22 357.885L1000.64 457.951L987.012 451.099ZM984.394 411.021L998.353 418.214L1016.76 365.359L1017.38 363.814L984.394 411.021Z" fill="url(#paint93_linear_2_3456)"/>
<path d="M987.012 625.099L993.385 606.471L975.802 597.41L964.598 613.548L950.777 606.087L1011.86 519.851L1035.22 531.885L1000.64 631.951L987.012 625.099ZM984.394 585.021L998.353 592.214L1016.76 539.359L1017.38 537.814L984.394 585.021Z" fill="url(#paint94_linear_2_3456)"/>
<path d="M987.012 799.099L993.385 780.471L975.802 771.41L964.598 787.548L950.777 780.087L1011.86 693.851L1035.22 705.885L1000.64 805.951L987.012 799.099ZM984.394 759.021L998.353 766.214L1016.76 713.359L1017.38 711.814L984.394 759.021Z" fill="url(#paint95_linear_2_3456)"/>
<path d="M924.319 -142.771L924.621 -127.671L884.608 -127.067L884.306 -142.016L924.319 -142.771Z" fill="url(#paint96_linear_2_3456)"/>
<path d="M924.319 31.2294L924.621 46.3286L884.608 46.9326L884.306 31.9843L924.319 31.2294Z" fill="url(#paint97_linear_2_3456)"/>
<path d="M924.319 205.229L924.621 220.329L884.608 220.933L884.306 205.984L924.319 205.229Z" fill="url(#paint98_linear_2_3456)"/>
<path d="M924.319 379.229L924.621 394.329L884.608 394.933L884.306 379.984L924.319 379.229Z" fill="url(#paint99_linear_2_3456)"/>
<path d="M924.319 553.229L924.621 568.329L884.608 568.933L884.306 553.984L924.319 553.229Z" fill="url(#paint100_linear_2_3456)"/>
<path d="M924.319 727.229L924.621 742.329L884.608 742.933L884.306 727.984L924.319 727.229Z" fill="url(#paint101_linear_2_3456)"/>
<path d="M1140.99 -199.091L1141.6 -94.151L1126.65 -94L1126.2 -183.539L1111.4 -99.1337H1095.85L1078.78 -183.539L1079.09 -94H1063.99L1063.69 -198.487L1089.2 -199.091L1103.09 -127.52L1115.17 -199.846L1140.99 -199.091Z" fill="url(#paint102_linear_2_3456)"/>
<path d="M1140.99 -25.0909L1141.6 79.849L1126.65 80L1126.2 -9.53868L1111.4 74.8662H1095.85L1078.78 -9.53868L1079.09 80H1063.99L1063.69 -24.487L1089.2 -25.0909L1103.09 46.4796L1115.17 -25.8459L1140.99 -25.0909Z" fill="url(#paint103_linear_2_3456)"/>
<path d="M1140.99 148.909L1141.6 253.849L1126.65 254L1126.2 164.461L1111.4 248.866H1095.85L1078.78 164.461L1079.09 254H1063.99L1063.69 149.513L1089.2 148.909L1103.09 220.48L1115.17 148.154L1140.99 148.909Z" fill="url(#paint104_linear_2_3456)"/>
<path d="M1140.99 322.909L1141.6 427.849L1126.65 428L1126.2 338.461L1111.4 422.866H1095.85L1078.78 338.461L1079.09 428H1063.99L1063.69 323.513L1089.2 322.909L1103.09 394.48L1115.17 322.154L1140.99 322.909Z" fill="url(#paint105_linear_2_3456)"/>
<path d="M1140.99 496.909L1141.6 601.849L1126.65 602L1126.2 512.461L1111.4 596.866H1095.85L1078.78 512.461L1079.09 602H1063.99L1063.69 497.513L1089.2 496.909L1103.09 568.48L1115.17 496.154L1140.99 496.909Z" fill="url(#paint106_linear_2_3456)"/>
<path d="M1140.99 670.909L1141.6 775.849L1126.65 776L1126.2 686.461L1111.4 770.866H1095.85L1078.78 686.461L1079.09 776H1063.99L1063.69 671.513L1089.2 670.909L1103.09 742.48L1115.17 670.154L1140.99 670.909Z" fill="url(#paint107_linear_2_3456)"/>
<path d="M1297.67 -70.901L1304.04 -89.5295L1286.46 -98.5901L1275.25 -82.4516L1261.43 -89.9132L1322.52 -176.149L1345.87 -164.115L1311.29 -64.0495L1297.67 -70.901ZM1295.05 -110.979L1309.01 -103.786L1327.41 -156.641L1328.04 -158.186L1295.05 -110.979Z" fill="url(#paint108_linear_2_3456)"/>
<path d="M1297.67 103.099L1304.04 84.4705L1286.46 75.4099L1275.25 91.5484L1261.43 84.0868L1322.52 -2.14934L1345.87 9.88544L1311.29 109.951L1297.67 103.099ZM1295.05 63.0213L1309.01 70.2144L1327.41 17.3592L1328.04 15.8136L1295.05 63.0213Z" fill="url(#paint109_linear_2_3456)"/>
<path d="M1297.67 277.099L1304.04 258.471L1286.46 249.41L1275.25 265.548L1261.43 258.087L1322.52 171.851L1345.87 183.885L1311.29 283.951L1297.67 277.099ZM1295.05 237.021L1309.01 244.214L1327.41 191.359L1328.04 189.814L1295.05 237.021Z" fill="url(#paint110_linear_2_3456)"/>
<path d="M1297.67 451.099L1304.04 432.471L1286.46 423.41L1275.25 439.548L1261.43 432.087L1322.52 345.851L1345.87 357.885L1311.29 457.951L1297.67 451.099ZM1295.05 411.021L1309.01 418.214L1327.41 365.359L1328.04 363.814L1295.05 411.021Z" fill="url(#paint111_linear_2_3456)"/>
<path d="M1297.67 625.099L1304.04 606.471L1286.46 597.41L1275.25 613.548L1261.43 606.087L1322.52 519.851L1345.87 531.885L1311.29 631.951L1297.67 625.099ZM1295.05 585.021L1309.01 592.214L1327.41 539.359L1328.04 537.814L1295.05 585.021Z" fill="url(#paint112_linear_2_3456)"/>
<path d="M1297.67 799.099L1304.04 780.471L1286.46 771.41L1275.25 787.548L1261.43 780.087L1322.52 693.851L1345.87 705.885L1311.29 805.951L1297.67 799.099ZM1295.05 759.021L1309.01 766.214L1327.41 713.359L1328.04 711.814L1295.05 759.021Z" fill="url(#paint113_linear_2_3456)"/>
<path d="M1234.98 -142.771L1235.28 -127.671L1195.26 -127.067L1194.96 -142.016L1234.98 -142.771Z" fill="url(#paint114_linear_2_3456)"/>
<path d="M1234.98 31.2294L1235.28 46.3286L1195.26 46.9326L1194.96 31.9843L1234.98 31.2294Z" fill="url(#paint115_linear_2_3456)"/>
<path d="M1234.98 205.229L1235.28 220.329L1195.26 220.933L1194.96 205.984L1234.98 205.229Z" fill="url(#paint116_linear_2_3456)"/>
<path d="M1234.98 379.229L1235.28 394.329L1195.26 394.933L1194.96 379.984L1234.98 379.229Z" fill="url(#paint117_linear_2_3456)"/>
<path d="M1234.98 553.229L1235.28 568.329L1195.26 568.933L1194.96 553.984L1234.98 553.229Z" fill="url(#paint118_linear_2_3456)"/>
<path d="M1234.98 727.229L1235.28 742.329L1195.26 742.933L1194.96 727.984L1234.98 727.229Z" fill="url(#paint119_linear_2_3456)"/>
<path d="M1451.63 -199.091L1452.24 -94.151L1437.29 -94L1436.84 -183.539L1422.04 -99.1337H1406.49L1389.43 -183.539L1389.73 -94H1374.63L1374.33 -198.487L1399.84 -199.091L1413.74 -127.52L1425.81 -199.846L1451.63 -199.091Z" fill="url(#paint120_linear_2_3456)"/>
<path d="M1451.63 -25.0909L1452.24 79.849L1437.29 80L1436.84 -9.53868L1422.04 74.8662H1406.49L1389.43 -9.53868L1389.73 80H1374.63L1374.33 -24.487L1399.84 -25.0909L1413.74 46.4796L1425.81 -25.8459L1451.63 -25.0909Z" fill="url(#paint121_linear_2_3456)"/>
<path d="M1451.63 148.909L1452.24 253.849L1437.29 254L1436.84 164.461L1422.04 248.866H1406.49L1389.43 164.461L1389.73 254H1374.63L1374.33 149.513L1399.84 148.909L1413.74 220.48L1425.81 148.154L1451.63 148.909Z" fill="url(#paint122_linear_2_3456)"/>
<path d="M1451.63 322.909L1452.24 427.849L1437.29 428L1436.84 338.461L1422.04 422.866H1406.49L1389.43 338.461L1389.73 428H1374.63L1374.33 323.513L1399.84 322.909L1413.74 394.48L1425.81 322.154L1451.63 322.909Z" fill="url(#paint123_linear_2_3456)"/>
<path d="M1451.63 496.909L1452.24 601.849L1437.29 602L1436.84 512.461L1422.04 596.866H1406.49L1389.43 512.461L1389.73 602H1374.63L1374.33 497.513L1399.84 496.909L1413.74 568.48L1425.81 496.154L1451.63 496.909Z" fill="url(#paint124_linear_2_3456)"/>
<path d="M1451.63 670.909L1452.24 775.849L1437.29 776L1436.84 686.461L1422.04 770.866H1406.49L1389.43 686.461L1389.73 776H1374.63L1374.33 671.513L1399.84 670.909L1413.74 742.48L1425.81 670.154L1451.63 670.909Z" fill="url(#paint125_linear_2_3456)"/>
<path d="M1603.79 -70.901L1610.17 -89.5295L1592.58 -98.5901L1581.38 -82.4516L1567.56 -89.9132L1628.64 -176.149L1652 -164.115L1617.42 -64.0495L1603.79 -70.901ZM1601.18 -110.979L1615.13 -103.786L1633.54 -156.641L1634.17 -158.186L1601.18 -110.979Z" fill="url(#paint126_linear_2_3456)"/>
<path d="M1603.79 103.099L1610.17 84.4705L1592.58 75.4099L1581.38 91.5484L1567.56 84.0868L1628.64 -2.14934L1652 9.88544L1617.42 109.951L1603.79 103.099ZM1601.18 63.0213L1615.13 70.2144L1633.54 17.3592L1634.17 15.8136L1601.18 63.0213Z" fill="url(#paint127_linear_2_3456)"/>
<path d="M1603.79 277.099L1610.17 258.471L1592.58 249.41L1581.38 265.548L1567.56 258.087L1628.64 171.851L1652 183.885L1617.42 283.951L1603.79 277.099ZM1601.18 237.021L1615.13 244.214L1633.54 191.359L1634.17 189.814L1601.18 237.021Z" fill="url(#paint128_linear_2_3456)"/>
<path d="M1603.79 451.099L1610.17 432.471L1592.58 423.41L1581.38 439.548L1567.56 432.087L1628.64 345.851L1652 357.885L1617.42 457.951L1603.79 451.099ZM1601.18 411.021L1615.13 418.214L1633.54 365.359L1634.17 363.814L1601.18 411.021Z" fill="url(#paint129_linear_2_3456)"/>
<path d="M1603.79 625.099L1610.17 606.471L1592.58 597.41L1581.38 613.548L1567.56 606.087L1628.64 519.851L1652 531.885L1617.42 631.951L1603.79 625.099ZM1601.18 585.021L1615.13 592.214L1633.54 539.359L1634.17 537.814L1601.18 585.021Z" fill="url(#paint130_linear_2_3456)"/>
<path d="M1603.79 799.099L1610.17 780.471L1592.58 771.41L1581.38 787.548L1567.56 780.087L1628.64 693.851L1652 705.885L1617.42 805.951L1603.79 799.099ZM1601.18 759.021L1615.13 766.214L1633.54 713.359L1634.17 711.814L1601.18 759.021Z" fill="url(#paint131_linear_2_3456)"/>
<path d="M1541.09 -142.771L1541.39 -127.671L1501.38 -127.067L1501.08 -142.016L1541.09 -142.771Z" fill="url(#paint132_linear_2_3456)"/>
<path d="M1541.09 31.2294L1541.39 46.3286L1501.38 46.9326L1501.08 31.9843L1541.09 31.2294Z" fill="url(#paint133_linear_2_3456)"/>
<path d="M1541.09 205.229L1541.39 220.329L1501.38 220.933L1501.08 205.984L1541.09 205.229Z" fill="url(#paint134_linear_2_3456)"/>
<path d="M1541.09 379.229L1541.39 394.329L1501.38 394.933L1501.08 379.984L1541.09 379.229Z" fill="url(#paint135_linear_2_3456)"/>
<path d="M1541.09 553.229L1541.39 568.329L1501.38 568.933L1501.08 553.984L1541.09 553.229Z" fill="url(#paint136_linear_2_3456)"/>
<path d="M1541.09 727.229L1541.39 742.329L1501.38 742.933L1501.08 727.984L1541.09 727.229Z" fill="url(#paint137_linear_2_3456)"/>
<path d="M1757.75 -199.091L1758.36 -94.151L1743.41 -94L1742.95 -183.539L1728.16 -99.1337H1712.6L1695.54 -183.539L1695.84 -94H1680.75L1680.44 -198.487L1705.96 -199.091L1719.85 -127.52L1731.93 -199.846L1757.75 -199.091Z" fill="url(#paint138_linear_2_3456)"/>
<path d="M1757.75 -25.0909L1758.36 79.849L1743.41 80L1742.95 -9.53868L1728.16 74.8662H1712.6L1695.54 -9.53868L1695.84 80H1680.75L1680.44 -24.487L1705.96 -25.0909L1719.85 46.4796L1731.93 -25.8459L1757.75 -25.0909Z" fill="url(#paint139_linear_2_3456)"/>
<path d="M1757.75 148.909L1758.36 253.849L1743.41 254L1742.95 164.461L1728.16 248.866H1712.6L1695.54 164.461L1695.84 254H1680.75L1680.44 149.513L1705.96 148.909L1719.85 220.48L1731.93 148.154L1757.75 148.909Z" fill="url(#paint140_linear_2_3456)"/>
<path d="M1757.75 322.909L1758.36 427.849L1743.41 428L1742.95 338.461L1728.16 422.866H1712.6L1695.54 338.461L1695.84 428H1680.75L1680.44 323.513L1705.96 322.909L1719.85 394.48L1731.93 322.154L1757.75 322.909Z" fill="url(#paint141_linear_2_3456)"/>
<path d="M1757.75 496.909L1758.36 601.849L1743.41 602L1742.95 512.461L1728.16 596.866H1712.6L1695.54 512.461L1695.84 602H1680.75L1680.44 497.513L1705.96 496.909L1719.85 568.48L1731.93 496.154L1757.75 496.909Z" fill="url(#paint142_linear_2_3456)"/>
<path d="M1757.75 670.909L1758.36 775.849L1743.41 776L1742.95 686.461L1728.16 770.866H1712.6L1695.54 686.461L1695.84 776H1680.75L1680.44 671.513L1705.96 670.909L1719.85 742.48L1731.93 670.154L1757.75 670.909Z" fill="url(#paint143_linear_2_3456)"/>
<path d="M1934.85 -70.901L1941.22 -89.5295L1923.64 -98.5901L1912.43 -82.4516L1898.61 -89.9132L1959.7 -176.149L1983.05 -164.115L1948.47 -64.0495L1934.85 -70.901ZM1932.23 -110.979L1946.19 -103.786L1964.59 -156.641L1965.22 -158.186L1932.23 -110.979Z" fill="url(#paint144_linear_2_3456)"/>
<path d="M1934.85 103.099L1941.22 84.4705L1923.64 75.4099L1912.43 91.5484L1898.61 84.0868L1959.7 -2.14934L1983.05 9.88544L1948.47 109.951L1934.85 103.099ZM1932.23 63.0213L1946.19 70.2144L1964.59 17.3592L1965.22 15.8136L1932.23 63.0213Z" fill="url(#paint145_linear_2_3456)"/>
<path d="M1934.85 277.099L1941.22 258.471L1923.64 249.41L1912.43 265.548L1898.61 258.087L1959.7 171.851L1983.05 183.885L1948.47 283.951L1934.85 277.099ZM1932.23 237.021L1946.19 244.214L1964.59 191.359L1965.22 189.814L1932.23 237.021Z" fill="url(#paint146_linear_2_3456)"/>
<path d="M1934.85 451.099L1941.22 432.471L1923.64 423.41L1912.43 439.548L1898.61 432.087L1959.7 345.851L1983.05 357.885L1948.47 457.951L1934.85 451.099ZM1932.23 411.021L1946.19 418.214L1964.59 365.359L1965.22 363.814L1932.23 411.021Z" fill="url(#paint147_linear_2_3456)"/>
<path d="M1934.85 625.099L1941.22 606.471L1923.64 597.41L1912.43 613.548L1898.61 606.087L1959.7 519.851L1983.05 531.885L1948.47 631.951L1934.85 625.099ZM1932.23 585.021L1946.19 592.214L1964.59 539.359L1965.22 537.814L1932.23 585.021Z" fill="url(#paint148_linear_2_3456)"/>
<path d="M1934.85 799.099L1941.22 780.471L1923.64 771.41L1912.43 787.548L1898.61 780.087L1959.7 693.851L1983.05 705.885L1948.47 805.951L1934.85 799.099ZM1932.23 759.021L1946.19 766.214L1964.59 713.359L1965.22 711.814L1932.23 759.021Z" fill="url(#paint149_linear_2_3456)"/>
<path d="M1872.15 -142.771L1872.45 -127.671L1832.44 -127.067L1832.13 -142.016L1872.15 -142.771Z" fill="url(#paint150_linear_2_3456)"/>
<path d="M1872.15 31.2294L1872.45 46.3286L1832.44 46.9326L1832.13 31.9843L1872.15 31.2294Z" fill="url(#paint151_linear_2_3456)"/>
<path d="M1872.15 205.229L1872.45 220.329L1832.44 220.933L1832.13 205.984L1872.15 205.229Z" fill="url(#paint152_linear_2_3456)"/>
<path d="M1872.15 379.229L1872.45 394.329L1832.44 394.933L1832.13 379.984L1872.15 379.229Z" fill="url(#paint153_linear_2_3456)"/>
<path d="M1872.15 553.229L1872.45 568.329L1832.44 568.933L1832.13 553.984L1872.15 553.229Z" fill="url(#paint154_linear_2_3456)"/>
<path d="M1872.15 727.229L1872.45 742.329L1832.44 742.933L1832.13 727.984L1872.15 727.229Z" fill="url(#paint155_linear_2_3456)"/>
<path d="M2088.81 -199.091L2089.42 -94.151L2074.47 -94L2074.02 -183.539L2059.22 -99.1337H2043.67L2026.61 -183.539L2026.91 -94H2011.81L2011.51 -198.487L2037.02 -199.091L2050.92 -127.52L2062.99 -199.846L2088.81 -199.091Z" fill="url(#paint156_linear_2_3456)"/>
<path d="M2088.81 -25.0909L2089.42 79.849L2074.47 80L2074.02 -9.53868L2059.22 74.8662H2043.67L2026.61 -9.53868L2026.91 80H2011.81L2011.51 -24.487L2037.02 -25.0909L2050.92 46.4796L2062.99 -25.8459L2088.81 -25.0909Z" fill="url(#paint157_linear_2_3456)"/>
<path d="M2088.81 148.909L2089.42 253.849L2074.47 254L2074.02 164.461L2059.22 248.866H2043.67L2026.61 164.461L2026.91 254H2011.81L2011.51 149.513L2037.02 148.909L2050.92 220.48L2062.99 148.154L2088.81 148.909Z" fill="url(#paint158_linear_2_3456)"/>
<path d="M2088.81 322.909L2089.42 427.849L2074.47 428L2074.02 338.461L2059.22 422.866H2043.67L2026.61 338.461L2026.91 428H2011.81L2011.51 323.513L2037.02 322.909L2050.92 394.48L2062.99 322.154L2088.81 322.909Z" fill="url(#paint159_linear_2_3456)"/>
<path d="M2088.81 496.909L2089.42 601.849L2074.47 602L2074.02 512.461L2059.22 596.866H2043.67L2026.61 512.461L2026.91 602H2011.81L2011.51 497.513L2037.02 496.909L2050.92 568.48L2062.99 496.154L2088.81 496.909Z" fill="url(#paint160_linear_2_3456)"/>
<path d="M2088.81 670.909L2089.42 775.849L2074.47 776L2074.02 686.461L2059.22 770.866H2043.67L2026.61 686.461L2026.91 776H2011.81L2011.51 671.513L2037.02 670.909L2050.92 742.48L2062.99 670.154L2088.81 670.909Z" fill="url(#paint161_linear_2_3456)"/>
</g>
</g>
<path opacity="0.4" d="M52 202.939C93.2177 189.014 138.207 183.463 181.411 180.346C205.334 178.62 270.54 172.789 294.5 174.5" stroke="#F1A906" stroke-width="11" stroke-linecap="round"/>
<path d="M85.192 99.728V106.928H52.144V99.728H56.608C60.784 87.56 61 60.704 61 60.416V56.816L81.592 57.032L81.232 99.728H85.192ZM68.056 64.016C67.912 71.504 67.12 88.784 64.096 99.728H74.032L74.392 64.088L68.056 64.016ZM107.614 106.856L106.246 97.568H96.8144L95.5904 106.856L88.1024 106.712L95.1584 56.816H107.686L114.886 106.784L107.614 106.856ZM97.7504 90.44H105.238L101.494 64.016L101.422 63.224L97.7504 90.44ZM140.168 82.16C142.904 84.824 144.488 88.424 144.488 92.168C144.488 96.2 142.76 99.872 139.592 102.536C136.28 105.416 131.6 106.928 125.984 106.928H120.008L119.432 57.536L123.68 57.176C133.904 55.736 138.584 59.984 140.528 62.648C143.264 66.464 143.552 71.576 141.32 75.968C140.456 77.696 139.232 79.208 137.792 80.36C138.656 80.864 139.448 81.512 140.168 82.16ZM126.632 64.088L126.776 77.336L128.36 77.264C131.384 77.264 133.904 75.68 134.984 72.728C135.704 70.64 135.848 68.48 134.696 66.824C133.256 64.88 130.376 63.872 126.632 64.088ZM134.984 97.064C136.496 95.768 137.36 94.04 137.36 92.168C137.36 87.488 132.824 83.528 128.432 83.528H126.92L127.064 99.728C130.448 99.512 133.112 98.648 134.984 97.064ZM167.239 106.856L165.871 97.568H156.439L155.215 106.856L147.727 106.712L154.783 56.816H167.311L174.511 106.784L167.239 106.856ZM157.375 90.44H164.863L161.119 64.016L161.047 63.224L157.375 90.44ZM204.041 57.104L204.113 107H196.913V74.744L186.977 106.496H179.345V57.392H186.473V89L196.697 57.104H204.041ZM197.921 52.496L185.609 54.152L184.673 47.024L196.985 45.44L197.921 52.496ZM231.939 64.016L223.443 64.088L224.091 106.64L216.891 106.784L216.315 64.232L207.963 64.304L207.891 57.104L231.867 56.888L231.939 64.016ZM258.772 99.512L258.844 106.712L235.948 107L235.66 57.32H257.332V64.448H242.86L242.932 74.6L253.876 74.384L254.02 81.512L242.932 81.728L243.076 99.728L258.772 99.512ZM299.978 58.616C304.01 62.288 305.81 69.2 305.81 80.36C305.81 93.536 303.434 102.176 298.61 106.136C296.81 107.576 294.65 108.368 292.418 108.368C291.77 108.368 291.122 108.296 290.474 108.152C287.882 107.648 284.282 105.704 281.69 99.224C279.818 94.472 278.882 88.136 278.882 80.36C278.882 72.944 279.674 67.4 281.402 63.512C283.994 57.824 288.17 56.24 291.266 55.952C294.722 55.592 297.674 56.528 299.978 58.616ZM294.074 100.592C298.322 97.064 298.682 84.248 298.682 80.36C298.682 68.84 296.45 65.096 295.154 63.944C294.65 63.44 293.786 62.936 291.914 63.08C290.474 63.224 286.01 63.656 286.01 80.36C286.01 94.688 289.61 100.736 291.914 101.168C292.706 101.312 293.354 101.168 294.074 100.592ZM328.955 88.424H336.155C336.155 90.44 335.939 95.696 334.067 100.304C331.979 105.488 328.307 108.296 323.771 108.296C317.579 108.296 314.483 103.184 313.259 100.088C311.387 95.768 310.523 89.72 310.523 82.088C310.523 74.816 311.171 69.2 312.539 65.024C315.203 57.104 320.027 55.448 323.627 55.448C326.723 55.448 329.387 56.6 331.331 58.76C334.571 62.216 335.723 67.976 335.075 76.328L327.875 75.68C328.595 67.688 327.083 64.664 326.075 63.584C325.715 63.224 324.995 62.648 323.627 62.648C320.891 62.648 319.811 65.888 319.379 67.256C318.227 70.64 317.651 75.68 317.651 82.088C317.651 93.68 320.027 101.168 323.771 101.168C326.003 101.168 327.083 98.504 327.443 97.64C328.379 95.264 328.955 91.808 328.955 88.424ZM362.65 64.016L354.154 64.088L354.802 106.64L347.602 106.784L347.026 64.232L338.674 64.304L338.602 57.104L362.578 56.888L362.65 64.016ZM381.2 106.856L379.832 97.568H370.4L369.176 106.856L361.688 106.712L368.744 56.816H381.272L388.472 106.784L381.2 106.856ZM371.336 90.44H378.824L375.08 64.016L375.008 63.224L371.336 90.44ZM413.754 82.16C416.49 84.824 418.074 88.424 418.074 92.168C418.074 96.2 416.346 99.872 413.178 102.536C409.866 105.416 405.186 106.928 399.57 106.928H393.594L393.018 57.536L397.266 57.176C407.49 55.736 412.17 59.984 414.114 62.648C416.85 66.464 417.138 71.576 414.906 75.968C414.042 77.696 412.818 79.208 411.378 80.36C412.242 80.864 413.034 81.512 413.754 82.16ZM400.218 64.088L400.362 77.336L401.946 77.264C404.97 77.264 407.49 75.68 408.57 72.728C409.29 70.64 409.434 68.48 408.282 66.824C406.842 64.88 403.962 63.872 400.218 64.088ZM408.57 97.064C410.082 95.768 410.946 94.04 410.946 92.168C410.946 87.488 406.41 83.528 402.018 83.528H400.506L400.65 99.728C404.034 99.512 406.698 98.648 408.57 97.064ZM440.825 106.856L439.457 97.568H430.025L428.801 106.856L421.313 106.712L428.369 56.816H440.897L448.097 106.784L440.825 106.856ZM430.961 90.44H438.449L434.705 64.016L434.633 63.224L430.961 90.44ZM471.072 64.016L462.576 64.088L463.224 106.64L456.024 106.784L455.448 64.232L447.096 64.304L447.024 57.104L471 56.888L471.072 64.016ZM494.953 79.136C498.769 84.968 499.057 92.816 495.529 98.72C492.505 103.904 487.033 106.784 480.481 106.784C479.833 106.784 479.185 106.712 478.537 106.712L475.297 106.424L474.649 56.888L481.777 56.816L481.993 72.152C487.393 72.296 492.001 74.744 494.953 79.136ZM489.337 95.12C491.425 91.592 491.281 86.552 488.977 83.168C487.825 81.368 485.737 79.496 482.065 79.28L482.353 99.512C485.521 99.08 487.897 97.568 489.337 95.12ZM519.924 88.424H527.124C527.124 90.44 526.908 95.696 525.036 100.304C522.948 105.488 519.276 108.296 514.74 108.296C508.548 108.296 505.452 103.184 504.228 100.088C502.356 95.768 501.492 89.72 501.492 82.088C501.492 74.816 502.14 69.2 503.508 65.024C506.172 57.104 510.996 55.448 514.596 55.448C517.691 55.448 520.355 56.6 522.3 58.76C525.54 62.216 526.692 67.976 526.044 76.328L518.844 75.68C519.564 67.688 518.052 64.664 517.044 63.584C516.684 63.224 515.964 62.648 514.596 62.648C511.86 62.648 510.78 65.888 510.348 67.256C509.196 70.64 508.62 75.68 508.62 82.088C508.62 93.68 510.996 101.168 514.74 101.168C516.972 101.168 518.052 98.504 518.412 97.64C519.348 95.264 519.924 91.808 519.924 88.424ZM549.96 55.952H557.016L556.728 106.856L549.528 106.784L549.672 89.648C548.736 89.648 547.584 89.648 546.288 89.432L537.72 106.64H529.728L539.736 87.416C538.8 86.912 537.864 86.264 537.072 85.544C533.544 82.592 531.816 78.272 531.744 72.8C531.672 67.832 533.256 63.8 536.28 60.776C541.392 55.88 548.952 55.952 549.96 55.952ZM549.672 82.52L549.816 63.152H549.744C549.744 63.152 549.672 63.152 549.6 63.152C548.664 63.152 544.056 63.224 541.248 65.96C539.664 67.544 538.872 69.776 538.944 72.728C538.944 76.112 539.88 78.488 541.68 80.144C544.128 82.232 547.656 82.52 549.672 82.52Z" fill="#37363F"/>
<path d="M73.168 126.032H80.368L80.224 176.216H73.096V156.128L62.584 156.488L62.8 176.216L55.6 176.288L55.096 126.104L62.224 126.032L62.512 149.36L73.168 149V126.032ZM104.661 175.856L103.293 166.568H93.8613L92.6373 175.856L85.1493 175.712L92.2053 125.816H104.733L111.933 175.784L104.661 175.856ZM94.7973 159.44H102.285L98.5413 133.016L98.4693 132.224L94.7973 159.44ZM150.502 157.424H157.702C157.702 159.44 157.486 164.696 155.614 169.304C153.526 174.488 149.854 177.296 145.318 177.296C139.126 177.296 136.03 172.184 134.806 169.088C132.934 164.768 132.07 158.72 132.07 151.088C132.07 143.816 132.718 138.2 134.086 134.024C136.75 126.104 141.574 124.448 145.174 124.448C148.27 124.448 150.934 125.6 152.878 127.76C156.118 131.216 157.27 136.976 156.622 145.328L149.422 144.68C150.142 136.688 148.63 133.664 147.622 132.584C147.262 132.224 146.542 131.648 145.174 131.648C142.438 131.648 141.358 134.888 140.926 136.256C139.774 139.64 139.198 144.68 139.198 151.088C139.198 162.68 141.574 170.168 145.318 170.168C147.55 170.168 148.63 167.504 148.99 166.64C149.926 164.264 150.502 160.808 150.502 157.424ZM183.621 151.16C186.357 153.824 187.941 157.424 187.941 161.168C187.941 165.2 186.213 168.872 183.045 171.536C179.733 174.416 175.053 175.928 169.437 175.928H163.461L162.885 126.536L167.133 126.176C177.357 124.736 182.037 128.984 183.981 131.648C186.717 135.464 187.005 140.576 184.773 144.968C183.909 146.696 182.685 148.208 181.245 149.36C182.109 149.864 182.901 150.512 183.621 151.16ZM170.085 133.088L170.229 146.336L171.813 146.264C174.837 146.264 177.357 144.68 178.437 141.728C179.157 139.64 179.301 137.48 178.149 135.824C176.709 133.88 173.829 132.872 170.085 133.088ZM178.437 166.064C179.949 164.768 180.813 163.04 180.813 161.168C180.813 156.488 176.277 152.528 171.885 152.528H170.373L170.517 168.728C173.901 168.512 176.565 167.648 178.437 166.064ZM210 124.952H217.056L216.768 175.856L209.568 175.784L209.712 158.648C208.776 158.648 207.624 158.648 206.328 158.432L197.76 175.64H189.768L199.776 156.416C198.84 155.912 197.904 155.264 197.112 154.544C193.584 151.592 191.856 147.272 191.784 141.8C191.712 136.832 193.296 132.8 196.32 129.776C201.432 124.88 208.992 124.952 210 124.952ZM209.712 151.52L209.855 132.152H209.784C209.784 132.152 209.712 132.152 209.64 132.152C208.704 132.152 204.096 132.224 201.288 134.96C199.704 136.544 198.912 138.776 198.984 141.728C198.984 145.112 199.92 147.488 201.72 149.144C204.168 151.232 207.695 151.52 209.712 151.52ZM245.166 149.576C248.118 152.744 249.486 157.496 249.126 162.752C248.334 171.824 243.294 177.296 235.446 177.296C229.902 177.296 226.662 174.848 224.862 172.832C222.702 170.312 221.478 166.928 221.334 163.04L228.462 162.752C228.534 164.984 229.182 166.856 230.262 168.08C231.414 169.448 233.142 170.096 235.446 170.096C236.886 170.096 241.35 170.096 241.926 162.176C242.43 155.84 239.55 151.448 234.294 151.448H230.694V144.824L234.15 144.68C241.134 144.68 241.71 138.992 241.638 137.552C241.422 132.368 236.31 131.936 235.302 131.936C233.79 131.864 231.414 132.296 228.966 136.112L222.918 132.224C226.95 125.888 231.99 124.664 235.518 124.736C241.638 124.952 248.406 128.912 248.838 137.192C248.982 140.576 247.83 143.816 245.454 146.408C244.878 146.984 244.23 147.56 243.582 148.136C244.158 148.568 244.662 149 245.166 149.576ZM279.555 126.104L279.627 176H272.427V143.744L262.491 175.496H254.859V126.392H261.987V158L272.211 126.104H279.555Z" fill="#F1A906"/>
<path d="M858.478 466.209L943.81 336.005C949.049 328.012 946.536 317.262 938.297 312.419L931.706 308.545M931.706 308.545C946.286 275.218 977.783 242.909 977.368 215.571C976.849 181.397 955.955 130.108 942.037 146.554C930.902 159.71 944.87 193.499 941.008 200.702C929.167 155.686 922.12 73.3061 901.827 76.838C894.481 78.1167 892.122 88.8194 890.291 97.8421M931.706 308.545L842.779 284.682C841.684 284.352 837.804 282.941 833.466 281.713M895.621 168.149C892.268 154.193 887.064 113.742 890.291 97.8421M890.291 97.8421C885.52 70.1114 853.354 50.4879 854.126 85.9562C854.898 121.425 859.59 150.645 862.024 162.604M854.295 91.9436C847.921 80.591 829.497 69.5191 826.815 94.775C824.133 120.031 838.862 188.409 853.939 264.785L833.466 281.713M717.075 364.286C735.354 355.197 791.551 306.173 801.983 296.691C812.415 287.21 814.484 283.994 819.527 280.472C821.779 278.9 827.987 280.161 833.466 281.713" stroke="#117031" stroke-width="3.58388" stroke-linecap="round" stroke-linejoin="round"/>
<path d="M849.341 80.3217C847.827 71.4706 845.921 60.654 851.089 56.3206C854.75 53.2502 860.347 51.0355 865.122 52.3813C871.371 54.1425 875.685 60.018 878.49 65.5334C878.641 65.8297 880.9 71.6558 881.311 71.5669C882.121 71.3915 882.013 58.518 882.201 57.3309C882.99 52.3527 885.952 47.9051 891.626 48.9251C906.329 56.4358 907.46 82.5377 912.051 81.0661C912.166 81.0294 909.6 61.2014 909.847 59.6761C910.326 56.7206 913.207 47.4269 923.105 52.3911C925.383 52.5112 927.528 55.0849 928.933 56.596C932.602 60.543 934.649 65.3294 936.383 70.3806C938.66 77.0192 940.667 83.8338 942.236 90.6764C946.871 110.886 951.738 131.021 956.629 151.165" stroke="#117031" stroke-width="3.58388" stroke-linecap="round"/>
<path d="M968.96 167.847C967.863 158.613 966.555 149.293 966.678 139.975C966.761 133.611 968.382 127.653 975.502 126.621C982.531 125.603 987.629 136.012 990.282 140.716C1000.07 158.068 1005.81 177.314 1009.79 196.733C1010.65 200.923 1012.29 209.895 1012.96 214.269C1013.6 218.448 1014.38 222.847 1013.53 227.062C1012.43 232.502 1009.28 243.14 1005.86 247.339" stroke="#117031" stroke-width="3.58388" stroke-linecap="round"/>
<path d="M948.363 277.884C956.065 283.226 962.751 285.819 972.192 288.913C984.169 292.837 1005.19 293.997 1016.55 286.975" stroke="#117031" stroke-width="3.58388" stroke-linecap="round"/>
<path d="M1013.13 229.46C1021.53 243.106 1027.5 257.915 1031.96 273.297C1034.37 281.61 1036.22 290.138 1037.52 298.696C1037.89 301.105 1039.2 306.327 1037.31 308.692C1034.64 312.021 1027.9 309.452 1025.42 307.277C1022.82 304.994 1021.01 301.871 1019.23 298.951C1018.18 297.23 1014 291.674 1013.24 289.814C1012.12 287.071 1030.81 284.571 1032.45 283.912" stroke="#117031" stroke-width="3.58388" stroke-linecap="round"/>
<path d="M1012.47 191.54C1057.15 182.93 1100.07 168.039 1141.59 149.534C1152.42 144.708 1162.99 139.369 1173.79 134.475C1174.67 134.077 1177.37 133.145 1176.41 133.244" stroke="#117031" stroke-width="3.58388" stroke-linecap="round"/>
<path d="M1047.63 310.894C1097.01 300.197 1147.21 292.9 1191.43 267.033" stroke="#117031" stroke-width="3.58388" stroke-linecap="round"/>
<path d="M806.095 52.5224C799.143 44.6439 790.9 37.9201 783.073 30.9397" stroke="#117031" stroke-width="3" stroke-linecap="round"/>
<path d="M794.584 68.3497C780.013 66.0238 766.145 62.1187 752.138 57.5583" stroke="#117031" stroke-width="3" stroke-linecap="round"/>
<path d="M789.548 90.6518C777.792 95.9143 766.043 101.193 754.297 106.479" stroke="#117031" stroke-width="3" stroke-linecap="round"/>
<path d="M1125.89 363.552C1114.5 368.116 1105.85 370.828 1093.81 366.005C1088.29 363.793 1078.85 358.49 1080.06 350.849C1080.76 346.466 1090.13 337.644 1092.19 345.869C1096.68 363.821 1061.33 375.585 1054.44 358.355" stroke="#117031" stroke-width="3" stroke-linecap="round"/>
</g>
<defs>
<linearGradient id="paint0_linear_2_3456" x1="2108.5" y1="-200" x2="-676" y2="731.5" gradientUnits="userSpaceOnUse">
<stop stop-color="white"/>
<stop offset="1" stop-color="white" stop-opacity="0"/>
</linearGradient>
<linearGradient id="paint1_linear_2_3456" x1="2108.5" y1="-200" x2="-676" y2="731.5" gradientUnits="userSpaceOnUse">
<stop stop-color="white"/>
<stop offset="1" stop-color="white" stop-opacity="0"/>
</linearGradient>
<linearGradient id="paint2_linear_2_3456" x1="2108.5" y1="-200" x2="-676" y2="731.5" gradientUnits="userSpaceOnUse">
<stop stop-color="white"/>
<stop offset="1" stop-color="white" stop-opacity="0"/>
</linearGradient>
<linearGradient id="paint3_linear_2_3456" x1="2108.5" y1="-200" x2="-676" y2="731.5" gradientUnits="userSpaceOnUse">
<stop stop-color="white"/>
<stop offset="1" stop-color="white" stop-opacity="0"/>
</linearGradient>
<linearGradient id="paint4_linear_2_3456" x1="2108.5" y1="-200" x2="-676" y2="731.5" gradientUnits="userSpaceOnUse">
<stop stop-color="white"/>
<stop offset="1" stop-color="white" stop-opacity="0"/>
</linearGradient>
<linearGradient id="paint5_linear_2_3456" x1="2108.5" y1="-200" x2="-676" y2="731.5" gradientUnits="userSpaceOnUse">
<stop stop-color="white"/>
<stop offset="1" stop-color="white" stop-opacity="0"/>
</linearGradient>
<linearGradient id="paint6_linear_2_3456" x1="2108.5" y1="-200" x2="-676" y2="731.5" gradientUnits="userSpaceOnUse">
<stop stop-color="white"/>
<stop offset="1" stop-color="white" stop-opacity="0"/>
</linearGradient>
<linearGradient id="paint7_linear_2_3456" x1="2108.5" y1="-200" x2="-676" y2="731.5" gradientUnits="userSpaceOnUse">
<stop stop-color="white"/>
<stop offset="1" stop-color="white" stop-opacity="0"/>
</linearGradient>
<linearGradient id="paint8_linear_2_3456" x1="2108.5" y1="-200" x2="-676" y2="731.5" gradientUnits="userSpaceOnUse">
<stop stop-color="white"/>
<stop offset="1" stop-color="white" stop-opacity="0"/>
</linearGradient>
<linearGradient id="paint9_linear_2_3456" x1="2108.5" y1="-200" x2="-676" y2="731.5" gradientUnits="userSpaceOnUse">
<stop stop-color="white"/>
<stop offset="1" stop-color="white" stop-opacity="0"/>
</linearGradient>
<linearGradient id="paint10_linear_2_3456" x1="2108.5" y1="-200" x2="-676" y2="731.5" gradientUnits="userSpaceOnUse">
<stop stop-color="white"/>
<stop offset="1" stop-color="white" stop-opacity="0"/>
</linearGradient>
<linearGradient id="paint11_linear_2_3456" x1="2108.5" y1="-200" x2="-676" y2="731.5" gradientUnits="userSpaceOnUse">
<stop stop-color="white"/>
<stop offset="1" stop-color="white" stop-opacity="0"/>
</linearGradient>
<linearGradient id="paint12_linear_2_3456" x1="2108.5" y1="-200" x2="-676" y2="731.5" gradientUnits="userSpaceOnUse">
<stop stop-color="white"/>
<stop offset="1" stop-color="white" stop-opacity="0"/>
</linearGradient>
<linearGradient id="paint13_linear_2_3456" x1="2108.5" y1="-200" x2="-676" y2="731.5" gradientUnits="userSpaceOnUse">
<stop stop-color="white"/>
<stop offset="1" stop-color="white" stop-opacity="0"/>
</linearGradient>
<linearGradient id="paint14_linear_2_3456" x1="2108.5" y1="-200" x2="-676" y2="731.5" gradientUnits="userSpaceOnUse">
<stop stop-color="white"/>
<stop offset="1" stop-color="white" stop-opacity="0"/>
</linearGradient>
<linearGradient id="paint15_linear_2_3456" x1="2108.5" y1="-200" x2="-676" y2="731.5" gradientUnits="userSpaceOnUse">
<stop stop-color="white"/>
<stop offset="1" stop-color="white" stop-opacity="0"/>
</linearGradient>
<linearGradient id="paint16_linear_2_3456" x1="2108.5" y1="-200" x2="-676" y2="731.5" gradientUnits="userSpaceOnUse">
<stop stop-color="white"/>
<stop offset="1" stop-color="white" stop-opacity="0"/>
</linearGradient>
<linearGradient id="paint17_linear_2_3456" x1="2108.5" y1="-200" x2="-676" y2="731.5" gradientUnits="userSpaceOnUse">
<stop stop-color="white"/>
<stop offset="1" stop-color="white" stop-opacity="0"/>
</linearGradient>
<linearGradient id="paint18_linear_2_3456" x1="2108.5" y1="-200" x2="-676" y2="731.5" gradientUnits="userSpaceOnUse">
<stop stop-color="white"/>
<stop offset="1" stop-color="white" stop-opacity="0"/>
</linearGradient>
<linearGradient id="paint19_linear_2_3456" x1="2108.5" y1="-200" x2="-676" y2="731.5" gradientUnits="userSpaceOnUse">
<stop stop-color="white"/>
<stop offset="1" stop-color="white" stop-opacity="0"/>
</linearGradient>
<linearGradient id="paint20_linear_2_3456" x1="2108.5" y1="-200" x2="-676" y2="731.5" gradientUnits="userSpaceOnUse">
<stop stop-color="white"/>
<stop offset="1" stop-color="white" stop-opacity="0"/>
</linearGradient>
<linearGradient id="paint21_linear_2_3456" x1="2108.5" y1="-200" x2="-676" y2="731.5" gradientUnits="userSpaceOnUse">
<stop stop-color="white"/>
<stop offset="1" stop-color="white" stop-opacity="0"/>
</linearGradient>
<linearGradient id="paint22_linear_2_3456" x1="2108.5" y1="-200" x2="-676" y2="731.5" gradientUnits="userSpaceOnUse">
<stop stop-color="white"/>
<stop offset="1" stop-color="white" stop-opacity="0"/>
</linearGradient>
<linearGradient id="paint23_linear_2_3456" x1="2108.5" y1="-200" x2="-676" y2="731.5" gradientUnits="userSpaceOnUse">
<stop stop-color="white"/>
<stop offset="1" stop-color="white" stop-opacity="0"/>
</linearGradient>
<linearGradient id="paint24_linear_2_3456" x1="2108.5" y1="-200" x2="-676" y2="731.5" gradientUnits="userSpaceOnUse">
<stop stop-color="white"/>
<stop offset="1" stop-color="white" stop-opacity="0"/>
</linearGradient>
<linearGradient id="paint25_linear_2_3456" x1="2108.5" y1="-200" x2="-676" y2="731.5" gradientUnits="userSpaceOnUse">
<stop stop-color="white"/>
<stop offset="1" stop-color="white" stop-opacity="0"/>
</linearGradient>
<linearGradient id="paint26_linear_2_3456" x1="2108.5" y1="-200" x2="-676" y2="731.5" gradientUnits="userSpaceOnUse">
<stop stop-color="white"/>
<stop offset="1" stop-color="white" stop-opacity="0"/>
</linearGradient>
<linearGradient id="paint27_linear_2_3456" x1="2108.5" y1="-200" x2="-676" y2="731.5" gradientUnits="userSpaceOnUse">
<stop stop-color="white"/>
<stop offset="1" stop-color="white" stop-opacity="0"/>
</linearGradient>
<linearGradient id="paint28_linear_2_3456" x1="2108.5" y1="-200" x2="-676" y2="731.5" gradientUnits="userSpaceOnUse">
<stop stop-color="white"/>
<stop offset="1" stop-color="white" stop-opacity="0"/>
</linearGradient>
<linearGradient id="paint29_linear_2_3456" x1="2108.5" y1="-200" x2="-676" y2="731.5" gradientUnits="userSpaceOnUse">
<stop stop-color="white"/>
<stop offset="1" stop-color="white" stop-opacity="0"/>
</linearGradient>
<linearGradient id="paint30_linear_2_3456" x1="2108.5" y1="-200" x2="-676" y2="731.5" gradientUnits="userSpaceOnUse">
<stop stop-color="white"/>
<stop offset="1" stop-color="white" stop-opacity="0"/>
</linearGradient>
<linearGradient id="paint31_linear_2_3456" x1="2108.5" y1="-200" x2="-676" y2="731.5" gradientUnits="userSpaceOnUse">
<stop stop-color="white"/>
<stop offset="1" stop-color="white" stop-opacity="0"/>
</linearGradient>
<linearGradient id="paint32_linear_2_3456" x1="2108.5" y1="-200" x2="-676" y2="731.5" gradientUnits="userSpaceOnUse">
<stop stop-color="white"/>
<stop offset="1" stop-color="white" stop-opacity="0"/>
</linearGradient>
<linearGradient id="paint33_linear_2_3456" x1="2108.5" y1="-200" x2="-676" y2="731.5" gradientUnits="userSpaceOnUse">
<stop stop-color="white"/>
<stop offset="1" stop-color="white" stop-opacity="0"/>
</linearGradient>
<linearGradient id="paint34_linear_2_3456" x1="2108.5" y1="-200" x2="-676" y2="731.5" gradientUnits="userSpaceOnUse">
<stop stop-color="white"/>
<stop offset="1" stop-color="white" stop-opacity="0"/>
</linearGradient>
<linearGradient id="paint35_linear_2_3456" x1="2108.5" y1="-200" x2="-676" y2="731.5" gradientUnits="userSpaceOnUse">
<stop stop-color="white"/>
<stop offset="1" stop-color="white" stop-opacity="0"/>
</linearGradient>
<linearGradient id="paint36_linear_2_3456" x1="2108.5" y1="-200" x2="-676" y2="731.5" gradientUnits="userSpaceOnUse">
<stop stop-color="white"/>
<stop offset="1" stop-color="white" stop-opacity="0"/>
</linearGradient>
<linearGradient id="paint37_linear_2_3456" x1="2108.5" y1="-200" x2="-676" y2="731.5" gradientUnits="userSpaceOnUse">
<stop stop-color="white"/>
<stop offset="1" stop-color="white" stop-opacity="0"/>
</linearGradient>
<linearGradient id="paint38_linear_2_3456" x1="2108.5" y1="-200" x2="-676" y2="731.5" gradientUnits="userSpaceOnUse">
<stop stop-color="white"/>
<stop offset="1" stop-color="white" stop-opacity="0"/>
</linearGradient>
<linearGradient id="paint39_linear_2_3456" x1="2108.5" y1="-200" x2="-676" y2="731.5" gradientUnits="userSpaceOnUse">
<stop stop-color="white"/>
<stop offset="1" stop-color="white" stop-opacity="0"/>
</linearGradient>
<linearGradient id="paint40_linear_2_3456" x1="2108.5" y1="-200" x2="-676" y2="731.5" gradientUnits="userSpaceOnUse">
<stop stop-color="white"/>
<stop offset="1" stop-color="white" stop-opacity="0"/>
</linearGradient>
<linearGradient id="paint41_linear_2_3456" x1="2108.5" y1="-200" x2="-676" y2="731.5" gradientUnits="userSpaceOnUse">
<stop stop-color="white"/>
<stop offset="1" stop-color="white" stop-opacity="0"/>
</linearGradient>
<linearGradient id="paint42_linear_2_3456" x1="2108.5" y1="-200" x2="-676" y2="731.5" gradientUnits="userSpaceOnUse">
<stop stop-color="white"/>
<stop offset="1" stop-color="white" stop-opacity="0"/>
</linearGradient>
<linearGradient id="paint43_linear_2_3456" x1="2108.5" y1="-200" x2="-676" y2="731.5" gradientUnits="userSpaceOnUse">
<stop stop-color="white"/>
<stop offset="1" stop-color="white" stop-opacity="0"/>
</linearGradient>
<linearGradient id="paint44_linear_2_3456" x1="2108.5" y1="-200" x2="-676" y2="731.5" gradientUnits="userSpaceOnUse">
<stop stop-color="white"/>
<stop offset="1" stop-color="white" stop-opacity="0"/>
</linearGradient>
<linearGradient id="paint45_linear_2_3456" x1="2108.5" y1="-200" x2="-676" y2="731.5" gradientUnits="userSpaceOnUse">
<stop stop-color="white"/>
<stop offset="1" stop-color="white" stop-opacity="0"/>
</linearGradient>
<linearGradient id="paint46_linear_2_3456" x1="2108.5" y1="-200" x2="-676" y2="731.5" gradientUnits="userSpaceOnUse">
<stop stop-color="white"/>
<stop offset="1" stop-color="white" stop-opacity="0"/>
</linearGradient>
<linearGradient id="paint47_linear_2_3456" x1="2108.5" y1="-200" x2="-676" y2="731.5" gradientUnits="userSpaceOnUse">
<stop stop-color="white"/>
<stop offset="1" stop-color="white" stop-opacity="0"/>
</linearGradient>
<linearGradient id="paint48_linear_2_3456" x1="2108.5" y1="-200" x2="-676" y2="731.5" gradientUnits="userSpaceOnUse">
<stop stop-color="white"/>
<stop offset="1" stop-color="white" stop-opacity="0"/>
</linearGradient>
<linearGradient id="paint49_linear_2_3456" x1="2108.5" y1="-200" x2="-676" y2="731.5" gradientUnits="userSpaceOnUse">
<stop stop-color="white"/>
<stop offset="1" stop-color="white" stop-opacity="0"/>
</linearGradient>
<linearGradient id="paint50_linear_2_3456" x1="2108.5" y1="-200" x2="-676" y2="731.5" gradientUnits="userSpaceOnUse">
<stop stop-color="white"/>
<stop offset="1" stop-color="white" stop-opacity="0"/>
</linearGradient>
<linearGradient id="paint51_linear_2_3456" x1="2108.5" y1="-200" x2="-676" y2="731.5" gradientUnits="userSpaceOnUse">
<stop stop-color="white"/>
<stop offset="1" stop-color="white" stop-opacity="0"/>
</linearGradient>
<linearGradient id="paint52_linear_2_3456" x1="2108.5" y1="-200" x2="-676" y2="731.5" gradientUnits="userSpaceOnUse">
<stop stop-color="white"/>
<stop offset="1" stop-color="white" stop-opacity="0"/>
</linearGradient>
<linearGradient id="paint53_linear_2_3456" x1="2108.5" y1="-200" x2="-676" y2="731.5" gradientUnits="userSpaceOnUse">
<stop stop-color="white"/>
<stop offset="1" stop-color="white" stop-opacity="0"/>
</linearGradient>
<linearGradient id="paint54_linear_2_3456" x1="2108.5" y1="-200" x2="-676" y2="731.5" gradientUnits="userSpaceOnUse">
<stop stop-color="white"/>
<stop offset="1" stop-color="white" stop-opacity="0"/>
</linearGradient>
<linearGradient id="paint55_linear_2_3456" x1="2108.5" y1="-200" x2="-676" y2="731.5" gradientUnits="userSpaceOnUse">
<stop stop-color="white"/>
<stop offset="1" stop-color="white" stop-opacity="0"/>
</linearGradient>
<linearGradient id="paint56_linear_2_3456" x1="2108.5" y1="-200" x2="-676" y2="731.5" gradientUnits="userSpaceOnUse">
<stop stop-color="white"/>
<stop offset="1" stop-color="white" stop-opacity="0"/>
</linearGradient>
<linearGradient id="paint57_linear_2_3456" x1="2108.5" y1="-200" x2="-676" y2="731.5" gradientUnits="userSpaceOnUse">
<stop stop-color="white"/>
<stop offset="1" stop-color="white" stop-opacity="0"/>
</linearGradient>
<linearGradient id="paint58_linear_2_3456" x1="2108.5" y1="-200" x2="-676" y2="731.5" gradientUnits="userSpaceOnUse">
<stop stop-color="white"/>
<stop offset="1" stop-color="white" stop-opacity="0"/>
</linearGradient>
<linearGradient id="paint59_linear_2_3456" x1="2108.5" y1="-200" x2="-676" y2="731.5" gradientUnits="userSpaceOnUse">
<stop stop-color="white"/>
<stop offset="1" stop-color="white" stop-opacity="0"/>
</linearGradient>
<linearGradient id="paint60_linear_2_3456" x1="2108.5" y1="-200" x2="-676" y2="731.5" gradientUnits="userSpaceOnUse">
<stop stop-color="white"/>
<stop offset="1" stop-color="white" stop-opacity="0"/>
</linearGradient>
<linearGradient id="paint61_linear_2_3456" x1="2108.5" y1="-200" x2="-676" y2="731.5" gradientUnits="userSpaceOnUse">
<stop stop-color="white"/>
<stop offset="1" stop-color="white" stop-opacity="0"/>
</linearGradient>
<linearGradient id="paint62_linear_2_3456" x1="2108.5" y1="-200" x2="-676" y2="731.5" gradientUnits="userSpaceOnUse">
<stop stop-color="white"/>
<stop offset="1" stop-color="white" stop-opacity="0"/>
</linearGradient>
<linearGradient id="paint63_linear_2_3456" x1="2108.5" y1="-200" x2="-676" y2="731.5" gradientUnits="userSpaceOnUse">
<stop stop-color="white"/>
<stop offset="1" stop-color="white" stop-opacity="0"/>
</linearGradient>
<linearGradient id="paint64_linear_2_3456" x1="2108.5" y1="-200" x2="-676" y2="731.5" gradientUnits="userSpaceOnUse">
<stop stop-color="white"/>
<stop offset="1" stop-color="white" stop-opacity="0"/>
</linearGradient>
<linearGradient id="paint65_linear_2_3456" x1="2108.5" y1="-200" x2="-676" y2="731.5" gradientUnits="userSpaceOnUse">
<stop stop-color="white"/>
<stop offset="1" stop-color="white" stop-opacity="0"/>
</linearGradient>
<linearGradient id="paint66_linear_2_3456" x1="2108.5" y1="-200" x2="-676" y2="731.5" gradientUnits="userSpaceOnUse">
<stop stop-color="white"/>
<stop offset="1" stop-color="white" stop-opacity="0"/>
</linearGradient>
<linearGradient id="paint67_linear_2_3456" x1="2108.5" y1="-200" x2="-676" y2="731.5" gradientUnits="userSpaceOnUse">
<stop stop-color="white"/>
<stop offset="1" stop-color="white" stop-opacity="0"/>
</linearGradient>
<linearGradient id="paint68_linear_2_3456" x1="2108.5" y1="-200" x2="-676" y2="731.5" gradientUnits="userSpaceOnUse">
<stop stop-color="white"/>
<stop offset="1" stop-color="white" stop-opacity="0"/>
</linearGradient>
<linearGradient id="paint69_linear_2_3456" x1="2108.5" y1="-200" x2="-676" y2="731.5" gradientUnits="userSpaceOnUse">
<stop stop-color="white"/>
<stop offset="1" stop-color="white" stop-opacity="0"/>
</linearGradient>
<linearGradient id="paint70_linear_2_3456" x1="2108.5" y1="-200" x2="-676" y2="731.5" gradientUnits="userSpaceOnUse">
<stop stop-color="white"/>
<stop offset="1" stop-color="white" stop-opacity="0"/>
</linearGradient>
<linearGradient id="paint71_linear_2_3456" x1="2108.5" y1="-200" x2="-676" y2="731.5" gradientUnits="userSpaceOnUse">
<stop stop-color="white"/>
<stop offset="1" stop-color="white" stop-opacity="0"/>
</linearGradient>
<linearGradient id="paint72_linear_2_3456" x1="2108.5" y1="-200" x2="-676" y2="731.5" gradientUnits="userSpaceOnUse">
<stop stop-color="white"/>
<stop offset="1" stop-color="white" stop-opacity="0"/>
</linearGradient>
<linearGradient id="paint73_linear_2_3456" x1="2108.5" y1="-200" x2="-676" y2="731.5" gradientUnits="userSpaceOnUse">
<stop stop-color="white"/>
<stop offset="1" stop-color="white" stop-opacity="0"/>
</linearGradient>
<linearGradient id="paint74_linear_2_3456" x1="2108.5" y1="-200" x2="-676" y2="731.5" gradientUnits="userSpaceOnUse">
<stop stop-color="white"/>
<stop offset="1" stop-color="white" stop-opacity="0"/>
</linearGradient>
<linearGradient id="paint75_linear_2_3456" x1="2108.5" y1="-200" x2="-676" y2="731.5" gradientUnits="userSpaceOnUse">
<stop stop-color="white"/>
<stop offset="1" stop-color="white" stop-opacity="0"/>
</linearGradient>
<linearGradient id="paint76_linear_2_3456" x1="2108.5" y1="-200" x2="-676" y2="731.5" gradientUnits="userSpaceOnUse">
<stop stop-color="white"/>
<stop offset="1" stop-color="white" stop-opacity="0"/>
</linearGradient>
<linearGradient id="paint77_linear_2_3456" x1="2108.5" y1="-200" x2="-676" y2="731.5" gradientUnits="userSpaceOnUse">
<stop stop-color="white"/>
<stop offset="1" stop-color="white" stop-opacity="0"/>
</linearGradient>
<linearGradient id="paint78_linear_2_3456" x1="2108.5" y1="-200" x2="-676" y2="731.5" gradientUnits="userSpaceOnUse">
<stop stop-color="white"/>
<stop offset="1" stop-color="white" stop-opacity="0"/>
</linearGradient>
<linearGradient id="paint79_linear_2_3456" x1="2108.5" y1="-200" x2="-676" y2="731.5" gradientUnits="userSpaceOnUse">
<stop stop-color="white"/>
<stop offset="1" stop-color="white" stop-opacity="0"/>
</linearGradient>
<linearGradient id="paint80_linear_2_3456" x1="2108.5" y1="-200" x2="-676" y2="731.5" gradientUnits="userSpaceOnUse">
<stop stop-color="white"/>
<stop offset="1" stop-color="white" stop-opacity="0"/>
</linearGradient>
<linearGradient id="paint81_linear_2_3456" x1="2108.5" y1="-200" x2="-676" y2="731.5" gradientUnits="userSpaceOnUse">
<stop stop-color="white"/>
<stop offset="1" stop-color="white" stop-opacity="0"/>
</linearGradient>
<linearGradient id="paint82_linear_2_3456" x1="2108.5" y1="-200" x2="-676" y2="731.5" gradientUnits="userSpaceOnUse">
<stop stop-color="white"/>
<stop offset="1" stop-color="white" stop-opacity="0"/>
</linearGradient>
<linearGradient id="paint83_linear_2_3456" x1="2108.5" y1="-200" x2="-676" y2="731.5" gradientUnits="userSpaceOnUse">
<stop stop-color="white"/>
<stop offset="1" stop-color="white" stop-opacity="0"/>
</linearGradient>
<linearGradient id="paint84_linear_2_3456" x1="2108.5" y1="-200" x2="-676" y2="731.5" gradientUnits="userSpaceOnUse">
<stop stop-color="white"/>
<stop offset="1" stop-color="white" stop-opacity="0"/>
</linearGradient>
<linearGradient id="paint85_linear_2_3456" x1="2108.5" y1="-200" x2="-676" y2="731.5" gradientUnits="userSpaceOnUse">
<stop stop-color="white"/>
<stop offset="1" stop-color="white" stop-opacity="0"/>
</linearGradient>
<linearGradient id="paint86_linear_2_3456" x1="2108.5" y1="-200" x2="-676" y2="731.5" gradientUnits="userSpaceOnUse">
<stop stop-color="white"/>
<stop offset="1" stop-color="white" stop-opacity="0"/>
</linearGradient>
<linearGradient id="paint87_linear_2_3456" x1="2108.5" y1="-200" x2="-676" y2="731.5" gradientUnits="userSpaceOnUse">
<stop stop-color="white"/>
<stop offset="1" stop-color="white" stop-opacity="0"/>
</linearGradient>
<linearGradient id="paint88_linear_2_3456" x1="2108.5" y1="-200" x2="-676" y2="731.5" gradientUnits="userSpaceOnUse">
<stop stop-color="white"/>
<stop offset="1" stop-color="white" stop-opacity="0"/>
</linearGradient>
<linearGradient id="paint89_linear_2_3456" x1="2108.5" y1="-200" x2="-676" y2="731.5" gradientUnits="userSpaceOnUse">
<stop stop-color="white"/>
<stop offset="1" stop-color="white" stop-opacity="0"/>
</linearGradient>
<linearGradient id="paint90_linear_2_3456" x1="2108.5" y1="-200" x2="-676" y2="731.5" gradientUnits="userSpaceOnUse">
<stop stop-color="white"/>
<stop offset="1" stop-color="white" stop-opacity="0"/>
</linearGradient>
<linearGradient id="paint91_linear_2_3456" x1="2108.5" y1="-200" x2="-676" y2="731.5" gradientUnits="userSpaceOnUse">
<stop stop-color="white"/>
<stop offset="1" stop-color="white" stop-opacity="0"/>
</linearGradient>
<linearGradient id="paint92_linear_2_3456" x1="2108.5" y1="-200" x2="-676" y2="731.5" gradientUnits="userSpaceOnUse">
<stop stop-color="white"/>
<stop offset="1" stop-color="white" stop-opacity="0"/>
</linearGradient>
<linearGradient id="paint93_linear_2_3456" x1="2108.5" y1="-200" x2="-676" y2="731.5" gradientUnits="userSpaceOnUse">
<stop stop-color="white"/>
<stop offset="1" stop-color="white" stop-opacity="0"/>
</linearGradient>
<linearGradient id="paint94_linear_2_3456" x1="2108.5" y1="-200" x2="-676" y2="731.5" gradientUnits="userSpaceOnUse">
<stop stop-color="white"/>
<stop offset="1" stop-color="white" stop-opacity="0"/>
</linearGradient>
<linearGradient id="paint95_linear_2_3456" x1="2108.5" y1="-200" x2="-676" y2="731.5" gradientUnits="userSpaceOnUse">
<stop stop-color="white"/>
<stop offset="1" stop-color="white" stop-opacity="0"/>
</linearGradient>
<linearGradient id="paint96_linear_2_3456" x1="2108.5" y1="-200" x2="-676" y2="731.5" gradientUnits="userSpaceOnUse">
<stop stop-color="white"/>
<stop offset="1" stop-color="white" stop-opacity="0"/>
</linearGradient>
<linearGradient id="paint97_linear_2_3456" x1="2108.5" y1="-200" x2="-676" y2="731.5" gradientUnits="userSpaceOnUse">
<stop stop-color="white"/>
<stop offset="1" stop-color="white" stop-opacity="0"/>
</linearGradient>
<linearGradient id="paint98_linear_2_3456" x1="2108.5" y1="-200" x2="-676" y2="731.5" gradientUnits="userSpaceOnUse">
<stop stop-color="white"/>
<stop offset="1" stop-color="white" stop-opacity="0"/>
</linearGradient>
<linearGradient id="paint99_linear_2_3456" x1="2108.5" y1="-200" x2="-676" y2="731.5" gradientUnits="userSpaceOnUse">
<stop stop-color="white"/>
<stop offset="1" stop-color="white" stop-opacity="0"/>
</linearGradient>
<linearGradient id="paint100_linear_2_3456" x1="2108.5" y1="-200" x2="-676" y2="731.5" gradientUnits="userSpaceOnUse">
<stop stop-color="white"/>
<stop offset="1" stop-color="white" stop-opacity="0"/>
</linearGradient>
<linearGradient id="paint101_linear_2_3456" x1="2108.5" y1="-200" x2="-676" y2="731.5" gradientUnits="userSpaceOnUse">
<stop stop-color="white"/>
<stop offset="1" stop-color="white" stop-opacity="0"/>
</linearGradient>
<linearGradient id="paint102_linear_2_3456" x1="2108.5" y1="-200" x2="-676" y2="731.5" gradientUnits="userSpaceOnUse">
<stop stop-color="white"/>
<stop offset="1" stop-color="white" stop-opacity="0"/>
</linearGradient>
<linearGradient id="paint103_linear_2_3456" x1="2108.5" y1="-200" x2="-676" y2="731.5" gradientUnits="userSpaceOnUse">
<stop stop-color="white"/>
<stop offset="1" stop-color="white" stop-opacity="0"/>
</linearGradient>
<linearGradient id="paint104_linear_2_3456" x1="2108.5" y1="-200" x2="-676" y2="731.5" gradientUnits="userSpaceOnUse">
<stop stop-color="white"/>
<stop offset="1" stop-color="white" stop-opacity="0"/>
</linearGradient>
<linearGradient id="paint105_linear_2_3456" x1="2108.5" y1="-200" x2="-676" y2="731.5" gradientUnits="userSpaceOnUse">
<stop stop-color="white"/>
<stop offset="1" stop-color="white" stop-opacity="0"/>
</linearGradient>
<linearGradient id="paint106_linear_2_3456" x1="2108.5" y1="-200" x2="-676" y2="731.5" gradientUnits="userSpaceOnUse">
<stop stop-color="white"/>
<stop offset="1" stop-color="white" stop-opacity="0"/>
</linearGradient>
<linearGradient id="paint107_linear_2_3456" x1="2108.5" y1="-200" x2="-676" y2="731.5" gradientUnits="userSpaceOnUse">
<stop stop-color="white"/>
<stop offset="1" stop-color="white" stop-opacity="0"/>
</linearGradient>
<linearGradient id="paint108_linear_2_3456" x1="2108.5" y1="-200" x2="-676" y2="731.5" gradientUnits="userSpaceOnUse">
<stop stop-color="white"/>
<stop offset="1" stop-color="white" stop-opacity="0"/>
</linearGradient>
<linearGradient id="paint109_linear_2_3456" x1="2108.5" y1="-200" x2="-676" y2="731.5" gradientUnits="userSpaceOnUse">
<stop stop-color="white"/>
<stop offset="1" stop-color="white" stop-opacity="0"/>
</linearGradient>
<linearGradient id="paint110_linear_2_3456" x1="2108.5" y1="-200" x2="-676" y2="731.5" gradientUnits="userSpaceOnUse">
<stop stop-color="white"/>
<stop offset="1" stop-color="white" stop-opacity="0"/>
</linearGradient>
<linearGradient id="paint111_linear_2_3456" x1="2108.5" y1="-200" x2="-676" y2="731.5" gradientUnits="userSpaceOnUse">
<stop stop-color="white"/>
<stop offset="1" stop-color="white" stop-opacity="0"/>
</linearGradient>
<linearGradient id="paint112_linear_2_3456" x1="2108.5" y1="-200" x2="-676" y2="731.5" gradientUnits="userSpaceOnUse">
<stop stop-color="white"/>
<stop offset="1" stop-color="white" stop-opacity="0"/>
</linearGradient>
<linearGradient id="paint113_linear_2_3456" x1="2108.5" y1="-200" x2="-676" y2="731.5" gradientUnits="userSpaceOnUse">
<stop stop-color="white"/>
<stop offset="1" stop-color="white" stop-opacity="0"/>
</linearGradient>
<linearGradient id="paint114_linear_2_3456" x1="2108.5" y1="-200" x2="-676" y2="731.5" gradientUnits="userSpaceOnUse">
<stop stop-color="white"/>
<stop offset="1" stop-color="white" stop-opacity="0"/>
</linearGradient>
<linearGradient id="paint115_linear_2_3456" x1="2108.5" y1="-200" x2="-676" y2="731.5" gradientUnits="userSpaceOnUse">
<stop stop-color="white"/>
<stop offset="1" stop-color="white" stop-opacity="0"/>
</linearGradient>
<linearGradient id="paint116_linear_2_3456" x1="2108.5" y1="-200" x2="-676" y2="731.5" gradientUnits="userSpaceOnUse">
<stop stop-color="white"/>
<stop offset="1" stop-color="white" stop-opacity="0"/>
</linearGradient>
<linearGradient id="paint117_linear_2_3456" x1="2108.5" y1="-200" x2="-676" y2="731.5" gradientUnits="userSpaceOnUse">
<stop stop-color="white"/>
<stop offset="1" stop-color="white" stop-opacity="0"/>
</linearGradient>
<linearGradient id="paint118_linear_2_3456" x1="2108.5" y1="-200" x2="-676" y2="731.5" gradientUnits="userSpaceOnUse">
<stop stop-color="white"/>
<stop offset="1" stop-color="white" stop-opacity="0"/>
</linearGradient>
<linearGradient id="paint119_linear_2_3456" x1="2108.5" y1="-200" x2="-676" y2="731.5" gradientUnits="userSpaceOnUse">
<stop stop-color="white"/>
<stop offset="1" stop-color="white" stop-opacity="0"/>
</linearGradient>
<linearGradient id="paint120_linear_2_3456" x1="2108.5" y1="-200" x2="-676" y2="731.5" gradientUnits="userSpaceOnUse">
<stop stop-color="white"/>
<stop offset="1" stop-color="white" stop-opacity="0"/>
</linearGradient>
<linearGradient id="paint121_linear_2_3456" x1="2108.5" y1="-200" x2="-676" y2="731.5" gradientUnits="userSpaceOnUse">
<stop stop-color="white"/>
<stop offset="1" stop-color="white" stop-opacity="0"/>
</linearGradient>
<linearGradient id="paint122_linear_2_3456" x1="2108.5" y1="-200" x2="-676" y2="731.5" gradientUnits="userSpaceOnUse">
<stop stop-color="white"/>
<stop offset="1" stop-color="white" stop-opacity="0"/>
</linearGradient>
<linearGradient id="paint123_linear_2_3456" x1="2108.5" y1="-200" x2="-676" y2="731.5" gradientUnits="userSpaceOnUse">
<stop stop-color="white"/>
<stop offset="1" stop-color="white" stop-opacity="0"/>
</linearGradient>
<linearGradient id="paint124_linear_2_3456" x1="2108.5" y1="-200" x2="-676" y2="731.5" gradientUnits="userSpaceOnUse">
<stop stop-color="white"/>
<stop offset="1" stop-color="white" stop-opacity="0"/>
</linearGradient>
<linearGradient id="paint125_linear_2_3456" x1="2108.5" y1="-200" x2="-676" y2="731.5" gradientUnits="userSpaceOnUse">
<stop stop-color="white"/>
<stop offset="1" stop-color="white" stop-opacity="0"/>
</linearGradient>
<linearGradient id="paint126_linear_2_3456" x1="2108.5" y1="-200" x2="-676" y2="731.5" gradientUnits="userSpaceOnUse">
<stop stop-color="white"/>
<stop offset="1" stop-color="white" stop-opacity="0"/>
</linearGradient>
<linearGradient id="paint127_linear_2_3456" x1="2108.5" y1="-200" x2="-676" y2="731.5" gradientUnits="userSpaceOnUse">
<stop stop-color="white"/>
<stop offset="1" stop-color="white" stop-opacity="0"/>
</linearGradient>
<linearGradient id="paint128_linear_2_3456" x1="2108.5" y1="-200" x2="-676" y2="731.5" gradientUnits="userSpaceOnUse">
<stop stop-color="white"/>
<stop offset="1" stop-color="white" stop-opacity="0"/>
</linearGradient>
<linearGradient id="paint129_linear_2_3456" x1="2108.5" y1="-200" x2="-676" y2="731.5" gradientUnits="userSpaceOnUse">
<stop stop-color="white"/>
<stop offset="1" stop-color="white" stop-opacity="0"/>
</linearGradient>
<linearGradient id="paint130_linear_2_3456" x1="2108.5" y1="-200" x2="-676" y2="731.5" gradientUnits="userSpaceOnUse">
<stop stop-color="white"/>
<stop offset="1" stop-color="white" stop-opacity="0"/>
</linearGradient>
<linearGradient id="paint131_linear_2_3456" x1="2108.5" y1="-200" x2="-676" y2="731.5" gradientUnits="userSpaceOnUse">
<stop stop-color="white"/>
<stop offset="1" stop-color="white" stop-opacity="0"/>
</linearGradient>
<linearGradient id="paint132_linear_2_3456" x1="2108.5" y1="-200" x2="-676" y2="731.5" gradientUnits="userSpaceOnUse">
<stop stop-color="white"/>
<stop offset="1" stop-color="white" stop-opacity="0"/>
</linearGradient>
<linearGradient id="paint133_linear_2_3456" x1="2108.5" y1="-200" x2="-676" y2="731.5" gradientUnits="userSpaceOnUse">
<stop stop-color="white"/>
<stop offset="1" stop-color="white" stop-opacity="0"/>
</linearGradient>
<linearGradient id="paint134_linear_2_3456" x1="2108.5" y1="-200" x2="-676" y2="731.5" gradientUnits="userSpaceOnUse">
<stop stop-color="white"/>
<stop offset="1" stop-color="white" stop-opacity="0"/>
</linearGradient>
<linearGradient id="paint135_linear_2_3456" x1="2108.5" y1="-200" x2="-676" y2="731.5" gradientUnits="userSpaceOnUse">
<stop stop-color="white"/>
<stop offset="1" stop-color="white" stop-opacity="0"/>
</linearGradient>
<linearGradient id="paint136_linear_2_3456" x1="2108.5" y1="-200" x2="-676" y2="731.5" gradientUnits="userSpaceOnUse">
<stop stop-color="white"/>
<stop offset="1" stop-color="white" stop-opacity="0"/>
</linearGradient>
<linearGradient id="paint137_linear_2_3456" x1="2108.5" y1="-200" x2="-676" y2="731.5" gradientUnits="userSpaceOnUse">
<stop stop-color="white"/>
<stop offset="1" stop-color="white" stop-opacity="0"/>
</linearGradient>
<linearGradient id="paint138_linear_2_3456" x1="2108.5" y1="-200" x2="-676" y2="731.5" gradientUnits="userSpaceOnUse">
<stop stop-color="white"/>
<stop offset="1" stop-color="white" stop-opacity="0"/>
</linearGradient>
<linearGradient id="paint139_linear_2_3456" x1="2108.5" y1="-200" x2="-676" y2="731.5" gradientUnits="userSpaceOnUse">
<stop stop-color="white"/>
<stop offset="1" stop-color="white" stop-opacity="0"/>
</linearGradient>
<linearGradient id="paint140_linear_2_3456" x1="2108.5" y1="-200" x2="-676" y2="731.5" gradientUnits="userSpaceOnUse">
<stop stop-color="white"/>
<stop offset="1" stop-color="white" stop-opacity="0"/>
</linearGradient>
<linearGradient id="paint141_linear_2_3456" x1="2108.5" y1="-200" x2="-676" y2="731.5" gradientUnits="userSpaceOnUse">
<stop stop-color="white"/>
<stop offset="1" stop-color="white" stop-opacity="0"/>
</linearGradient>
<linearGradient id="paint142_linear_2_3456" x1="2108.5" y1="-200" x2="-676" y2="731.5" gradientUnits="userSpaceOnUse">
<stop stop-color="white"/>
<stop offset="1" stop-color="white" stop-opacity="0"/>
</linearGradient>
<linearGradient id="paint143_linear_2_3456" x1="2108.5" y1="-200" x2="-676" y2="731.5" gradientUnits="userSpaceOnUse">
<stop stop-color="white"/>
<stop offset="1" stop-color="white" stop-opacity="0"/>
</linearGradient>
<linearGradient id="paint144_linear_2_3456" x1="2108.5" y1="-200" x2="-676" y2="731.5" gradientUnits="userSpaceOnUse">
<stop stop-color="white"/>
<stop offset="1" stop-color="white" stop-opacity="0"/>
</linearGradient>
<linearGradient id="paint145_linear_2_3456" x1="2108.5" y1="-200" x2="-676" y2="731.5" gradientUnits="userSpaceOnUse">
<stop stop-color="white"/>
<stop offset="1" stop-color="white" stop-opacity="0"/>
</linearGradient>
<linearGradient id="paint146_linear_2_3456" x1="2108.5" y1="-200" x2="-676" y2="731.5" gradientUnits="userSpaceOnUse">
<stop stop-color="white"/>
<stop offset="1" stop-color="white" stop-opacity="0"/>
</linearGradient>
<linearGradient id="paint147_linear_2_3456" x1="2108.5" y1="-200" x2="-676" y2="731.5" gradientUnits="userSpaceOnUse">
<stop stop-color="white"/>
<stop offset="1" stop-color="white" stop-opacity="0"/>
</linearGradient>
<linearGradient id="paint148_linear_2_3456" x1="2108.5" y1="-200" x2="-676" y2="731.5" gradientUnits="userSpaceOnUse">
<stop stop-color="white"/>
<stop offset="1" stop-color="white" stop-opacity="0"/>
</linearGradient>
<linearGradient id="paint149_linear_2_3456" x1="2108.5" y1="-200" x2="-676" y2="731.5" gradientUnits="userSpaceOnUse">
<stop stop-color="white"/>
<stop offset="1" stop-color="white" stop-opacity="0"/>
</linearGradient>
<linearGradient id="paint150_linear_2_3456" x1="2108.5" y1="-200" x2="-676" y2="731.5" gradientUnits="userSpaceOnUse">
<stop stop-color="white"/>
<stop offset="1" stop-color="white" stop-opacity="0"/>
</linearGradient>
<linearGradient id="paint151_linear_2_3456" x1="2108.5" y1="-200" x2="-676" y2="731.5" gradientUnits="userSpaceOnUse">
<stop stop-color="white"/>
<stop offset="1" stop-color="white" stop-opacity="0"/>
</linearGradient>
<linearGradient id="paint152_linear_2_3456" x1="2108.5" y1="-200" x2="-676" y2="731.5" gradientUnits="userSpaceOnUse">
<stop stop-color="white"/>
<stop offset="1" stop-color="white" stop-opacity="0"/>
</linearGradient>
<linearGradient id="paint153_linear_2_3456" x1="2108.5" y1="-200" x2="-676" y2="731.5" gradientUnits="userSpaceOnUse">
<stop stop-color="white"/>
<stop offset="1" stop-color="white" stop-opacity="0"/>
</linearGradient>
<linearGradient id="paint154_linear_2_3456" x1="2108.5" y1="-200" x2="-676" y2="731.5" gradientUnits="userSpaceOnUse">
<stop stop-color="white"/>
<stop offset="1" stop-color="white" stop-opacity="0"/>
</linearGradient>
<linearGradient id="paint155_linear_2_3456" x1="2108.5" y1="-200" x2="-676" y2="731.5" gradientUnits="userSpaceOnUse">
<stop stop-color="white"/>
<stop offset="1" stop-color="white" stop-opacity="0"/>
</linearGradient>
<linearGradient id="paint156_linear_2_3456" x1="2108.5" y1="-200" x2="-676" y2="731.5" gradientUnits="userSpaceOnUse">
<stop stop-color="white"/>
<stop offset="1" stop-color="white" stop-opacity="0"/>
</linearGradient>
<linearGradient id="paint157_linear_2_3456" x1="2108.5" y1="-200" x2="-676" y2="731.5" gradientUnits="userSpaceOnUse">
<stop stop-color="white"/>
<stop offset="1" stop-color="white" stop-opacity="0"/>
</linearGradient>
<linearGradient id="paint158_linear_2_3456" x1="2108.5" y1="-200" x2="-676" y2="731.5" gradientUnits="userSpaceOnUse">
<stop stop-color="white"/>
<stop offset="1" stop-color="white" stop-opacity="0"/>
</linearGradient>
<linearGradient id="paint159_linear_2_3456" x1="2108.5" y1="-200" x2="-676" y2="731.5" gradientUnits="userSpaceOnUse">
<stop stop-color="white"/>
<stop offset="1" stop-color="white" stop-opacity="0"/>
</linearGradient>
<linearGradient id="paint160_linear_2_3456" x1="2108.5" y1="-200" x2="-676" y2="731.5" gradientUnits="userSpaceOnUse">
<stop stop-color="white"/>
<stop offset="1" stop-color="white" stop-opacity="0"/>
</linearGradient>
<linearGradient id="paint161_linear_2_3456" x1="2108.5" y1="-200" x2="-676" y2="731.5" gradientUnits="userSpaceOnUse">
<stop stop-color="white"/>
<stop offset="1" stop-color="white" stop-opacity="0"/>
</linearGradient>
<clipPath id="clip0_2_3456">
<rect width="1220" height="433" rx="26" fill="white"/>
</clipPath>
<clipPath id="clip1_2_3456">
<rect width="2587" height="972" fill="white" transform="translate(-683 -209)"/>
</clipPath>
</defs>
</svg>
